<svg width="344" height="195" viewBox="0 0 344 195" fill="none" xmlns="http://www.w3.org/2000/svg">
<path d="M281.677 128.629C282.566 127.496 283.536 126.687 283.536 125.23C283.536 124.34 283.698 123.935 284.102 123.045C284.426 122.398 284.911 122.721 285.638 122.883C285.153 121.831 284.264 120.617 284.102 119.403C283.941 117.704 284.668 117.704 286.042 116.652C284.668 115.681 283.698 115.033 282.89 113.576C282.081 115.033 281.435 116.571 280.222 117.704C278.929 118.918 276.746 119.322 276.989 121.265C275.938 121.184 275.534 121.184 274.725 121.427C274.24 121.588 275.372 124.664 275.453 125.23C275.938 127.092 275.938 126.444 277.797 126.93C278.848 127.173 280.465 127.496 280.06 128.872C280.545 128.791 281.111 128.71 281.677 128.629Z" fill="#BDD5E7"/>
<path d="M309.405 136.237C309.809 135.751 310.698 134.295 311.264 134.295C312.476 134.375 313.042 134.618 313.123 135.832C313.285 137.208 313.123 137.451 314.255 138.098C315.467 138.746 316.114 139.393 317.327 138.908C318.377 138.584 317.003 137.208 316.68 136.965C315.629 136.075 315.144 135.751 314.578 134.456C314.497 134.214 313.931 133.323 314.174 133.162C314.659 132.919 315.063 133 314.74 132.433C314.578 132.109 314.336 131.138 314.093 130.976C313.77 130.734 312.881 131.219 312.719 130.815C312.395 129.196 310.213 127.254 308.515 126.93C307.384 126.768 306.575 125.878 305.686 125.311C305.12 124.907 303.746 126.282 303.18 126.606C302.776 126.849 301.402 127.254 301.402 126.282C301.402 125.149 301.887 123.774 300.674 123.612C299.461 123.45 298.653 123.855 297.764 124.583C296.713 125.311 299.623 126.04 299.785 126.04C298.896 126.687 298.653 126.687 298.896 127.739C299.057 128.306 299.866 130.086 300.27 128.548C300.512 127.577 300.836 126.525 301.159 128.063C301.321 129.034 301.725 129.277 302.533 129.924C303.342 130.653 304.231 131.3 305.039 132.028C305.524 132.433 305.282 133.971 305.282 134.618C305.282 135.023 306.575 136.399 306.979 136.318C307.949 136.318 308.677 136.318 309.405 136.237Z" fill="#BDD5E7"/>
<path d="M218.624 109.611C217.492 108.478 216.926 109.044 215.471 109.206C215.714 109.449 216.522 110.663 216.845 110.501C217.33 110.177 217.896 109.773 218.624 109.611Z" fill="#BDD5E7"/>
<path d="M168.666 122.964C168.504 123.774 169.313 124.178 169.717 123.531C170.202 122.721 169.313 122.398 168.666 122.964Z" fill="#BDD5E7"/>
<path d="M169.475 121.588C169.717 124.502 172.223 120.455 169.475 121.588V121.588Z" fill="#BDD5E7"/>
<path d="M136.735 43.0049C137.544 41.9528 138.433 40.9007 139.241 39.8486C139.241 39.8486 142.232 40.2533 142.636 40.2533C143.93 40.2533 144.657 38.9584 145.546 38.0682C146.031 37.5826 148.295 37.4207 148.376 36.7733C148.699 34.8309 148.618 34.8309 147.163 33.536C146.759 33.1314 146.193 33.0505 145.627 32.8886C145.223 32.7267 144.981 31.5937 144.819 31.1891C144.738 30.8653 145.951 30.3797 146.193 30.2179C146.517 30.056 147.325 30.7035 147.648 30.8653C149.508 31.8365 149.346 31.8365 150.72 30.2988C150.154 29.9751 149.669 29.7323 149.103 29.4086C150.316 27.709 154.843 22.8532 150.235 22.6104C150.801 20.8299 151.69 21.2346 152.903 20.1016C154.196 18.9685 155.57 17.7546 156.864 16.6216C155.409 15.0839 155.409 15.0839 153.307 15.2457C151.124 15.4076 150.72 15.4076 149.184 16.9453C149.508 16.2169 149.831 15.5695 150.154 14.8411C148.214 14.3555 148.214 14.1127 147.244 15.8123C145.789 14.5983 144.9 15.0029 142.96 15.1648C143.768 13.8699 144.011 14.1127 145.546 14.0318C147.002 13.9509 148.376 13.9509 149.831 13.8699C149.508 13.3843 148.537 11.5229 147.972 11.442C146.678 11.1992 145.385 10.9564 144.091 10.7136C142.636 10.4708 138.271 9.33781 138.756 11.8467C137.786 11.5229 136.169 11.5229 136.735 10.0662C134.957 10.4708 134.472 10.228 133.825 11.9276C134.391 12.1704 135.038 12.3322 135.603 12.575C134.31 13.4653 134.31 13.8699 133.259 12.656C132.451 11.7657 131.481 11.6848 130.268 11.3611C130.026 12.8178 130.187 12.9797 128.651 12.9797C127.6 12.9797 128.005 11.442 127.115 11.2801C125.58 11.0374 121.699 10.1471 121.861 12.8988C120.325 12.7369 118.062 12.2513 118.223 14.3555C118.304 16.4597 115.879 15.7313 114.666 14.922C113.616 16.7025 113.616 16.5406 114.99 18.0783C115.071 18.1592 118.708 17.6737 117.172 18.483C116.526 18.8067 116.202 19.1304 115.556 18.8067C114.505 18.3211 114.424 17.9164 113.777 18.8876C113.292 19.6969 114.181 19.4541 114.424 20.1825C114.505 20.4253 113.939 20.8299 114.02 21.0727C114.181 21.3965 114.586 21.8011 114.747 22.0439C115.798 23.4197 116.526 22.5295 118.223 22.3676C119.759 22.2058 120.406 23.5816 121.376 24.6337C122.184 25.5239 122.508 27.4662 122.912 28.5993C123.235 29.3276 121.861 31.1081 121.538 31.8365C122.508 31.6746 124.933 30.9463 124.61 32.8886C123.801 32.8886 122.912 32.9695 122.104 32.9695C123.074 33.9407 123.559 34.5881 124.933 34.8309C123.882 36.2067 122.912 37.5016 121.861 38.8775C120.891 40.1723 121.618 42.4384 122.023 43.7333C122.184 44.2189 121.457 44.7854 121.618 45.19C121.942 46.0803 122.184 47.0514 122.508 47.9417C122.993 49.5603 124.367 50.1268 125.822 49.7221C125.903 51.5026 126.307 52.3119 128.166 52.1501C128.894 52.0691 128.894 48.9128 129.379 48.2654C130.106 47.3752 131.238 45.1091 132.289 44.7045C133.825 44.1379 135.28 43.5714 136.735 43.0049Z" fill="#BDD5E7"/>
<path d="M122.831 36.2067C123.235 34.8309 123.235 33.2123 121.457 34.0216C120.163 34.5072 121.699 36.5305 122.831 36.2067Z" fill="#BDD5E7"/>
<path d="M146.759 32.5649C147.487 32.8886 148.214 33.2932 148.942 33.617C149.023 31.9984 149.427 31.7556 147.891 31.27C147.002 31.0272 145.466 31.6746 146.759 32.5649Z" fill="#BDD5E7"/>
<path d="M314.012 156.631C313.447 154.932 312.961 153.313 312.396 151.614C312.234 151.047 311.021 150.966 310.779 150.4C310.536 149.914 310.86 148.619 310.86 148.134C310.941 146.92 310.941 145.787 311.021 144.573C311.021 143.682 310.698 143.602 309.89 143.035C308.758 142.145 310.051 138.989 308.515 138.989C306.09 138.989 307.141 147.405 304.797 147.648C303.908 147.729 301.402 145.544 301.159 144.654C300.917 143.602 302.614 140.769 303.018 139.717C300.674 139.231 299.381 138.989 297.117 139.636C295.743 140.041 295.501 139.879 295.016 141.174C294.531 142.711 294.611 143.035 293.075 143.44C292.995 142.711 292.995 141.983 292.914 141.255C290.489 142.711 288.063 144.168 285.719 145.625C285.396 145.787 285.719 146.677 285.719 146.92C285.8 147.567 285.315 147.972 284.911 148.538C284.587 149.024 282.486 148.619 281.677 148.943C280.141 149.59 278.525 150.238 276.989 150.885C276.019 151.29 275.776 153.232 275.453 154.123C274.402 156.874 274.564 159.383 274.564 162.377C274.564 162.863 274.887 165.291 274.402 165.615C272.947 166.667 272.381 167.314 273.998 168.447C276.019 169.904 279.171 168.366 281.677 168.366C282.971 168.366 282.728 167.152 283.86 166.91C285.477 166.586 287.013 166.262 288.629 165.938C289.519 165.777 291.297 166.748 292.186 166.99C292.186 166.99 291.944 170.39 292.752 170.228C293.722 170.066 294.692 169.904 295.581 169.742C295.743 170.471 294.126 171.199 293.56 171.684C294.531 172.494 294.531 172.494 295.743 172.089C295.662 172.898 294.935 175.812 295.581 176.298C296.39 176.945 297.279 177.592 298.087 178.24C298.653 178.644 299.542 177.592 299.947 177.997C301.159 179.211 303.503 178.24 305.12 177.997C306.09 177.835 307.384 174.679 307.869 173.87C308.92 172.17 309.162 171.118 311.021 170.713C311.991 170.471 313.285 166.829 313.689 165.938C314.497 164.401 314.578 162.944 314.902 161.244C315.225 159.221 314.578 158.897 313.285 157.279C313.527 156.955 313.77 156.712 314.012 156.631Z" fill="#BDD5E7"/>
<path d="M297.441 183.743C297.441 184.148 297.36 185.605 297.602 185.847C297.845 186.09 299.462 185.685 299.785 185.685C300.432 185.604 301.968 182.529 302.372 181.882C300.998 181.558 299.542 181.153 298.168 180.83C297.926 181.801 297.683 182.772 297.441 183.743Z" fill="#BDD5E7"/>
<path d="M331.069 175.812C330.665 175.731 330.261 175.731 329.856 175.65C330.018 177.188 331.069 181.153 329.452 182.286C327.916 183.419 327.755 183.338 327.916 185.2C327.997 186.414 327.674 187.223 328.644 188.194C330.261 186.818 334.222 184.633 334.222 182.367C334.222 181.558 333.737 181.801 333.009 181.801C332.686 181.801 332.524 180.749 332.443 180.506C332.039 178.968 331.554 177.35 331.069 175.812Z" fill="#BDD5E7"/>
<path d="M321.045 189.651C320.318 189.975 315.386 191.755 315.467 192.241C315.871 193.698 316.195 193.698 317.569 194.345C319.105 195.073 319.024 194.992 320.237 193.778C320.883 193.131 321.692 191.998 322.662 191.836C322.985 191.755 324.036 191.836 324.279 191.593C324.602 191.27 324.279 190.298 324.602 189.975C325.491 189.085 326.38 188.275 327.27 187.385C327.674 186.98 326.461 185.281 326.219 184.795C324.602 186.495 322.824 188.113 321.045 189.651Z" fill="#BDD5E7"/>
<path d="M327.431 154.203C328.401 155.579 328.967 156.55 330.503 157.279C330.665 156.146 330.827 155.984 330.018 155.256C329.21 154.527 328.482 153.799 327.674 152.99C327.593 153.394 327.512 153.799 327.431 154.203Z" fill="#BDD5E7"/>
<path d="M272.3 126.687C270.845 125.797 270.602 125.716 270.279 124.097C270.117 123.288 268.097 122.074 267.45 121.588C268.339 122.155 268.743 122.236 269.794 122.398C269.552 120.213 268.501 117.137 267.288 115.681C266.399 114.628 265.51 113.981 264.782 112.767C264.055 111.472 264.459 109.934 264.459 108.478C264.459 108.235 264.378 107.507 264.701 107.345C265.267 107.021 264.863 108.154 265.106 108.316C266.399 109.206 267.369 110.096 268.42 111.31C269.147 112.039 268.905 113.819 270.522 113.172C270.926 113.01 271.492 111.958 271.734 111.553C272.138 110.987 272.866 111.31 273.27 110.906C275.129 109.206 273.674 105.16 272.3 103.703C270.683 101.922 267.773 99.8181 270.522 97.4712C270.845 97.1474 271.653 96.9046 272.058 96.9856C272.704 97.0665 272.381 97.9567 272.947 98.0377C273.836 98.1995 273.836 97.8758 274.321 97.1474C274.725 96.5809 275.291 96.5 275.938 96.2572C277.231 95.7716 278.04 95.6098 278.929 94.5577C279.656 93.6674 281.273 92.3725 281.596 91.2395C281.92 90.0256 282.566 88.7307 282.728 87.4358C282.89 86.06 283.052 84.6032 281.516 84.4413C283.86 82.9846 279.495 79.7474 278.686 78.9381C277.878 78.1288 278.363 76.9957 279.01 76.2674C279.98 75.1343 280.465 75.6199 280.626 73.8394C280.061 73.8394 278.04 73.5157 277.635 73.8394C276.989 74.406 277.312 76.1055 275.938 74.6487C274.806 73.4348 275.049 73.3539 275.695 71.7353C276.019 70.9259 276.908 69.8738 277.797 70.1976C277.716 71.0878 277.555 73.9204 279.09 72.4636C279.495 72.059 280.06 71.0878 280.788 71.2497C281.758 71.4115 281.516 72.7873 281.516 73.5157C281.596 74.325 282.486 73.6776 283.051 74.0013C284.345 74.6488 283.132 74.1632 283.294 74.8106C283.456 75.539 284.587 78.6143 285.072 78.6143C286.366 78.5334 287.74 77.4813 287.417 75.9436C287.255 75.2962 287.336 74.406 286.77 74.0013C286.123 73.4348 285.153 72.9492 284.668 72.3018C284.183 71.6543 284.183 71.8162 284.183 70.9259C284.183 70.0357 285.396 69.712 285.396 68.9836C285.396 68.7408 284.992 68.2552 284.911 68.0934C284.749 67.7697 285.072 67.6887 285.153 67.365C285.315 66.6366 285.477 66.151 285.719 65.4227C288.063 67.8506 289.195 62.9948 289.68 61.6999C290.408 59.5147 290.165 57.1678 290.246 54.8208C290.327 53.4449 288.953 50.5315 288.063 49.4794C287.174 48.4273 286.366 47.3752 285.477 46.3231C284.992 45.6756 283.294 46.1612 283.617 47.2133C282.809 46.8896 281.92 46.5659 281.111 46.2421C282.486 43.3286 282.728 40.4961 283.213 37.3398C283.294 36.7733 286.608 36.1258 287.255 35.964C287.821 35.8021 288.468 35.2356 289.033 34.9119C289.599 34.5881 290.327 34.75 290.974 34.75C290.408 35.3974 291.054 35.883 291.459 36.5305C292.671 35.2356 293.075 34.2644 294.854 34.4263C294.611 32.7267 294.692 32.7267 292.914 32.403C293.48 30.2988 293.641 28.7611 295.258 27.2235C295.501 27.9518 295.5 29.0849 296.228 29.3277C297.602 29.7323 297.441 29.5704 298.249 28.3565C298.977 27.2235 298.734 27.2235 298.168 26.0095C297.602 24.7955 299.057 24.9574 299.623 24.9574C299.057 25.7667 299.381 27.0616 299.462 27.9518C299.542 29.0039 299.3 29.4895 298.896 30.4607C298.33 31.8365 297.764 33.2123 297.198 34.6691C296.713 35.883 296.956 36.0449 297.036 37.3398C297.117 38.0682 296.632 39.444 297.036 40.0105C297.764 41.0626 298.491 42.1147 299.138 43.1668C300.432 45.1091 301.321 47.2942 303.584 47.9417C303.584 46.404 303.665 44.9472 303.665 43.4096C303.665 43.0049 303.503 42.0337 303.665 41.6291C303.908 41.0626 304.878 41.0626 304.554 40.3342C304.393 39.9295 303.503 38.6347 303.584 38.23C303.665 37.7444 304.797 37.5016 304.393 36.9351C303.665 35.964 302.776 33.7788 301.321 34.2644C301.24 33.3742 301.159 32.4839 301.078 31.5937C300.997 30.2179 300.836 30.2988 302.129 29.9751C302.614 29.8132 303.18 29.7323 303.665 29.5704C304.069 29.4895 303.746 28.5184 303.908 28.2756C304.716 27.4663 305.605 28.4374 306.09 28.923C306.899 25.7667 307.464 20.749 311.587 21.0727C311.587 19.2113 311.749 19.2113 309.89 18.8876C308.839 18.7258 307.869 17.5118 307.06 16.7834C307.707 15.9741 308.435 15.7313 307.949 14.7602C307.626 13.9509 306.656 12.8988 307.707 12.3322C309.405 14.6792 311.991 14.7602 314.659 15.003C314.902 15.003 315.144 13.7081 315.144 13.4653C315.225 13.1415 314.174 12.3322 313.931 12.0894C313.285 11.442 314.982 9.90433 315.467 9.25688C314.255 8.85223 313.042 8.36665 311.749 7.96199C310.536 7.55734 310.617 8.44758 310.051 9.5806C308.758 7.96199 307.788 7.7192 305.767 7.07176C304.393 6.58617 302.533 5.45315 300.997 5.77687C298.896 6.18152 296.794 6.50524 294.692 6.9099C294.045 6.99083 293.156 7.63827 293.48 8.44758C294.045 9.82339 295.015 8.44758 294.773 10.3899C293.722 9.98526 292.752 9.17595 291.701 9.66153C290.084 10.309 288.468 10.9564 286.77 11.6039C286.366 11.7657 286.123 10.7136 285.962 10.3899C285.557 9.49967 285.638 9.5806 284.749 9.5806C283.052 9.5806 281.677 9.17595 280.546 10.3899C279.252 11.7657 279.09 11.442 277.231 11.0374C276.18 10.7946 274.159 9.90433 273.028 10.1471C271.411 10.4708 269.875 10.7946 268.258 11.1183C266.561 11.442 266.722 12.0085 266.076 13.6271C266.965 13.6271 267.046 13.9509 267.046 14.6792C267.046 15.1648 266.318 15.0029 265.914 15.0839C264.297 15.2457 262.761 15.4076 261.144 15.6504C261.225 16.2169 261.387 16.7834 261.468 17.4309C259.932 17.1881 258.396 16.8644 256.86 16.6216C257.264 15.8123 257.749 15.003 258.153 14.1936C256.133 14.1127 254.112 13.9509 252.01 13.8699C252.172 14.6792 252.333 15.5695 252.495 16.3788C252.495 16.6216 251.767 16.8644 251.606 16.9453C250.959 17.269 250.959 17.0262 250.393 16.5406C249.019 15.2457 246.351 16.4597 244.573 16.7025C243.199 16.9453 241.178 18.2402 241.097 19.6969C241.016 20.5062 240.127 20.6681 239.965 19.7778C239.884 18.8876 240.612 18.5639 241.339 17.9974C242.228 17.1881 243.118 16.4597 244.007 15.6504C244.734 15.0029 244.573 14.5983 244.573 13.6271C244.573 12.656 244.896 12.1704 244.007 11.9276C243.36 11.7657 241.905 11.0374 241.258 11.1992C240.288 11.5229 239.318 11.8467 238.348 12.1704C237.136 12.575 237.055 12.0894 236.166 11.1183C234.791 9.74246 233.094 12.8988 234.468 13.7081C231.154 15.4885 228.324 17.3499 225.333 19.616C224.121 20.5872 223.232 22.2867 222.342 23.5816C220.887 25.5239 223.636 26.1714 224.848 26.6569C224.202 27.1425 224.04 27.4663 223.312 27.2235C222.747 26.9807 221.372 26.1714 220.726 26.3332C220.16 26.4142 219.836 27.709 219.351 27.1425C218.786 26.4142 218.139 25.7667 217.573 25.0383C216.603 27.2235 217.977 29.3277 218.624 31.5128C218.866 32.3221 218.866 33.3742 219.917 33.4551C220.402 33.4551 222.181 31.9984 221.696 33.7788C220.726 33.3742 220.726 33.2123 219.917 33.8598C219.19 34.4263 220.079 34.75 220.16 35.4784C220.241 36.2067 219.917 37.2588 219.836 37.9872C219.756 38.7156 218.381 38.4728 217.735 38.5537C216.684 38.6347 217.654 37.7444 218.058 37.5016C219.028 36.9351 218.866 36.6923 219.028 35.4784C219.351 33.2932 218.139 33.4551 217.33 31.5128C217.088 30.9463 217.088 27.3044 216.603 27.2235C215.714 27.0616 214.824 26.9807 213.935 26.8188C212.965 26.6569 213.208 27.4663 213.046 28.4374C212.884 29.4086 213.935 28.8421 212.804 29.8132C212.157 30.3797 212.561 31.27 212.723 32.1602C212.884 33.2123 212.804 33.2123 213.774 33.617C214.824 34.0216 214.663 34.1835 214.905 35.3165C213.208 34.1835 211.348 34.1026 209.328 33.6979C208.519 33.536 208.6 34.3453 208.277 35.0737C208.115 35.5593 206.094 35.964 205.528 36.1258C204.881 36.3686 204.316 35.3974 204.316 35.3974C203.346 35.964 202.375 36.4495 201.405 37.0161C201.082 37.1779 199.304 37.9063 199.304 38.3109C199.223 39.7677 199.465 39.8486 198.01 40.0914C198.414 39.444 198.819 37.8254 198.01 37.5016C196.474 36.9351 196.232 36.9351 194.777 37.5016C195.343 38.5537 196.717 40.3342 196.636 41.5482C196.07 41.5482 195.585 41.3863 195.262 40.9007C194.13 42.1147 193.322 42.2765 194.211 43.7333C193.16 43.7333 192.109 43.6524 191.058 43.6524C191.301 43.9761 192.432 45.0282 192.19 45.4328C191.786 46.2421 190.25 45.271 189.846 44.9472C189.199 44.4617 189.765 43.0858 189.361 42.4384C188.876 41.791 187.259 42.2765 187.42 41.2244C188.876 41.5482 196.393 43.5714 194.211 39.6868C193.403 38.3109 191.786 38.0681 190.25 37.5016C188.31 36.7733 187.825 36.4495 185.804 36.9351C185.723 36.5305 184.995 35.6402 185.561 35.6402C185.885 35.6402 185.965 35.0737 185.804 34.8309C185.723 34.6691 184.753 34.5881 184.591 34.5072C183.379 34.1835 180.63 33.9407 180.711 35.6402C179.983 34.9928 180.064 34.8309 178.933 34.9119C177.882 34.9928 178.609 35.883 177.963 36.3686C177.882 36.1258 177.639 35.883 177.558 35.6402C176.507 36.4495 175.457 37.3398 174.406 38.1491C174.567 38.3109 174.729 38.5537 174.891 38.7156C173.112 39.0393 172.789 42.3575 171.819 43.6524C171.334 44.2998 170.283 44.5426 171.576 45.19C172.142 45.5138 170.606 46.1612 170.121 45.1091C169.636 45.6756 169.232 46.2421 168.666 46.6468C168.181 47.0514 168.666 47.6989 167.939 47.9417C166.241 48.3463 165.999 49.7221 166.241 51.4217C166.403 52.5547 166.403 55.0636 167.696 55.6301C169.07 56.1966 170.768 54.2543 171.253 53.2831C171.334 53.8496 171.415 54.4161 171.495 54.9826C172.304 55.2254 173.678 59.4338 173.759 59.4338C175.133 59.4338 174.567 58.4626 175.699 58.1389C177.154 57.6533 176.912 57.5724 176.831 56.0347C176.831 54.578 177.154 54.9017 177.882 53.8496C178.528 52.8784 179.013 52.231 177.963 51.5026C177.154 50.8552 176.507 50.5315 176.831 49.3175C176.912 48.9128 177.316 48.5082 177.477 48.1845C177.801 47.618 178.043 48.1035 178.448 47.6989C178.852 47.2942 179.822 46.1612 179.822 45.5947C179.822 44.2189 180.388 44.2189 181.439 43.4096C181.6 43.3286 182.166 43.4905 182.328 43.6524C182.813 44.1379 182.489 44.2998 182.328 44.7854C182.004 45.5947 180.792 46.4849 180.145 47.1324C178.852 48.5891 179.741 50.6933 181.115 51.6645C182.247 52.5547 182.247 52.3119 183.54 51.7454C184.51 51.2598 185.238 51.1789 186.37 51.017C186.046 51.6645 186.37 52.0691 187.016 52.3119C186.45 52.7975 185.723 52.6356 184.995 52.6356C183.783 52.5547 183.54 52.6356 182.57 53.2831C182.004 53.6068 182.004 54.2543 182.489 54.6589C183.217 55.3873 183.136 55.711 183.136 56.6822C182.974 56.6822 182.651 56.7631 182.489 56.6822C182.894 55.2254 180.145 55.3064 179.822 56.844C179.741 57.3296 181.034 60.8096 179.013 60.2431C179.175 60.0003 179.256 59.6766 179.418 59.4338C178.528 59.5147 177.801 59.7575 176.992 60.0003C176.427 60.1622 175.618 61.2952 175.214 61.2952C174.729 61.2952 174.082 60.324 173.436 60.324C172.546 60.324 172.061 61.2952 171.334 60.1622C170.849 59.3529 171.334 58.5436 171.819 57.9771C172.142 57.5724 171.738 55.711 171.334 55.5491C170.525 55.2254 169.879 56.5203 169.394 57.0059C168.828 57.6533 169.07 58.5436 169.394 59.2719C169.475 59.5957 170.283 61.2143 169.636 61.2952C168.747 61.4571 168.585 61.4571 167.858 61.8617C167.049 62.2664 166.645 62.4282 166.241 63.0757C165.918 63.6422 165.513 64.3706 165.19 64.7752C164.867 65.1799 162.522 67.6078 161.957 67.2841C161.148 66.7176 160.825 67.0413 160.502 67.9315C160.34 68.3362 158.481 68.1743 157.996 68.1743C157.591 70.7641 163.169 70.3594 161.148 73.9204C160.259 75.4581 159.451 74.9725 157.753 74.9725C157.106 74.9725 154.843 74.406 154.358 74.6487C153.307 75.2153 154.035 76.7529 153.954 77.5622C153.873 78.3716 153.873 79.1809 153.792 79.9902C153.711 80.6376 153.064 81.1232 153.145 81.5279C153.307 82.1753 153.63 82.3371 153.469 82.9846C153.307 83.5511 153.55 83.7939 154.196 83.713C155.651 83.5511 156.217 84.1176 157.672 84.2795C160.582 84.4413 162.765 82.9037 162.765 79.9902C162.765 79.0999 164.867 78.3716 165.271 77.5622C165.594 76.9148 165.837 74.406 167.373 75.7818C168.666 76.9957 169.394 74.8106 170.202 74.8106C171.9 74.7297 172.546 76.2674 173.678 77.5622C174.406 78.4525 175.537 78.2097 176.265 78.9381C177.397 79.9902 177.316 80.8804 177.477 82.499C178.528 82.0944 179.337 80.8804 178.933 79.7474C180.064 79.9902 180.145 78.8571 179.256 78.4525C178.124 77.886 177.316 77.5623 176.507 76.672C175.78 75.9436 172.304 72.6255 174.971 72.5446C174.971 72.7873 174.648 73.6776 174.81 73.8394C175.052 74.2441 175.861 74.1632 176.022 73.7585C176.427 74.2441 176.265 75.1343 176.912 75.4581C177.639 75.7818 179.175 76.9148 179.741 76.3483C179.822 77.4004 180.792 76.5911 180.792 77.886C180.792 78.5334 180.873 79.8283 181.681 79.8283C181.358 80.8804 183.136 81.2851 183.944 81.6088C181.519 81.9325 183.136 84.1986 184.995 84.1176C184.995 83.5511 185.723 81.6088 185.642 81.5279C185.157 80.8804 183.459 79.6664 184.268 79.019C184.106 79.0999 185.157 79.5046 185.48 79.3427C186.046 79.019 185.4 78.6143 186.289 78.6143C187.501 78.6143 188.471 78.6953 189.522 77.9669C189.684 79.019 188.876 78.7762 188.148 78.7762C187.259 78.7762 187.178 78.9381 186.531 79.6664C185.965 80.3139 186.935 80.5567 186.935 80.9613C186.935 81.6088 186.45 81.8516 187.016 82.5799C187.825 81.8516 187.906 82.499 188.067 82.9846C188.148 83.3083 187.501 83.2274 187.825 83.632C188.148 84.0367 188.229 84.1176 188.633 84.1985C189.441 84.3604 192.271 84.846 191.947 83.2274C193.322 83.713 193.564 84.2795 195.1 84.0367C195.504 83.9558 196.151 83.3083 196.393 83.3892C196.636 83.4702 196.232 84.5223 196.232 84.846C196.07 85.8981 196.07 90.2683 193.807 89.0544C192.109 88.1641 192.432 89.6209 191.058 89.54C189.846 89.54 188.633 89.0544 187.42 88.9735C186.935 88.8925 186.37 88.8116 185.804 88.7307C185.319 88.6497 185.238 87.5976 184.753 87.5976C183.459 87.5976 181.6 87.3548 181.358 89.0544C181.277 89.54 182.247 89.7018 182.085 90.2683C182.004 90.673 180.873 90.7539 180.549 90.5921C179.822 90.2683 179.094 89.9446 178.286 89.54C177.801 89.2972 177.801 88.4069 177.316 88.2451C176.184 87.9214 174.891 87.5976 173.759 87.193C171.981 86.5455 174.244 85.4125 173.031 84.6032C172.385 84.1985 174.082 82.5799 172.304 82.2562C171.819 82.1753 170.768 82.8227 170.364 83.0655C169.717 83.3083 169.151 82.9037 168.504 82.7418C167.615 82.4181 165.675 83.2274 164.786 83.3892C163.169 83.713 162.28 83.7939 160.987 84.7651C160.178 85.3316 158.885 85.0888 157.915 85.0888C156.379 85.0888 156.298 84.846 155.651 86.2218C155.166 87.3548 154.196 87.0311 153.388 87.8404C152.66 88.6497 152.337 90.5921 152.014 91.5632C151.448 93.1009 149.103 93.3437 148.214 94.8814C147.406 96.1763 146.597 97.4712 145.87 98.766C145.466 99.4944 144.9 100.789 144.253 101.194C144.496 101.68 145.304 102.246 145.304 103.055C145.223 104.35 145.466 105.969 145.142 107.264C145.062 107.668 144.657 108.073 144.577 108.559C144.496 108.882 144.819 108.963 145.062 109.125C145.466 109.368 145.062 109.449 145.223 109.773C145.385 110.015 145.789 111.391 145.951 111.796C146.759 113.495 147.81 114.79 149.103 116.085C149.912 116.894 150.559 117.38 151.609 118.108C152.418 118.675 154.035 119.322 154.439 120.213C155.57 119.403 156.864 118.27 158.481 118.594C160.502 118.999 160.987 119.161 162.765 118.108C164.139 117.38 166.079 116.571 167.211 117.866C167.858 118.594 168.343 119.403 169.394 119.403C170.283 119.403 171.01 118.27 171.738 119.484C171.091 119.484 169.798 120.375 170.687 120.86C171.738 121.427 172.304 120.617 171.819 119.565C174.001 121.103 170.04 124.34 171.172 125.554C172.627 127.173 174.163 128.71 174.971 130.491C175.618 131.786 177.073 135.832 175.78 137.127C174.486 138.503 174.406 138.827 174.244 140.688C174.163 141.74 173.921 143.116 174.244 144.168C174.648 145.301 175.78 146.434 176.427 147.405C176.75 147.891 175.942 149.752 176.265 150.562C176.831 151.937 177.397 153.232 177.882 154.608C178.286 155.579 178.448 157.036 179.175 157.764C179.337 157.926 180.468 158.736 180.307 158.978C180.145 159.221 179.175 159.95 179.337 160.273C179.822 161.325 180.468 163.106 182.085 162.863C182.57 162.782 182.974 161.811 183.459 161.649C183.944 161.487 184.915 161.649 185.4 161.649C187.016 161.649 187.744 161.244 189.28 161.002C190.088 160.84 191.22 159.221 191.705 158.655C192.917 157.441 194.13 156.227 195.343 155.094C195.908 154.527 195.1 152.909 195.423 152.261C195.666 151.856 196.798 151.452 197.202 151.209C198.01 150.723 197.929 150.4 198.091 149.51C198.334 148.215 198.253 146.92 198.253 145.544C198.253 144.654 200.678 143.278 201.325 142.711C201.648 142.469 202.214 142.549 202.456 142.307C203.022 141.821 203.507 141.255 204.073 140.769C205.205 139.717 204.639 138.584 204.558 137.046C204.396 134.699 202.941 133.081 202.86 130.653C202.78 128.71 204.477 126.687 205.609 125.554C207.792 123.207 209.974 120.86 212.238 118.513C213.693 116.894 215.067 114.79 215.229 112.524C215.39 109.692 213.289 111.067 211.429 111.715C209.408 112.362 206.822 113.334 206.902 110.258C207.63 111.31 212.804 108.397 213.854 107.992C214.501 107.749 216.037 107.426 216.522 106.94C217.007 106.374 216.118 105.888 217.088 105.888C217.492 105.888 218.381 106.05 218.624 105.726C219.756 104.027 222.585 101.275 222.585 99.2516C222.585 98.1186 220.726 97.7139 219.836 97.1474C218.705 96.5 218.866 95.7716 219.109 94.6386C218.058 94.9623 217.573 94.9623 217.007 95.8526C216.118 97.1474 215.956 96.9856 214.339 97.0665C214.42 96.0953 214.824 95.286 214.016 94.7195C213.046 93.9911 212.804 96.0144 212.804 96.5C211.995 95.286 211.106 94.153 210.298 92.939C209.813 92.2916 209.732 90.5921 210.944 90.7539C212.723 90.9158 211.672 92.2916 212.723 92.939C214.097 93.7484 215.39 94.8814 217.007 94.8814C218.543 94.8814 218.705 93.1009 219.594 95.286C219.836 95.8526 223.232 96.0144 223.878 96.0144C224.929 96.0144 226.465 95.6098 227.678 95.6098C229.133 95.6098 230.103 96.9856 231.235 97.9567C231.639 97.7139 232.205 97.7949 232.77 97.714C232.609 98.1995 232.124 98.3614 231.558 98.6042C232.124 99.5754 232.205 100.223 233.255 100.547C234.468 100.951 235.034 100.223 235.438 99.0898C235.761 98.1995 236.246 99.98 235.842 100.627C235.438 101.275 235.438 102.084 235.761 102.732C237.782 106.859 239.722 110.987 241.743 115.114C243.926 114.062 243.845 113.738 244.492 111.391C244.896 109.854 244.734 108.235 244.734 106.616C244.734 105.402 246.513 104.188 247.24 103.379C248.13 102.489 250.393 100.789 250.393 99.4944C250.393 97.3093 251.929 99.1707 253.303 98.847C253.95 98.6851 254.273 97.4712 254.435 98.9279C254.516 99.6563 254.435 99.4944 254.839 99.8991C255.971 100.951 257.588 102.003 257.83 103.703C258.153 105.888 259.366 105.483 260.336 103.946C260.821 104.836 261.064 105.321 261.144 106.293C261.144 106.616 261.064 107.426 261.225 107.668C261.306 107.83 261.872 107.668 262.034 107.992C262.195 108.316 262.6 108.721 262.357 109.044C262.195 109.287 261.629 109.773 261.791 110.015C262.276 110.825 263.004 111.472 262.761 112.362C262.519 113.495 262.115 113.334 262.519 114.548C262.761 115.114 263.57 115.357 263.974 115.842C265.025 117.218 264.216 119.322 265.429 120.536C263.731 119.08 262.034 117.623 260.336 116.166C260.094 118.27 261.468 119.727 262.519 121.588C262.842 122.155 263.327 121.75 263.65 122.236C264.297 123.288 264.863 124.259 265.51 125.311C266.237 126.525 266.965 127.658 267.611 128.872C267.854 129.277 268.258 130.41 268.662 130.653C268.905 130.815 271.007 130.976 271.088 130.815C271.573 128.872 271.977 127.82 272.3 126.687ZM166.726 62.3473C166.969 62.5901 167.13 62.5901 167.13 62.9948C167.049 62.8329 166.888 62.5901 166.726 62.3473ZM153.226 115.438C153.145 115.357 153.226 115.438 153.226 115.438V115.438ZM174.648 126.282C174.648 126.201 174.648 126.201 174.648 126.282V126.282ZM186.774 102.408C186.693 102.408 186.774 102.408 186.774 102.408V102.408ZM186.935 135.589C187.016 135.347 187.016 135.347 186.935 135.589V135.589ZM194.211 70.2785C195.828 70.2785 196.07 70.1166 197.364 69.0645C197.687 69.712 196.232 70.5213 196.07 71.3306C196.232 70.1166 194.211 71.3306 194.211 70.2785ZM195.504 75.8627C193.645 75.7818 193.241 76.1055 191.705 77.1576C190.654 77.886 189.28 76.7529 189.118 75.7818C188.714 73.8394 189.926 74.2441 190.573 72.6255C190.654 72.4636 190.25 72.059 190.331 71.8162C190.492 71.4925 190.977 71.0878 191.139 70.845C191.705 70.1976 192.109 70.0357 192.837 70.6832C191.947 71.3306 192.432 72.7064 193.322 73.192C194.696 74.0013 194.777 71.8971 196.07 71.978C196.151 72.8683 196.879 73.5157 197.687 73.7585C199.304 74.325 199.708 74.4869 200.759 75.7818C201.648 76.9148 199.223 76.8339 198.657 76.8339C197.121 76.9148 196.636 76.5102 195.504 75.8627ZM206.094 108.721C205.205 108.073 204.235 107.345 203.346 106.697C202.456 106.05 202.699 104.917 202.214 104.027C201.325 102.246 199.708 100.304 198.576 98.5233C198.495 98.6042 198.414 98.6851 198.334 98.766C198.253 96.6618 197.768 96.1763 196.393 94.4767C195.504 93.4246 194.292 92.2916 194.453 90.7539C195.019 91.0776 195.1 92.2916 195.343 92.939C195.585 93.7484 196.555 93.02 197.04 93.5865C198.576 95.4479 200.112 97.2284 201.567 99.0898C201.89 99.4944 201.648 100.87 202.052 101.518C202.456 102.165 203.507 102.246 203.992 103.055C205.124 104.998 206.094 106.374 206.094 108.721ZM213.612 75.539C213.693 76.5911 213.208 76.5102 212.48 76.5102C211.591 76.5102 211.995 77.3195 211.995 78.0478C211.995 78.6143 213.369 78.6953 213.531 79.1809C213.612 79.5046 213.046 80.6376 213.046 81.1232C213.046 82.4181 210.217 80.6376 209.813 80.3948C208.923 79.7474 208.842 79.9092 209.085 78.8571C209.328 77.886 209.408 77.805 210.459 78.1288C210.702 76.8339 209.004 75.9436 208.196 75.1343C207.63 74.6487 206.983 74.2441 206.983 73.5157C206.983 73.1111 207.145 72.5446 206.983 72.1399C206.902 71.8162 206.013 72.2208 206.094 71.6543C206.256 70.1976 207.145 69.2264 208.438 68.6599C209.166 68.3362 209.651 68.3362 210.459 68.2552C210.783 68.2552 210.702 69.9548 210.702 70.2785C209.408 69.8738 208.842 71.5734 209.408 72.4636C210.136 73.5967 211.672 74.0013 211.591 75.4581C212.238 75.6199 213.289 74.1632 213.612 75.539ZM249.261 60.7287C249.019 60.6478 248.695 60.5668 248.453 60.4859C248.776 60.5668 249.261 60.7287 249.261 60.7287Z" fill="#BDD5E7"/>
<path d="M288.387 122.802C290.731 123.531 291.054 123.45 292.833 121.669C291.62 120.617 291.701 120.941 290.488 121.912C289.761 122.479 288.872 121.427 288.306 121.265C286.123 120.86 285.8 124.016 285.396 125.473C285.315 125.959 284.668 127.254 284.992 127.577C285.881 128.791 285.072 128.791 285.072 130.167C285.072 130.734 286.851 130.734 286.851 130.248C287.012 129.115 287.093 127.982 287.255 126.849C287.417 127.577 287.497 131.057 288.953 130.41C290.488 129.762 289.195 126.525 288.71 125.716C288.468 125.311 289.842 124.583 290.165 124.34C290.408 124.178 289.842 123.612 289.68 123.45C289.518 123.126 289.114 123.612 288.872 123.774C287.336 124.907 286.527 123.693 288.387 122.802Z" fill="#BDD5E7"/>
<path d="M295.015 124.016C295.581 122.802 295.986 122.802 295.258 121.75C295.096 121.508 294.692 121.669 294.611 121.427C294.45 120.941 294.288 120.455 294.126 119.97C293.884 120.536 292.995 121.831 293.156 122.398C293.237 123.126 294.288 124.178 295.015 124.016Z" fill="#BDD5E7"/>
<path d="M295.743 127.415C296.713 126.687 296.956 128.629 297.926 127.254C296.956 126.04 296.632 125.797 295.096 126.121C294.773 126.202 293.884 126.606 294.126 127.011C294.692 128.063 294.692 127.82 295.743 127.415Z" fill="#BDD5E7"/>
<path d="M275.776 133.323C276.423 134.537 277.635 133.647 278.444 134.295C279.656 135.266 280.222 134.699 281.192 133.728C279.98 133.162 278.929 132.109 277.716 131.786C276.099 131.381 274.483 131.057 272.866 130.653C271.896 130.41 271.815 130.41 271.007 130.976C270.522 131.3 270.522 132.109 271.168 132.271C272.704 132.757 274.24 133.081 275.776 133.323Z" fill="#BDD5E7"/>
<path d="M281.92 135.185C282.486 134.942 282.971 134.78 283.536 134.537C283.941 134.375 284.426 134.942 284.749 134.78C285.477 134.456 285.153 133.971 284.911 133.485C284.668 133.081 283.86 133.323 283.375 133.323C283.456 133.647 283.456 134.052 283.617 134.375C282.405 133.647 282.405 133.566 281.192 134.295C281.354 134.618 281.596 135.023 281.92 135.185Z" fill="#BDD5E7"/>
<path d="M286.689 136.642C285.719 135.185 285.8 135.185 284.021 135.428C285.072 136.399 285.315 136.642 286.689 136.642Z" fill="#BDD5E7"/>
<path d="M289.195 134.133C287.821 133.728 285.8 133.242 285.315 134.861C287.174 135.185 287.578 135.104 289.195 134.133Z" fill="#BDD5E7"/>
<path d="M290.408 136.561C291.459 135.589 292.024 135.589 293.48 135.428C292.833 134.295 291.701 133.809 290.569 134.699C290.327 134.861 289.033 135.67 289.033 135.994C288.953 136.884 289.842 136.803 290.408 136.561Z" fill="#BDD5E7"/>
<path d="M320.641 130.572C320.722 128.791 319.509 128.225 318.216 127.092C316.923 128.063 318.539 128.791 319.348 129.52C318.297 129.115 318.701 130.329 318.054 130.734C317.165 131.3 315.548 130.653 315.71 131.867C315.791 132.838 317.327 132.595 318.216 132.352C319.509 131.948 319.752 131.381 319.671 130.248C319.752 130.734 320.156 130.734 320.641 130.572Z" fill="#BDD5E7"/>
<path d="M322.743 133.647C324.117 133 322.5 130.329 321.126 131.057C321.611 132.271 321.854 132.757 322.743 133.647Z" fill="#BDD5E7"/>
<path d="M323.551 134.133C323.955 134.78 325.33 134.78 325.006 134.214C324.602 133.323 324.521 133 323.389 132.919C323.47 133.242 323.47 133.647 323.551 134.133Z" fill="#BDD5E7"/>
<path d="M323.632 135.67C324.036 136.48 324.198 136.965 325.168 137.046C325.33 136.156 324.845 135.589 324.36 134.861C324.117 135.104 323.794 135.347 323.632 135.67Z" fill="#BDD5E7"/>
<path d="M325.572 135.751C325.896 136.156 326.219 136.561 326.542 136.884C326.623 136.642 326.946 136.399 327.027 136.075C327.189 137.046 327.431 137.532 327.997 138.341C326.785 138.341 327.836 140.202 329.048 139.96C328.887 139.231 328.967 138.341 328.078 138.341C328.806 136.722 328.725 136.884 327.431 135.751C326.461 134.942 326.461 134.618 325.087 134.295C325.168 134.861 325.33 135.347 325.572 135.751Z" fill="#BDD5E7"/>
<path d="M325.491 140.445C325.653 140.688 326.865 142.549 327.27 141.174C327.593 139.636 325.976 140.202 325.491 140.445Z" fill="#BDD5E7"/>
<path d="M333.009 144.492C332.524 145.139 331.716 145.949 332.686 146.596C333.171 146.92 333.171 148.538 334.383 147.405C334.141 146.758 333.737 146.272 333.09 146.596C333.979 146.029 333.332 145.301 333.009 144.492Z" fill="#BDD5E7"/>
<path d="M333.413 151.695C333.818 152.585 334.383 152.18 335.192 151.937C334.788 151.614 334.383 151.29 333.898 150.966C333.737 151.128 333.494 151.371 333.413 151.695Z" fill="#BDD5E7"/>
<path d="M343.356 149.752C342.225 151.209 342.144 151.614 343.437 152.909C343.356 151.937 343.356 150.885 343.356 149.752Z" fill="#BDD5E7"/>
<path d="M282.728 112.929C284.022 113.01 284.587 111.877 285.315 111.067C286.528 109.692 285.962 109.692 284.992 108.154C284.587 108.801 284.507 109.611 284.102 110.177C283.537 110.906 282.162 111.877 282.728 112.929Z" fill="#BDD5E7"/>
<path d="M289.276 108.073C288.71 107.83 288.144 107.668 287.578 107.426C287.578 108.073 287.578 108.64 287.578 109.287C287.578 109.934 288.144 110.015 288.306 110.582C288.548 111.796 289.68 112.929 290.004 110.987C290.004 111.067 290.084 111.067 290.084 111.148C290.812 110.339 291.216 110.015 290.893 108.882C291.135 109.206 291.539 109.206 292.024 109.125C291.863 107.264 291.782 106.535 289.761 106.94C290.084 107.426 290.489 107.83 290.731 108.316C290.327 108.235 289.923 108.316 289.599 108.235C289.599 109.044 289.357 109.934 289.842 110.582C289.114 110.096 289.357 108.882 289.276 108.073Z" fill="#BDD5E7"/>
<path d="M292.752 114.709C293.641 113.819 292.914 113.091 292.914 111.958C292.833 110.744 292.186 110.582 291.135 109.854C291.297 110.825 291.459 112.039 290.084 112.201C289.033 112.281 287.578 113.253 288.063 114.547C288.71 114.386 289.357 114.224 289.842 113.819C290.246 114.952 290.489 115.195 291.459 115.842C292.186 116.328 293.156 114.952 291.944 114.224C292.267 114.305 292.51 114.548 292.752 114.709Z" fill="#BDD5E7"/>
<path d="M287.902 101.275C287.417 100.142 287.498 99.8181 286.285 99.5754C285.557 99.4135 284.587 99.8991 284.587 100.708C284.507 102.408 284.83 104.593 286.366 105.726C286.204 105.726 286.123 105.726 285.962 105.645C286.123 106.131 286.285 107.668 287.093 107.587C288.306 107.507 287.174 106.05 286.932 105.807C288.144 104.755 288.063 106.535 288.548 106.616C289.761 106.697 290.408 106.131 289.438 105.079C288.791 104.269 287.74 104.674 287.255 103.865C286.932 103.217 287.983 102.246 287.902 101.275Z" fill="#BDD5E7"/>
<path d="M274.321 98.4423C272.785 98.6042 271.815 100.87 273.674 101.032C274.24 101.113 275.129 100.627 275.21 100.061C275.453 98.7661 275.534 98.847 274.321 98.4423Z" fill="#BDD5E7"/>
<path d="M282.809 91.5632C282.728 93.5056 282.809 93.7484 284.102 95.286C285.315 94.7195 284.668 91.4014 284.587 90.2683C284.022 90.673 283.456 91.0777 282.809 91.5632Z" fill="#BDD5E7"/>
<path d="M289.599 80.7185C290.65 80.6376 290.084 82.0134 290.569 82.6609C291.54 83.713 292.105 81.9325 292.348 81.0423C292.671 79.6664 288.549 77.2385 289.599 80.7185Z" fill="#BDD5E7"/>
<path d="M293.964 77.6432C292.429 77.0767 291.216 79.5855 292.429 80.5567C293.803 79.4236 294.126 79.4237 293.964 77.6432Z" fill="#BDD5E7"/>
<path d="M290.327 78.3716C291.863 78.7762 292.024 77.4004 293.318 77.1576C294.369 76.9957 295.743 79.4236 296.309 77.3195C296.551 76.5101 296.875 76.7529 297.764 76.7529C298.168 76.7529 298.734 75.7008 299.057 75.4581C299.947 74.406 299.057 73.1111 298.734 71.8162C298.653 71.4925 298.249 70.5213 298.572 70.2785C299.219 69.7929 299.381 69.8739 298.896 69.1455C298.249 68.1743 297.441 65.8273 296.147 67.2031C294.935 68.498 295.824 68.6599 295.905 69.9548C295.986 70.5213 295.824 73.9204 294.45 72.3018C293.965 73.2729 293.399 74.4869 294.045 75.4581C292.671 73.8394 288.953 77.3195 290.327 78.3716Z" fill="#BDD5E7"/>
<path d="M297.926 60.8096C297.279 62.2664 295.42 59.9194 294.935 59.3529C293.237 60.324 294.854 61.1334 294.854 62.3473C294.854 63.5613 293.156 64.0468 294.126 65.3417C294.773 66.232 296.066 68.0124 296.794 65.9892C297.036 65.3417 295.581 65.3417 296.066 64.6943C296.551 64.0469 297.198 65.018 297.602 65.4227C297.683 63.7231 298.168 62.752 300.027 62.4282C299.785 61.9427 299.462 61.4571 299.219 60.9715C300.27 60.7287 300.755 59.6766 301.402 58.8673C300.836 58.5436 300.351 57.9771 299.947 58.5436C299.462 59.2719 298.734 59.8385 299.138 60.8096C299.057 60.6478 298.896 60.405 298.815 60.2431C298.492 60.4859 298.087 60.6478 297.926 60.8096Z" fill="#BDD5E7"/>
<path d="M302.452 56.7631C302.533 56.5203 302.452 56.1966 302.452 55.8729C301.078 56.4394 300.674 57.0868 300.917 58.6245C301.806 58.2199 302.048 57.6533 302.452 56.7631Z" fill="#BDD5E7"/>
<path d="M304.635 48.2654C303.099 47.8607 302.857 48.4273 302.857 49.9649C303.908 50.2077 304.15 48.9938 304.635 48.2654Z" fill="#BDD5E7"/>
<path d="M302.452 52.1501C303.827 53.2022 303.746 50.9361 303.746 50.1268C302.048 50.2077 302.452 50.5315 302.452 52.1501Z" fill="#BDD5E7"/>
<path d="M293.884 53.2831C294.45 51.6645 292.509 50.0459 291.701 48.8319C290.65 47.2942 289.68 45.5138 288.225 44.2998C288.225 45.19 287.983 46.404 288.144 47.2133C288.468 48.1845 289.518 49.3175 290.084 50.2077C291.135 51.9073 291.135 53.7687 292.024 55.4682C292.59 56.4394 294.611 61.2952 295.662 58.058C296.066 57.0059 291.539 53.9305 293.884 53.2831Z" fill="#BDD5E7"/>
<path d="M306.979 37.6635C307.222 37.9872 308.435 39.7677 308.92 39.2821C309.89 38.0682 307.869 37.5826 306.979 37.6635Z" fill="#BDD5E7"/>
<path d="M310.779 39.5249C311.506 38.3109 309.971 38.23 309.081 37.9063C309.324 39.2012 309.485 39.1202 310.779 39.5249Z" fill="#BDD5E7"/>
<path d="M315.71 41.6291C316.599 41.71 317.003 41.4672 317.084 40.577C316.357 40.4961 315.629 40.3342 314.902 40.2533C315.144 40.7389 315.387 41.1435 315.71 41.6291Z" fill="#BDD5E7"/>
<path d="M324.359 42.5193C324.44 42.1147 324.359 41.71 324.359 41.3863C323.794 41.4672 323.228 41.5482 322.581 41.6291C322.904 42.1956 323.228 42.7621 323.551 43.4096C323.874 43.0858 324.198 42.8431 324.359 42.5193Z" fill="#BDD5E7"/>
<path d="M328.886 39.363C329.21 38.5537 328.563 37.4207 327.916 38.3109C327.35 39.0393 326.785 39.444 327.512 40.2533C327.916 40.0105 328.401 39.6868 328.886 39.363Z" fill="#BDD5E7"/>
<path d="M332.767 34.1026C332.282 34.6691 331.797 35.2356 331.392 35.8021C331.877 35.964 332.362 36.2068 332.847 36.3686C332.847 35.5593 332.767 34.8309 332.767 34.1026Z" fill="#BDD5E7"/>
<path d="M334.141 34.6691C333.979 33.9407 333.898 33.2123 333.737 32.4839C333.09 33.536 332.847 33.9407 332.928 35.1547C333.333 35.0737 333.737 34.8309 334.141 34.6691Z" fill="#BDD5E7"/>
<path d="M318.782 15.8123C319.348 15.9741 319.914 16.2169 320.479 16.3788C320.399 14.8411 320.641 13.3034 318.458 13.8699C316.761 14.2746 317.084 16.9453 318.782 15.8123Z" fill="#BDD5E7"/>
<path d="M24.8559 21.963C24.9367 21.3965 25.0176 20.9109 24.5325 20.5872C24.1284 20.3444 22.9158 19.2113 22.5924 19.5351C22.1882 19.8588 23.1583 21.1537 23.4008 21.5583C23.7242 22.4486 23.8858 22.2058 24.8559 21.963Z" fill="#BDD5E7"/>
<path d="M25.745 3.34895C26.4726 4.40105 29.2211 2.78244 27.1193 1.56848C25.9067 0.921036 25.9876 0.921038 25.0175 1.8922C24.1283 2.70151 24.5325 2.78244 25.0175 3.91547C25.1792 3.75361 25.5025 3.59174 25.745 3.34895Z" fill="#BDD5E7"/>
<path d="M15.1553 41.791C16.9337 41.3863 16.772 40.8198 15.2361 39.9296C15.2361 40.4961 15.2361 41.1435 15.1553 41.791Z" fill="#BDD5E7"/>
<path d="M12.407 41.4672C12.5687 41.9528 12.6495 42.4384 12.8112 42.924C13.5387 42.2765 14.2663 41.9528 15.1555 41.5482C14.1046 40.1723 13.8621 40.7389 12.407 41.4672Z" fill="#BDD5E7"/>
<path d="M6.18237 42.1147C6.26321 42.6003 6.34405 43.0858 6.34405 43.5714C6.99075 42.924 7.55661 42.3575 8.20332 41.71C7.47578 41.5482 6.26321 40.8198 6.18237 42.1147Z" fill="#BDD5E7"/>
<path d="M5.85899 41.71C5.53563 41.5482 4.40391 40.9007 4.24223 41.2244C3.67637 42.2765 3.91888 42.2765 4.72726 43.0858C5.13144 42.6003 5.4548 42.1956 5.85899 41.71Z" fill="#BDD5E7"/>
<path d="M2.14049 40.8198C0.685413 38.7965 -0.122965 41.3863 1.49379 41.9528C1.7363 41.5482 1.97882 41.2244 2.14049 40.8198Z" fill="#BDD5E7"/>
<path d="M225.333 183.338C225.333 182.529 225.01 181.963 224.04 182.124C223.959 183.581 223.555 184.067 225.01 184.391C226.869 184.795 226.627 184.552 227.273 182.772C226.708 183.015 226.061 183.177 225.333 183.338Z" fill="#BDD5E7"/>
<path d="M219.998 146.353C220.079 146.758 220.16 147.243 220.16 147.648C220.726 147.163 221.372 146.677 221.938 146.191C221.534 145.868 221.13 145.625 220.726 145.301C220.483 145.625 220.241 146.029 219.998 146.353Z" fill="#BDD5E7"/>
<path d="M217.654 146.758C217.088 148.619 218.624 147.972 219.675 147.486C219.109 146.758 218.543 146.515 217.654 146.758Z" fill="#BDD5E7"/>
<path d="M213.854 135.751C212.642 135.67 211.753 138.827 211.187 139.798C210.54 140.931 207.468 139.636 207.549 141.983C207.63 143.035 207.63 144.087 207.711 145.139C207.711 145.787 206.256 146.353 206.256 147.001C206.336 147.972 206.336 148.943 206.417 149.833C206.417 150.157 207.63 151.533 207.872 151.452C208.762 151.371 209.327 151.371 210.055 150.804C211.187 149.914 211.025 149.914 210.702 148.457C210.459 147.324 212.965 144.33 213.531 143.359C214.016 142.549 214.097 142.63 213.45 141.902C212.723 141.093 214.663 140.688 214.663 140.769C215.309 139.312 214.339 137.208 213.854 135.751Z" fill="#BDD5E7"/>
<path d="M207.549 135.347C207.63 136.561 208.438 136.075 208.842 136.965C209.489 138.341 210.055 136.884 210.217 136.156C209.813 136.237 209.408 136.318 209.004 136.318C209.166 135.994 209.247 135.589 209.408 135.185C208.842 135.266 208.196 135.266 207.549 135.347Z" fill="#BDD5E7"/>
<path d="M216.765 130.491C216.199 131.057 216.36 131.381 216.845 131.786C217.573 132.352 217.573 131.867 218.139 131.219C217.654 130.976 217.25 130.734 216.765 130.491Z" fill="#BDD5E7"/>
<path d="M219.028 127.982C219.594 128.872 219.675 129.277 220.887 129.115C220.645 128.468 220.402 127.82 220.16 127.173C219.756 127.415 219.351 127.658 219.028 127.982Z" fill="#BDD5E7"/>
<path d="M219.998 130.653C220.241 130.815 220.726 130.815 220.968 130.815C221.049 129.843 221.372 129.277 220.402 129.115C219.594 129.115 219.432 130.167 219.998 130.653Z" fill="#BDD5E7"/>
<path d="M237.702 117.299C237.217 117.137 236.732 116.894 236.327 116.733C236.489 117.866 236.327 118.432 237.54 118.675C237.621 118.189 237.621 117.785 237.702 117.299Z" fill="#BDD5E7"/>
<path d="M237.055 120.455C237.217 120.617 237.621 120.779 237.863 120.86C238.591 119.484 238.348 119.565 237.136 118.594C237.136 119.241 237.055 119.889 237.055 120.455Z" fill="#BDD5E7"/>
<path d="M236.731 121.831C237.459 122.802 237.782 122.398 238.591 121.831C237.782 121.346 237.378 120.86 236.731 121.831Z" fill="#BDD5E7"/>
<path d="M132.289 79.8283C132.774 80.0711 133.259 80.3948 133.825 80.6376C133.987 79.0999 133.421 78.6953 132.289 79.8283Z" fill="#BDD5E7"/>
<path d="M137.059 79.7474C135.927 78.7762 136.008 78.6143 134.795 79.4237C135.119 79.8283 135.604 80.152 136.089 79.9902C135.765 80.7995 135.361 81.4469 136.25 82.0944C137.544 81.366 136.816 80.9613 136.169 79.9902C136.493 79.8283 136.816 79.7474 137.059 79.7474Z" fill="#BDD5E7"/>
<path d="M138.11 82.5799C138.595 83.632 139.403 82.6609 140.05 82.2562C139.241 81.9325 138.271 81.2041 138.11 82.5799Z" fill="#BDD5E7"/>
<path d="M145.466 86.8693C145.951 87.9214 146.355 87.5976 147.163 87.1121C146.84 86.7074 146.517 86.3027 146.193 85.8981C145.951 86.2218 145.627 86.5455 145.466 86.8693Z" fill="#BDD5E7"/>
<path d="M148.618 93.7484C148.942 93.1818 149.184 92.6153 149.508 91.9679C148.942 92.2916 148.376 92.6153 147.81 92.9391C148.053 93.2628 148.295 93.5865 148.618 93.7484Z" fill="#BDD5E7"/>
<path d="M145.466 92.7772C145.951 93.5865 146.193 93.9911 147.163 93.7483C146.759 92.2916 146.921 92.3725 145.466 92.7772C145.546 92.6153 145.627 92.3725 145.708 92.2107C144.9 91.7251 144.415 91.8869 143.93 92.6962C144.334 93.02 144.738 93.3437 145.061 93.6674C145.142 93.4246 145.385 93.1009 145.466 92.7772Z" fill="#BDD5E7"/>
<path d="M139.403 106.697C138.756 105.483 138.433 105.888 137.463 106.454C138.11 107.264 138.675 107.345 139.403 106.697Z" fill="#BDD5E7"/>
<path d="M139.564 107.264C139.969 108.559 140.373 108.073 141.424 107.668C140.696 106.859 140.373 106.212 139.564 107.264Z" fill="#BDD5E7"/>
<path d="M138.433 108.316C139.08 109.125 139.241 109.934 140.292 109.044C140.05 108.559 139.726 108.154 139.484 107.668C139.08 107.911 138.756 108.073 138.433 108.316Z" fill="#BDD5E7"/>
<path d="M0.847062 90.3493C0.847062 90.7539 0.523711 91.7251 0.9279 91.9679C1.65544 92.4535 1.97879 92.6963 2.62549 91.806C1.97879 91.3204 1.41293 90.8349 0.847062 90.3493Z" fill="#BDD5E7"/>
<path d="M3.02965 91.7251C2.7063 91.9679 2.30211 92.2107 1.97876 92.5344C2.30211 92.939 2.62546 93.3437 2.86797 93.6674C3.19133 93.3437 3.59551 93.02 3.91886 92.6963C3.59551 92.4535 3.27216 92.1297 3.02965 91.7251Z" fill="#BDD5E7"/>
<path d="M4.40406 92.7772C3.91903 93.5056 3.11065 93.9912 3.83819 94.8814C4.24238 94.6386 4.72741 94.4767 5.13159 94.2339C4.88908 93.8293 4.64657 93.3437 4.40406 92.7772Z" fill="#BDD5E7"/>
<path d="M7.39503 96.1763C6.66749 95.5288 6.10163 94.8005 5.13158 94.4767C4.88906 95.6907 4.56571 96.5809 5.13158 97.714C5.6166 98.7661 7.23336 96.5 7.39503 96.1763Z" fill="#BDD5E7"/>
<path d="M6.42495 146.677C5.85909 148.296 7.23333 148.215 8.20338 147.648C7.71835 146.92 7.23333 146.596 6.42495 146.677Z" fill="#BDD5E7"/>
<path d="M8.36499 148.296C8.76918 148.781 10.6284 150.562 10.7901 148.619C10.7901 148.538 9.90091 147.324 9.82007 147.324C9.49672 147.324 8.6075 148.134 8.36499 148.296Z" fill="#BDD5E7"/>
<path d="M98.2566 103.217C97.2866 103.298 97.2057 103.865 97.6908 104.593C98.095 104.35 98.4991 104.107 98.8225 103.865C98.6608 103.622 98.4991 103.298 98.2566 103.217Z" fill="#BDD5E7"/>
<path d="M99.9542 104.836C99.6308 104.431 99.3074 103.946 99.0649 103.541C98.6607 104.431 98.2566 104.836 99.1458 105.645C99.3883 105.402 99.7925 105.16 99.9542 104.836Z" fill="#BDD5E7"/>
<path d="M100.197 107.102C100.439 107.102 100.763 106.94 101.005 106.859C100.763 106.454 100.52 105.969 100.278 105.564C99.4692 106.05 99.55 106.293 99.8734 107.021C100.197 107.587 99.1458 107.992 100.116 108.559C99.3884 108.801 99.3075 109.368 99.8734 109.854C99.3884 109.611 98.4991 110.501 99.2267 110.906C99.9542 111.31 100.52 110.501 100.116 110.015C100.439 109.934 100.682 109.611 101.005 109.53C100.763 109.287 100.601 108.882 100.358 108.64C100.682 108.559 100.924 108.235 101.248 108.154C100.924 107.83 100.601 107.426 100.197 107.102Z" fill="#BDD5E7"/>
<path d="M99.7924 111.391C98.2565 111.391 99.9541 112.929 100.277 113.334C100.601 112.929 101.005 112.201 100.924 111.634C100.843 110.987 100.197 110.744 99.7924 111.391Z" fill="#BDD5E7"/>
<path d="M94.6997 103.541C95.2655 103.622 95.8314 103.703 96.3973 103.784C96.4781 101.922 95.5081 101.922 94.053 102.813C94.2147 102.974 94.4572 103.298 94.6997 103.541Z" fill="#BDD5E7"/>
<path d="M87.3433 103.379C87.9092 104.269 90.011 102.246 90.3343 104.107C90.981 102.894 92.1936 103.136 93.2445 103.379C93.8104 101.841 91.9511 101.194 90.6577 100.708C89.2026 100.142 88.6367 100.304 87.6667 101.356C88.1517 101.437 88.6368 101.68 88.6368 102.165C88.1517 102.246 87.5859 102.246 87.1008 102.327C87.2625 102.651 87.2625 103.055 87.3433 103.379Z" fill="#BDD5E7"/>
<path d="M108.604 185.119C108.2 185.443 107.714 185.685 107.31 186.009C107.634 186.414 108.038 186.818 108.361 187.142C108.927 186.495 109.493 185.928 110.14 185.281C109.655 185.281 109.089 185.2 108.604 185.119Z" fill="#BDD5E7"/>
<path d="M110.059 185.928C109.493 186.414 108.846 186.657 109.251 187.466C110.544 186.98 111.11 186.738 111.999 185.685C111.514 185.362 110.948 184.957 110.463 184.633C110.301 185.038 110.14 185.524 110.059 185.928Z" fill="#BDD5E7"/>
<path d="M144.576 47.3752C145.547 47.537 147.567 48.6701 148.376 48.1845C149.669 47.537 151.529 46.5659 151.609 44.8663C151.609 43.7333 151.286 43.6524 150.397 42.924C149.346 42.0337 149.831 43.1668 148.942 43.3286C148.214 43.4096 148.214 42.4384 147.163 42.7621C146.678 42.924 145.951 43.7333 145.627 44.1379C145.547 43.3286 146.193 43.0858 145.142 42.4384C144.576 42.1147 142.798 43.0049 142.636 43.7333C142.394 44.9472 144.415 44.2998 143.445 45.271C142.96 45.7566 143.526 45.9993 144.011 46.0803C144.9 46.1612 144.576 46.6468 144.576 47.3752Z" fill="#BDD5E7"/>
<path d="M172.708 22.6104C172.951 22.1248 173.193 21.7202 173.516 21.2346C174.001 21.5583 173.355 22.5295 173.274 23.1769C173.112 24.229 173.436 24.4718 174.001 25.3621C174.81 23.9862 175.537 22.7723 176.588 21.5583C177.316 20.6681 177.477 20.749 176.588 20.0206C176.022 19.5351 175.457 19.4541 174.971 18.8876C175.052 18.9685 170.768 19.7778 170.768 19.616C170.606 20.2634 170.121 21.0727 170.606 21.5583C171.172 22.2058 171.738 23.0151 172.708 22.6104Z" fill="#BDD5E7"/>
<path d="M176.669 19.5351C177.72 21.2346 179.256 20.9109 180.549 19.7778C181.358 19.0495 182.085 18.8067 181.196 17.7546C180.549 17.0262 179.66 16.7834 179.094 17.6737C178.609 16.4597 177.639 17.269 177.477 18.1592C177.154 17.9164 176.992 17.0262 176.831 16.9453C176.184 16.6216 175.618 17.269 175.295 17.5927C174.244 18.5639 175.295 19.7778 176.669 19.5351Z" fill="#BDD5E7"/>
<path d="M177.477 22.2058C176.588 22.6913 176.588 22.8532 176.992 23.6625C177.477 24.4718 178.528 23.8244 179.094 23.5816C180.064 23.096 179.822 22.5295 179.337 21.8011C178.771 20.8299 177.962 21.8011 177.477 22.2058Z" fill="#BDD5E7"/>
<path d="M196.394 17.269C196.717 17.0262 197.606 16.7025 197.606 16.2978C197.606 15.4885 197.687 15.0029 198.091 14.3555C197.444 14.0318 197.121 13.9508 196.555 14.3555C196.07 14.6792 195.262 14.5174 195.019 14.922C193.807 16.2978 194.938 17.269 196.394 17.269Z" fill="#BDD5E7"/>
<path d="M201.001 15.0029C201.324 14.7602 202.456 13.789 201.89 13.2225C201.729 13.0606 201.001 13.2225 200.759 13.3034C200.274 13.4653 200.354 12.8178 200.031 12.8988C198.091 13.3034 199.384 15.4076 201.001 15.0029Z" fill="#BDD5E7"/>
<path d="M204.316 14.922C205.205 14.8411 205.528 13.9508 204.801 13.3034C204.154 12.8178 203.265 13.3034 202.618 13.5462C203.103 14.4364 203.184 15.0029 204.316 14.922Z" fill="#BDD5E7"/>
<path d="M205.609 14.7602C206.013 14.4364 208.196 12.4132 206.498 12.0894C204.477 11.6848 205.367 13.6271 205.609 14.7602Z" fill="#BDD5E7"/>
<path d="M205.851 26.4951C206.094 25.6858 206.175 24.4718 206.983 24.0672C208.115 23.5007 209.004 22.8532 210.055 22.1248C210.702 21.6393 211.995 21.8011 211.995 21.1537C211.995 19.2923 211.995 19.4541 210.217 18.7258C210.055 21.6393 207.226 20.5062 205.609 21.7202C204.881 22.2058 204.316 23.9053 203.831 24.6337C203.265 25.6048 202.86 26.4142 202.456 27.4663C203.426 27.709 204.477 27.9518 205.447 28.1946C205.609 27.6281 205.69 27.0616 205.851 26.4951Z" fill="#BDD5E7"/>
<path d="M201.082 30.056C200.678 31.6746 201.971 32.2411 203.265 32.2411C204.154 32.2411 205.124 34.1835 205.932 32.7267C206.741 31.27 205.124 31.27 204.72 29.8942C204.154 28.0328 204.073 28.1946 202.052 28.0328C202.133 29.2467 202.537 29.8942 201.082 30.056Z" fill="#BDD5E7"/>
<path d="M229.214 6.6671C228.486 6.18152 227.112 5.12942 226.708 6.42431C226.546 6.82896 225.899 7.07176 225.495 7.23362C224.687 7.55734 224.768 7.80013 224.687 8.60944C225.172 8.60944 226.546 9.01409 226.869 8.69037C227.678 8.04292 228.405 7.31455 229.214 6.6671Z" fill="#BDD5E7"/>
<path d="M227.354 10.4708C228.163 10.4708 228.89 10.7136 229.133 9.74246C230.103 10.4708 230.588 10.7136 231.639 9.82339C232.285 9.25688 232.528 9.33781 232.285 8.52851C232.204 8.12385 231.962 7.31455 231.558 6.99082C231.315 6.82896 230.588 6.58617 230.507 6.9099C229.941 8.04292 230.103 7.23362 229.294 7.7192C228.001 8.36664 227.758 9.01409 227.354 10.4708Z" fill="#BDD5E7"/>
<path d="M233.66 11.6039C233.902 11.1992 234.306 9.98525 234.791 9.90432C236.004 9.66153 236.166 9.82339 236.166 8.5285C236.166 7.15268 233.013 7.39547 232.285 7.39547C232.609 8.85222 233.013 10.1471 233.66 11.6039Z" fill="#BDD5E7"/>
<path d="M265.59 8.44757C265.429 6.74803 265.671 6.99082 267.369 6.58617C267.126 6.10059 266.884 5.615 266.48 5.21035C267.369 4.96756 267.531 6.10059 268.42 5.77686C269.066 5.53407 269.471 4.32012 268.824 3.91546C267.692 3.18709 267.692 2.86337 266.561 3.51081C265.833 3.99639 264.62 3.42988 263.893 3.83453C263.731 3.91546 264.055 4.72477 263.893 4.88663C263.65 5.04849 262.842 4.88663 262.519 4.88663C261.144 4.88663 261.629 5.615 261.629 6.82896C261.629 7.23361 263.165 8.12385 263.489 8.36664C264.62 9.17595 264.54 9.25688 265.59 8.44757Z" fill="#BDD5E7"/>
<path d="M272.947 4.96756C273.755 3.91547 274.159 3.10616 272.785 2.53965C272.543 2.45872 269.875 3.51081 269.309 3.67267C269.471 3.9964 270.037 5.37221 270.279 5.37221C271.087 5.21035 271.977 5.04849 272.947 4.96756Z" fill="#BDD5E7"/>
<path d="M268.097 8.04292C267.288 8.85222 267.127 9.33781 266.803 10.4708C268.339 10.309 269.228 10.1471 270.603 9.41874C269.713 8.5285 269.309 8.28571 268.097 8.04292Z" fill="#BDD5E7"/>
<path d="M302.372 2.86337C304.069 1.81127 300.836 -0.0501317 299.785 1.56848C298.976 2.70151 299.219 2.70151 300.027 3.83453C300.189 3.99639 302.048 3.02523 302.372 2.86337Z" fill="#BDD5E7"/>
<path d="M247.402 113.253C247.24 113.091 245.058 111.067 245.139 112.524C245.139 112.929 245.381 113.576 245.3 113.981C245.3 114.224 244.734 113.819 244.734 114.224C244.815 114.628 244.896 114.952 244.896 115.357C245.139 116.894 246.109 116.733 247.16 116.085C248.13 115.519 247.079 114.143 247.402 113.253Z" fill="#BDD5E7"/>
<path d="M87.101 100.87C87.4243 100.547 87.7477 100.223 87.9902 99.98C85.8076 98.847 83.5441 96.7428 81.119 96.5C80.3106 96.4191 77.9663 96.5809 77.4813 97.3093C76.5921 98.6851 79.9064 98.3614 80.5531 97.7949C81.2807 98.766 83.4633 98.2805 84.11 99.8181C84.11 99.7372 83.8675 100.789 83.8675 100.87C83.9483 101.275 84.3525 101.194 84.7567 101.275C85.7267 101.68 86.1309 101.356 87.101 100.87Z" fill="#BDD5E7"/>
<path d="M83.9482 95.5288C84.6758 96.0953 84.9991 96.9047 85.565 97.714C86.3734 96.9856 86.05 96.5809 85.7267 95.6907C85.4842 95.8526 85.1608 95.9335 84.9183 96.0953C85.8075 95.367 84.9183 94.2339 83.9482 94.153C84.0291 94.6386 83.9482 95.0432 83.9482 95.5288Z" fill="#BDD5E7"/>
<path d="M87.5052 98.1995C88.7177 97.3093 88.071 96.1763 86.6968 96.4191C86.6968 97.1474 87.101 97.5521 87.5052 98.1995Z" fill="#BDD5E7"/>
<path d="M86.2118 92.1297C85.5651 91.6442 84.9183 91.9679 84.5142 92.6153C85.7267 92.6963 85.08 93.9102 86.2926 93.8293C85.4034 94.0721 85.8076 94.6386 85.9692 95.367C86.0501 95.7716 87.1818 96.0144 87.586 96.1763C87.7477 95.367 86.9393 94.0721 86.4543 93.7484C86.7776 93.02 87.2626 92.4535 86.2118 92.1297Z" fill="#BDD5E7"/>
<path d="M82.8166 102.894C84.11 103.703 84.595 103.865 85.565 102.651C84.9183 102.246 82.4124 101.194 82.8166 102.894Z" fill="#BDD5E7"/>
<path d="M68.2656 123.045C68.1848 123.369 67.1339 126.121 68.1039 125.716C69.6399 125.149 69.8015 123.855 68.2656 123.045Z" fill="#BDD5E7"/>
<path d="M69.3975 20.4253C70.0442 20.2634 71.2567 20.1825 71.8226 19.7778C72.4693 19.2923 72.5501 18.1592 73.3585 17.8355C75.3794 17.1071 76.8345 16.7834 79.0171 16.6216C78.5321 16.055 77.9663 15.4885 77.4812 14.922C76.592 13.9508 76.7537 13.789 75.7028 14.5983C75.0561 15.0839 74.8944 13.9508 74.5711 13.6271C73.6819 12.7369 73.601 12.7369 72.3076 12.8178C71.0951 12.8988 71.4184 13.1415 71.4992 14.3555C71.4992 14.922 70.2058 15.8123 69.8825 16.2169C69.64 16.4597 68.5082 17.3499 68.5891 17.6737C68.8316 18.6448 69.0741 19.5351 69.3975 20.4253Z" fill="#BDD5E7"/>
<path d="M79.0171 10.0662C79.2597 12.7369 81.8465 9.41874 82.3315 8.85223C81.604 8.69037 80.7956 8.52851 80.1489 8.28571C78.9363 7.80013 79.4213 7.39548 78.3704 8.52851C77.9663 8.93316 76.2687 8.69037 75.7028 8.69037C74.9753 8.69037 74.8136 9.66154 74.4902 10.228C75.5411 10.6327 76.5112 10.9564 77.5621 11.3611C78.3704 11.6039 78.5321 10.7946 79.0171 10.0662Z" fill="#BDD5E7"/>
<path d="M78.2896 12.0894C78.0471 13.8699 79.9063 13.8699 81.2806 14.3555C80.3105 14.922 80.9572 15.6504 81.2806 16.4597C81.9273 16.136 82.8973 15.4885 83.6249 15.4885C85.1608 15.4885 85.0799 15.6504 85.8883 16.9453C87.3434 15.4885 87.6668 15.4885 87.1817 13.5462C86.8584 13.7081 86.4542 13.789 86.1308 13.9508C86.05 12.8178 86.1308 12.4941 86.7775 11.5229C85.7266 11.3611 85.0799 11.8467 84.3524 12.4132C83.9482 12.7369 84.6757 13.3843 84.4332 13.6271C84.2716 13.8699 83.3824 14.1936 83.3015 13.789C83.059 12.2513 82.4123 12.0085 81.1997 11.0373C80.7955 10.7136 78.7746 11.8467 78.2896 12.0894Z" fill="#BDD5E7"/>
<path d="M83.7058 9.5806C85.2417 10.309 85.3226 10.5518 86.7776 9.74246C88.071 9.01409 84.9184 8.5285 84.6759 8.44757C85.4842 8.36664 86.3735 8.36664 87.1818 8.28571C87.2627 6.99082 85.9693 6.74803 84.9184 7.15268C83.7866 7.55734 84.0292 8.44757 83.7058 9.5806Z" fill="#BDD5E7"/>
<path d="M93.3254 11.9276C94.5379 12.2513 94.1338 11.1183 94.1338 10.3899C94.1338 9.82339 92.8404 8.85223 92.517 8.36664C92.2745 8.12385 90.6577 8.28571 90.5769 8.60944C90.4152 9.49967 90.011 9.98526 90.0919 10.9564C91.8703 10.5518 92.032 10.7946 93.3254 11.9276Z" fill="#BDD5E7"/>
<path d="M94.7804 11.9276C94.9421 12.4132 95.1038 12.8988 95.2654 13.3843C96.2355 12.8178 97.6906 12.575 97.3672 11.1992C96.963 9.5806 95.5888 9.90432 94.3762 10.0662C95.1038 10.7946 95.5888 11.1183 94.7804 11.9276Z" fill="#BDD5E7"/>
<path d="M99.469 9.90432C100.682 10.7946 98.2564 10.7136 97.6906 10.7946C98.6606 12.1704 98.984 13.0606 100.601 13.3034C101.975 13.5462 103.107 12.656 104.319 12.1704C103.268 10.5518 102.217 9.01409 101.167 7.39548C101.005 7.15268 100.439 5.93873 100.197 6.10059C99.5498 6.58617 98.5798 6.74803 98.9031 7.7192C97.8523 7.07175 97.0439 7.63827 97.1247 8.85222C97.2056 10.4708 98.0139 9.90432 99.469 9.90432Z" fill="#BDD5E7"/>
<path d="M77.0771 27.709C78.0472 27.6281 80.149 28.0328 80.4723 26.8188C80.8765 27.3044 81.8465 28.923 82.4124 29.0039C83.8675 29.3276 84.2717 27.9518 84.3525 27.0616C84.6759 27.3044 85.0801 27.5472 85.4034 27.79C85.4842 27.3044 85.8884 25.6858 85.4842 25.5239C84.3525 24.7955 84.3525 24.8765 84.3525 23.5816C84.3525 22.4486 84.3525 21.3155 84.4333 20.1016C84.4333 19.2923 83.625 18.9685 82.9783 18.483C82.5741 19.0495 82.1699 19.5351 81.7657 20.1016C80.7148 19.2113 79.6639 18.3211 78.6939 17.4309C78.2089 17.0262 75.7837 17.8355 75.2179 18.1592C73.8436 18.8876 73.2778 19.616 73.4394 21.0727C73.6011 22.4486 75.3795 22.4486 76.6729 22.7723C76.5113 23.1769 76.3496 23.5007 76.1879 23.9053C75.3795 23.4197 74.652 22.9341 73.8436 22.4486C73.6819 22.7723 72.8736 23.8244 72.9544 24.1481C73.0352 24.6337 74.5711 24.7955 74.5711 25.3621C74.5711 25.9286 74.167 26.8997 74.8137 27.0616C75.622 27.3044 76.3496 27.5472 77.0771 27.709Z" fill="#BDD5E7"/>
<path d="M86.4541 21.3965C87.4242 22.9341 87.6667 23.5816 87.7475 25.3621C88.3942 24.9574 90.3343 24.31 90.6577 23.5816C90.9002 23.1769 90.6577 22.0439 90.6577 21.5583C90.6577 21.1537 91.3852 20.6681 91.7086 20.4253C90.9002 19.8588 90.6577 19.5351 89.6876 19.5351C88.5559 19.5351 88.7176 19.8588 88.3134 20.8299C87.2625 20.1016 87.02 20.5872 86.4541 21.3965Z" fill="#BDD5E7"/>
<path d="M92.032 23.8244C92.8404 23.8244 93.6488 24.0672 93.8105 23.096C94.7805 24.7955 96.8015 22.2867 97.6907 21.6393C96.7206 21.3155 94.538 20.0206 93.4871 20.2634C92.9213 20.3444 92.1129 21.3965 91.6279 21.8011C91.3853 21.882 91.9512 23.4197 92.032 23.8244Z" fill="#BDD5E7"/>
<path d="M92.5979 18.7258C94.2147 19.2923 94.538 19.9397 95.5889 18.402C95.7506 19.616 95.5889 19.8588 96.7206 20.1825C98.0949 20.6681 99.5499 21.0727 100.924 21.5583C101.813 21.882 102.703 22.1248 103.511 22.4486C104.4 22.7723 105.37 21.4774 106.017 20.8299C105.289 20.1825 104.481 19.616 103.754 18.9685C103.349 18.6448 102.137 19.4541 101.652 19.4541C98.8224 19.2113 98.4991 18.8067 98.2565 15.9741C98.1757 15.2457 94.9422 13.1415 94.1338 14.2746C93.4063 15.3267 94.9422 16.2978 95.5081 16.7025C96.3164 17.269 95.6697 17.7546 95.5081 18.402C94.8614 18.1592 94.2147 17.9164 93.568 17.5927C93.0021 17.3499 92.9213 18.1592 92.5979 18.7258Z" fill="#BDD5E7"/>
<path d="M90.577 17.4309C91.3854 19.9397 93.8913 16.2169 93.2446 15.4076C91.7896 13.5462 90.3345 14.7602 88.8794 16.055C89.6069 16.055 90.3345 16.136 91.062 16.136C90.9003 16.6216 90.7387 17.0262 90.577 17.4309Z" fill="#BDD5E7"/>
<path d="M112.403 37.9063C111.999 36.7733 111.595 35.6402 111.191 34.5072C110.948 33.7788 112.08 32.5649 112.484 31.9984C112.646 31.7556 110.625 29.8942 110.382 29.6514C109.331 28.5183 109.331 28.8421 108.038 29.7323C107.634 28.923 107.31 28.0328 106.906 27.2235C106.502 26.2523 105.613 26.8188 104.724 26.8997C103.673 27.0616 103.673 27.2235 103.43 26.1714C103.188 25.1193 103.026 24.1481 102.784 23.096C101.813 23.7434 100.924 24.3909 99.9542 25.0383C99.2266 25.5239 100.52 27.6281 98.7416 27.1425C98.9033 25.2002 99.8733 24.0672 101.005 22.4486C98.8225 22.2058 97.1249 22.2867 95.7506 24.1481C95.1848 24.9574 95.1039 29.3276 95.9123 29.4086C98.5799 29.5704 99.8733 29.8132 102.218 31.0272C102.945 31.3509 103.43 32.2412 103.996 32.8886C104.966 33.9407 105.047 33.9407 106.502 33.8598C106.098 35.964 103.834 41.791 100.924 38.4728C99.8733 39.8486 99.6308 39.9295 100.197 41.5482C100.52 42.4384 102.945 41.2244 103.349 41.0626C103.673 42.0337 104.077 44.2189 104.885 44.7854C105.451 45.19 108.361 47.4561 108.765 46.9705C109.251 46.404 111.595 44.057 111.271 43.4096C110.786 42.6003 110.301 41.791 109.816 40.9816C109.251 40.0105 109.412 40.0914 110.221 39.2012C110.786 40.1723 111.352 41.0626 111.918 42.0337C113.05 41.0626 114.182 40.0914 115.313 39.0393C115.394 38.9584 114.828 37.5016 114.667 37.4207C114.101 37.097 112.727 37.8254 112.403 37.9063Z" fill="#BDD5E7"/>
<path d="M103.188 24.6337C104.238 26.2523 105.451 26.0095 107.391 26.2523C105.936 24.7955 104.966 22.8532 103.188 24.6337Z" fill="#BDD5E7"/>
<path d="M105.613 8.69036C105.209 11.8467 108.604 10.5518 110.544 10.1471C110.867 11.1183 108.361 12.4132 107.876 12.0894C106.34 10.8755 106.098 10.7946 104.077 11.0374C104.643 11.8467 105.209 12.656 105.774 13.4653C105.209 13.789 105.047 13.3843 104.562 12.9797C103.915 12.4132 103.673 12.8988 103.026 13.3843C102.703 13.5462 103.511 14.7602 103.673 15.0029C103.996 15.5695 104.4 15.4076 105.047 15.4076C105.208 17.8355 102.864 14.6792 102.541 14.5983C101.813 14.3555 101.247 14.7602 101.247 15.4076C101.247 15.8123 99.7924 15.9741 99.3882 16.055C100.439 17.8355 102.056 18.0783 104.077 18.3211C104.885 18.402 105.451 19.0495 106.098 19.5351C106.421 19.7778 107.876 18.7258 108.28 18.483C107.957 18.1592 107.634 17.8355 107.31 17.5927C108.119 17.8355 108.361 17.4309 108.846 16.9453C109.331 16.2978 110.22 16.3788 110.948 16.2978C112.726 15.9741 109.331 13.9509 110.705 14.1936C112.161 14.4364 113.211 14.8411 114.586 14.2746C116.202 13.6271 117.819 13.0606 119.355 12.4132C118.628 12.1704 117.9 12.0085 117.172 11.7657C117.738 11.2801 119.032 11.5229 119.759 11.5229C121.134 11.5229 121.214 11.5229 122.184 10.4708C119.193 9.41874 116.202 8.36664 113.211 7.23362C112.241 6.90989 112.161 6.6671 111.352 7.23362C110.463 7.88106 110.301 8.44757 109.412 7.7192C108.765 7.15269 108.2 6.42431 107.229 6.34338C106.017 6.26245 106.259 6.42431 106.017 7.55734C104.562 6.26245 104.481 6.50524 102.541 7.07175C103.188 8.5285 103.915 8.28571 105.613 8.69036Z" fill="#BDD5E7"/>
<path d="M92.5171 39.1202C92.5171 40.0105 92.4363 40.9007 92.4363 41.791C93.3255 41.2244 94.4572 40.3342 95.5889 40.7389C95.9931 40.9007 96.3973 41.8719 96.8015 41.9528C97.1249 41.9528 98.0141 40.9817 98.2566 40.8198C96.9632 39.5249 95.589 38.23 94.2955 36.9351C93.7297 37.6635 93.1638 38.3919 92.5171 39.1202Z" fill="#BDD5E7"/>
<path d="M113.131 62.1045C112.403 62.752 111.756 63.4803 111.029 64.1278C110.625 64.5324 109.008 65.5845 108.927 66.151C108.685 67.8506 113.212 68.6599 114.262 69.0645C115.152 69.3883 115.879 65.3417 114.424 65.5036C113.939 65.5845 111.918 65.5845 112.888 64.6943C114.02 63.4803 114.02 63.5613 113.131 62.1045Z" fill="#BDD5E7"/>
<path d="M47.4095 47.9417C45.7928 45.19 44.6611 48.5891 45.8736 49.3175C44.8227 49.5603 45.4694 51.3408 46.197 51.7454C47.0862 51.1789 46.682 50.6124 46.4395 49.884C46.197 49.2366 47.0862 48.4273 47.4095 47.9417Z" fill="#BDD5E7"/>
<path d="M102.703 189.085C102.298 188.437 101.732 187.79 101.247 187.223C100.601 188.599 100.035 189.975 99.3882 191.351C100.358 191.432 101.894 191.836 102.703 191.755C104.4 191.593 104.966 191.27 106.421 190.298C105.209 190.056 103.592 190.056 102.703 189.085Z" fill="#BDD5E7"/>
<path d="M93.7297 173.789C93.568 173.546 93.1638 173.303 92.9213 173.06C92.5979 173.627 91.7087 175.003 92.5171 175.65C93.6488 176.54 93.6488 174.355 93.7297 173.789Z" fill="#BDD5E7"/>
<path d="M113.535 124.34C112.484 124.259 111.433 124.097 110.382 124.016C111.11 122.479 111.191 121.912 111.029 120.213C110.867 118.675 110.059 118.837 108.846 118.108C107.876 117.542 107.23 116.733 106.017 117.056C105.209 117.299 105.289 117.947 104.562 117.38C104.158 117.056 104.077 117.056 103.673 116.652C102.703 115.761 101.733 114.871 100.763 114.224C99.8734 113.657 98.9842 111.796 98.2566 111.553C97.2057 111.229 95.8315 112.12 94.6189 111.796C93.0022 111.391 92.6788 110.987 91.6279 109.773C90.4962 110.906 90.1728 111.31 89.9303 112.848C87.7477 112.767 90.0112 110.015 90.4154 109.449C88.3136 109.206 87.101 110.987 85.4843 112.281C85.1609 112.524 84.2717 113.576 83.9483 113.414C83.625 113.253 81.6849 112.201 81.4424 112.362C80.0681 113.334 78.6131 114.062 77.4005 112.443C76.673 111.472 77.158 110.906 77.4813 109.854C77.8047 108.801 77.8855 108.154 77.8855 107.102C77.9664 107.102 78.0472 107.183 78.128 107.183C77.4813 106.374 76.9963 105.321 75.9454 105.321C74.7328 105.402 73.1969 105.807 72.4694 104.755C73.2778 103.46 73.9245 102.246 74.652 100.87C75.0562 100.142 75.8646 99.4944 75.137 98.847C74.2478 98.0377 74.167 98.1995 72.9544 98.4423C72.5502 98.5233 70.691 98.6851 70.5293 99.0898C70.3676 99.4944 70.0443 101.275 69.6401 101.356C68.2658 101.599 65.9215 101.76 65.4365 100.142C64.709 97.8758 64.6281 97.0665 65.1132 94.8004C65.3557 93.3437 65.8407 91.7251 66.8107 90.5111C67.2149 90.1065 70.2059 87.6786 70.6101 87.8404C72.3886 88.6497 73.5203 88.9735 75.4604 89.1353C75.5412 88.326 75.2179 87.7595 76.1071 87.7595C77.3196 87.7595 78.4514 87.8404 79.6639 87.8404C81.6849 87.9213 79.9873 91.6442 80.149 92.2916C80.2298 92.6963 80.634 94.6386 80.9574 94.6386C82.3316 94.6386 82.4124 94.8005 83.14 93.6674C84.0292 92.2916 83.9483 92.5344 83.4633 91.1586C83.2208 90.5111 82.8166 89.3781 83.0591 88.7307C83.7867 86.4646 84.8376 85.7362 86.6968 84.1985C87.4244 83.632 87.9094 83.4702 88.7986 83.2274C90.1729 82.8227 90.3345 83.0655 90.092 81.6088C90.0112 80.8804 89.6878 80.233 90.1728 79.6664C91.0621 78.6953 91.9513 77.7241 92.8405 76.7529C94.1339 75.3771 95.9123 75.539 97.6908 75.2153C97.1249 73.192 96.8015 73.1111 98.58 72.059C99.7925 71.3306 100.924 70.6831 102.218 70.2785C101.328 71.1687 100.924 71.1687 101.328 72.3827C101.733 73.5157 103.107 72.8683 103.592 72.1399C104.481 70.845 105.209 71.978 106.421 71.3306C106.987 71.0069 107.553 69.2264 107.876 68.6599C107.553 68.6599 106.745 68.498 106.502 68.8218C106.098 69.3883 106.098 69.5501 105.37 69.712C104.158 70.0357 104.077 68.2552 104.158 67.5269C104.239 66.7176 105.451 65.1799 104.158 64.6943C103.511 64.4515 101.571 65.1799 100.843 65.3417C101.571 64.7752 102.541 63.6422 103.43 63.6422C104.724 63.7231 105.775 63.9659 107.068 64.2087C108.766 64.6134 108.766 64.2087 109.978 62.9138C110.786 62.1045 112.646 62.0236 113.697 61.7808C114.182 61.6189 114.101 59.6766 113.697 59.2719C112.727 58.058 111.676 56.844 110.706 55.6301C110.221 54.9826 110.301 53.5259 110.14 52.7975C109.897 51.4217 109.736 50.0459 109.493 48.67C108.28 49.4794 107.149 50.2887 105.936 51.017C105.613 51.1789 104.724 50.8552 104.562 50.5315C104.4 50.2077 105.128 48.67 105.289 48.2654C105.532 47.3752 103.915 45.9184 103.43 45.19C102.864 44.4617 100.439 44.057 99.55 43.7333C99.2267 43.6524 96.4782 49.3984 96.3973 50.2887C96.3165 51.9882 96.2357 52.8784 95.4273 54.3352C94.8614 55.4682 92.9213 53.9305 92.8405 55.3873C92.7597 56.7631 93.0022 58.1389 92.1938 59.2719C91.1429 60.6478 90.4154 60.0813 90.8196 58.4626C90.9812 57.7343 92.0321 54.9826 91.7088 54.3352C91.3046 53.6068 88.3944 52.8784 87.586 52.5547C86.616 52.1501 85.7268 50.8552 84.9992 50.0459C84.6759 49.7221 84.5142 49.1556 84.3525 48.751C84.0292 47.8607 83.7058 47.8607 82.7358 47.537C81.1999 46.9705 85.8884 42.3575 86.8585 41.5482C88.2327 40.4961 88.8794 40.2533 90.4962 39.8486C91.7088 39.5249 92.5171 38.23 91.9513 37.016C92.9213 36.7733 94.4572 36.1258 95.4273 36.5305C97.2057 37.4207 97.3674 37.097 99.065 36.1258C99.6309 35.8021 99.7925 33.0505 99.9542 32.3221C100.116 31.5937 98.2566 30.2179 97.6908 29.6514C97.1249 30.5416 96.559 31.4318 95.9932 32.3221C95.3465 33.2932 95.3465 33.536 94.1339 33.2123C94.2956 32.8886 95.5081 31.189 95.1848 31.0272C93.8105 30.2179 93.8914 30.4607 92.7597 31.4318C92.6788 29.6514 92.6788 27.8709 92.598 26.0904C92.5171 23.9862 90.7387 24.7955 89.5261 25.443C87.5052 26.4142 89.5261 27.5472 89.5261 28.7611C89.5261 29.4895 89.6878 30.2179 89.122 30.6225C88.4753 31.189 87.7477 31.6746 87.4244 32.4839C87.2627 31.5937 88.0711 30.7035 88.4753 29.8942C88.9603 29.0039 88.4753 28.3565 88.0711 27.4662C86.4543 28.4374 86.0501 28.4374 85.9693 30.3797C85.8885 32.3221 83.3016 30.8653 82.4933 30.4607C81.6849 30.137 81.4424 29.9751 80.9574 29.3276C80.5532 28.7611 80.3915 27.8709 79.6639 28.0328C77.5622 28.5993 77.9663 29.0039 77.7238 31.1081C76.7538 31.1081 77.0771 30.056 76.9963 29.3276C76.9963 29.0039 74.9754 28.7611 74.652 28.6802C72.3886 28.1946 72.3885 28.2756 73.682 26.2523C72.3077 25.443 71.2568 24.7955 70.2868 23.6625C68.9125 22.0439 68.67 21.0727 66.3257 20.9109C66.3257 21.3155 66.3257 21.7202 66.3257 22.2058C66.3257 22.4486 65.679 22.4486 65.679 22.2867C65.5173 21.2346 65.5173 20.1825 65.3557 19.2113C63.4964 19.9397 62.0413 20.5062 59.9395 19.9397C58.5653 19.5351 58.8887 19.1304 57.7569 20.3444C56.9486 21.2346 55.8977 20.3444 55.6552 19.4541C55.3318 18.0783 54.4426 17.5118 53.4725 16.7025C51.2899 15.0029 49.0265 13.2225 46.8438 11.5229C45.7121 10.6327 44.9037 9.41874 43.4487 9.66153C40.781 10.1471 38.0325 10.7136 35.3649 11.1992C34.5565 11.3611 33.7481 11.5229 32.8589 11.6848C32.5356 11.7657 32.4547 14.1127 32.3739 14.5174C32.2122 15.8122 32.5356 15.6504 33.6673 16.2978C34.9607 17.1071 34.4757 17.269 33.9906 18.7257C33.5056 18.3211 31.4038 16.136 30.838 16.2978C29.9488 16.5406 29.0595 16.7025 28.0895 16.9453C27.2811 17.1071 27.5236 17.269 27.6853 18.0783C27.847 18.9685 28.0087 19.7778 28.1703 20.6681C28.2512 21.2346 29.1404 21.2346 29.6254 21.3155C31.4847 21.8011 32.2931 21.963 30.1104 22.6913C29.0595 23.0151 27.2003 23.1769 26.5536 24.1481C25.826 25.2811 24.0476 27.2235 23.8859 28.5183C23.7243 29.8942 24.6135 31.9984 24.856 33.3742C24.9368 33.9407 25.9877 34.3453 26.3919 34.5881C27.0386 34.9928 27.4428 34.2644 27.9278 33.7788C28.332 35.8021 22.9967 37.3398 21.7033 37.9872C20.6524 38.4728 19.6824 38.6347 18.6315 38.9584C16.7722 39.444 16.9339 39.363 16.7722 41.3054C20.2482 40.2533 23.7243 39.2821 27.2003 38.3109C29.6254 37.6635 30.0296 37.016 31.6464 35.0737C32.8589 33.617 33.9906 32.8077 35.6074 31.7556C35.1224 32.6458 34.5565 33.4551 34.0715 34.3453C34.7182 34.4263 36.0924 34.9119 36.6583 34.6691C37.7092 34.1835 38.8409 33.6979 39.8918 33.2123C40.3768 35.2356 40.1343 35.5593 42.2361 35.964C43.287 36.2067 44.9037 37.5016 45.4696 38.4728C46.0355 39.6058 44.5804 41.791 45.7929 42.6812C47.3289 43.8142 46.9247 40.4151 46.9247 39.6058C47.0055 39.6058 47.0864 39.6058 47.1672 39.6058C47.248 41.6291 47.248 43.8142 47.3289 45.8375C47.3289 46.3231 47.248 46.8086 47.3289 47.2942C47.4097 47.618 47.3289 48.2654 47.4905 48.5891C47.7331 48.9938 48.3798 49.1556 48.4606 49.7221C48.6223 51.1789 47.3289 53.2022 48.5414 54.3352C50.239 55.8729 51.2899 56.6822 50.6432 59.1101C50.3199 58.9482 49.9157 58.7054 49.6732 58.4626C50.6432 58.6245 50.5624 58.1389 50.5624 57.4105C50.5624 56.3585 50.4007 56.4394 49.5115 55.8729C48.2989 55.1445 48.2989 53.5259 46.6822 54.4161C47.8139 55.7919 47.9756 57.0868 49.1881 58.3817C48.3798 58.2198 47.8947 60.7287 47.5714 61.538C46.5205 63.8041 45.5504 66.151 44.4995 68.4171C43.0445 71.6543 44.4187 75.3771 44.9037 78.7762C44.9846 79.5046 46.0355 79.2618 46.3588 79.8283C46.6822 80.3948 46.5205 81.6897 46.6013 82.2562C46.9247 84.1176 47.8139 85.979 48.3798 87.7595C48.4606 88.0832 48.1372 88.0832 47.8947 88.2451C47.5714 88.4069 47.7331 88.8925 47.7331 89.2162C47.8139 90.1065 49.269 90.3493 49.269 90.9967C49.269 91.6442 49.0265 92.7772 49.5115 93.2628C50.3199 93.9911 51.0474 94.7195 51.8558 95.4479C51.4516 92.7772 51.2091 90.1065 50.4007 87.5167C49.9157 85.979 49.9157 85.2506 50.0773 83.713C50.1582 83.1465 50.8049 84.1176 50.8857 84.2795C51.1282 84.846 50.4815 85.7362 50.5624 86.3837C50.724 87.3548 51.6133 88.4879 52.0983 89.2972C52.9875 90.9967 53.8767 92.7772 54.7659 94.4767C55.3318 95.5288 55.3318 95.8525 55.3318 97.0665C55.3318 98.847 55.4126 99.0088 56.5444 100.385C57.3527 101.356 58.242 102.813 59.212 103.622C60.3437 104.431 62.0413 104.917 63.3347 105.564C64.4665 106.131 64.6281 104.188 66.0832 105.321C67.1341 106.212 68.1041 107.021 69.2359 107.83C71.176 109.287 73.5203 109.368 73.5203 112.281C73.5203 113.01 75.3795 114.224 76.0263 114.709C76.7538 115.195 77.4813 115.357 78.4514 115.6C78.9364 115.681 79.3406 115.761 79.8256 115.842C79.9873 114.871 80.4723 113.091 81.8466 114.386C82.6549 115.195 82.4124 117.218 82.4933 118.189C82.5741 119.161 81.3615 121.022 81.0382 121.912C80.634 122.964 78.9364 122.964 78.8556 124.097C78.7747 124.826 78.8556 125.23 78.4514 125.797C78.128 126.282 79.3406 126.525 79.4214 127.011C79.5023 127.82 77.2388 128.144 78.128 129.682C79.5831 132.433 81.119 135.104 82.5741 137.855C83.14 138.908 83.7058 139.96 84.2717 141.012C84.6759 141.74 86.4543 142.469 87.1819 142.954C88.9603 144.087 90.8195 144.492 90.9004 146.596C91.2237 153.637 91.5471 160.678 91.7896 167.719C91.8704 168.771 91.3854 172.413 92.3555 172.979C94.0531 173.951 93.8105 174.031 93.7297 176.055C93.7297 176.864 93.6489 177.673 93.6489 178.483C93.6489 179.13 92.598 178.644 92.4363 179.211C92.0321 181.153 94.2147 180.506 94.2956 181.558C94.2956 182.205 94.4572 182.61 94.1339 183.096C93.4064 184.067 93.3255 183.986 93.8914 185.038C94.6189 186.252 95.5081 187.385 96.3165 188.599C96.9632 189.57 98.2566 189.975 99.3075 190.541C99.4692 188.761 99.9542 188.275 101.086 186.98C100.682 186.98 99.9542 185.685 100.035 185.281C100.116 184.552 101.248 183.5 101.571 182.853C101.813 182.448 102.703 180.749 102.622 180.344C102.46 179.697 100.682 179.454 100.924 178.725C101.571 176.783 102.46 175.164 101.894 173.141C101.652 172.251 103.269 172.089 103.996 171.846C104.239 171.765 103.754 169.823 103.673 169.499C105.694 169.499 106.34 169.014 107.31 167.314C107.553 166.829 108.442 165.938 108.038 165.453C107.472 164.724 106.906 164.077 106.34 163.349C107.634 163.753 108.28 164.32 109.251 163.349C110.14 162.458 111.271 161.649 111.918 160.678C113.292 158.655 114.182 156.389 114.262 153.88C114.262 152.18 114.667 152.261 116.122 151.29C117.415 150.4 118.062 149.833 119.598 149.833C122.265 149.833 122.831 146.353 122.912 144.168C122.993 143.197 123.478 141.174 123.074 140.202C122.346 138.584 122.508 138.746 123.801 137.532C124.61 136.803 126.469 135.67 126.873 134.699C127.358 133.647 126.954 131.543 127.035 130.41C127.116 129.034 122.023 127.415 120.81 126.849C118.789 125.554 115.96 125.068 113.535 124.34ZM93.9722 69.5501C93.7297 69.712 93.2447 70.0357 92.9213 70.2785C93.2447 70.0357 93.6489 69.7929 93.9722 69.5501ZM49.8348 45.271C49.9157 45.19 49.9965 45.1091 50.0773 45.0282C49.9965 45.1091 49.9157 45.19 49.8348 45.271ZM87.101 126.606C86.9393 126.363 87.1819 126.687 87.101 126.606V126.606Z" fill="#BDD5E7"/>
<path d="M194.534 85.8981C195.1 85.3316 195.666 84.846 196.232 84.2795C195.343 83.3083 194.453 84.2795 193.322 84.3604C192.513 84.3604 193.322 86.06 194.534 85.8981Z" fill="#BDD5E7"/>
<path d="M157.753 58.058C157.753 58.4626 157.753 58.9482 157.672 59.3529C157.349 58.6245 155.813 58.7054 155.409 59.0292C154.843 59.5147 155.328 60.2431 154.439 60.2431C153.469 60.1622 153.549 60.1622 153.549 61.1334C153.549 61.2952 153.873 62.2664 153.873 62.3473C153.711 62.752 152.579 62.8329 152.499 63.2375C152.094 64.2896 153.711 64.8562 154.52 64.5324C155.005 64.3706 157.511 63.7231 157.591 63.3185C157.672 62.671 157.591 60.4859 158.319 60.0813C159.531 59.3529 160.502 61.6999 159.208 61.8617C158.642 61.9427 157.915 63.9659 157.43 64.6943C157.996 64.7752 158.481 64.7752 159.046 64.8562C158.157 65.3417 157.268 65.9083 156.379 66.3938C158.238 67.2841 158.723 66.7176 160.582 65.8273C161.957 65.1799 163.088 66.5557 164.139 64.6943C163.978 64.6134 163.735 64.4515 163.573 64.3706C165.999 63.4803 162.846 61.7808 162.522 61.0524C162.118 60.1622 161.714 59.3529 161.31 58.5436C160.825 57.5724 161.31 57.0059 161.31 56.1157C161.31 54.9017 160.178 56.1966 159.693 55.5491C159.531 55.3064 161.067 53.8496 159.531 53.6877C159.289 53.6877 157.834 54.8208 157.753 55.0636C157.43 56.1157 157.187 57.0868 156.864 58.1389C157.187 58.058 157.511 58.1389 157.753 58.058Z" fill="#BDD5E7"/>
<path d="M182.57 54.2543C182.328 53.6877 180.954 53.364 180.873 54.2543C180.792 55.2254 182.328 54.9826 182.57 54.2543Z" fill="#BDD5E7"/>
<path d="M166.564 79.5855C165.675 79.1809 164.382 78.6953 164.705 80.0711C164.948 80.9613 166.322 80.152 166.564 79.5855Z" fill="#BDD5E7"/>
<path d="M170.364 80.5567C171.172 80.8804 171.415 80.7185 171.981 80.152C172.142 79.9092 172.304 78.2097 172.061 77.9669C171.576 77.4004 170.768 78.0478 170.283 78.2906C169.96 78.4525 170.283 80.152 170.364 80.5567Z" fill="#BDD5E7"/>
<path d="M171.98 76.3483C171.9 75.9436 171.819 75.539 171.738 75.1343C171.334 75.539 170.202 76.3483 170.525 77.1576C171.091 78.3716 172.061 77.2385 171.98 76.3483Z" fill="#BDD5E7"/>
<path d="M173.436 59.6766C173.597 59.0292 173.193 57.4105 172.304 58.2199C171.01 59.4338 172.304 59.6766 173.436 59.6766Z" fill="#BDD5E7"/>
<path d="M179.175 54.497C177.962 55.4682 177.962 55.3873 178.609 56.844C179.66 55.7919 179.66 55.8729 179.175 54.497Z" fill="#BDD5E7"/>
<path d="M176.346 80.9613C175.537 81.1232 173.678 80.8804 174.325 82.1753C174.486 82.5799 176.588 83.4702 177.073 83.4702C177.154 82.499 177.477 81.1232 176.346 80.9613Z" fill="#BDD5E7"/>
<path d="M176.103 85.1697C177.235 85.979 177.397 84.9269 177.154 84.0367C176.992 83.4702 175.861 84.2795 176.103 85.1697Z" fill="#BDD5E7"/>
<path d="M187.905 85.4125C188.471 85.0079 188.552 84.6841 188.148 84.2795C187.905 84.0367 187.501 84.4413 187.178 84.4413C186.45 84.4413 185.48 83.3892 185.157 84.7651C186.208 85.4125 186.531 85.4125 187.905 85.4125Z" fill="#BDD5E7"/>
</svg>
