<?xml version="1.0" encoding="utf-8"?>
<!-- Generator: Adobe Illustrator 26.5.0, SVG Export Plug-In . SVG Version: 6.00 Build 0)  -->
<svg version="1.1" id="Layer_1" xmlns="http://www.w3.org/2000/svg" xmlns:xlink="http://www.w3.org/1999/xlink" x="0px" y="0px"
	 viewBox="0 0 2340 1560" style="enable-background:new 0 0 2340 1560;" xml:space="preserve">
<style type="text/css">
	.st0{fill-rule:evenodd;clip-rule:evenodd;fill:#E6E6E6;}
	.st1{fill-rule:evenodd;clip-rule:evenodd;fill:#DBD4D4;}
	.st2{fill-rule:evenodd;clip-rule:evenodd;fill:#41366E;}
	.st3{fill-rule:evenodd;clip-rule:evenodd;fill:#6C5F9E;}
	.st4{fill-rule:evenodd;clip-rule:evenodd;fill:#83C231;}
	.st5{fill-rule:evenodd;clip-rule:evenodd;fill:#F5F5F5;}
	.st6{fill-rule:evenodd;clip-rule:evenodd;fill:#B3DB4F;}
	.st7{fill-rule:evenodd;clip-rule:evenodd;fill:#FFFFFF;}
	.st8{fill-rule:evenodd;clip-rule:evenodd;fill:#445BB8;}
	.st9{fill-rule:evenodd;clip-rule:evenodd;fill:#618BE0;}
	.st10{fill-rule:evenodd;clip-rule:evenodd;fill:#F04872;}
	.st11{fill-rule:evenodd;clip-rule:evenodd;fill:#91B6FF;}
	.st12{fill-rule:evenodd;clip-rule:evenodd;fill:#F58282;}
	.st13{fill-rule:evenodd;clip-rule:evenodd;fill:#FFB199;}
	.st14{fill-rule:evenodd;clip-rule:evenodd;fill:#FFA99C;}
	.st15{fill-rule:evenodd;clip-rule:evenodd;fill:#FF983D;}
	.st16{fill-rule:evenodd;clip-rule:evenodd;fill:#FFC369;}
	.st17{fill-rule:evenodd;clip-rule:evenodd;fill:#CFED82;}
	.st18{fill-rule:evenodd;clip-rule:evenodd;fill:#B6D469;}
	.st19{fill-rule:evenodd;clip-rule:evenodd;fill:#9AC236;}
	.st20{fill-rule:evenodd;clip-rule:evenodd;fill:#FFE7C2;}
	.st21{fill-rule:evenodd;clip-rule:evenodd;fill:#261D45;}
</style>
<rect x="0" y="0" class="st0" width="2340" height="1560"/>
<g>
	<path class="st1" d="M2088.3,775.8L1787.5,602c-4.9-2.8-10.5-2.8-15.4,0l-215.6,124.5c-4.9,2.8-7.7,7.7-7.7,13.3
		c0,5.6,2.8,10.5,7.7,13.3l285.3,164.7l-17.9,10.3l38.8,0.9c1.8,0.4,3.6,0.4,5.4,0.1h0l0,0c1.8-0.3,3.6-0.9,5.3-1.9l214.8-124.9
		c4.9-2.8,7.6-7.7,7.6-13.3C2096,783.4,2093.2,778.6,2088.3,775.8z"/>
	<g>
		<g>
			<path class="st2" d="M1507.4,680.3v10.2c0,5.6,2.8,10.5,7.7,13.3l1.2,0.7V732l-8.9,5.1c0,6.4,1.8,11.4,7.7,14.8L1816.7,926
				c4.9,2.8,10.5,2.8,15.4,0l214.8-124.9c4.9-2.8,7.6-7.7,7.6-13.3v-58.3c0,5.6-2.8,10.5-7.6,13.3l-214.8,124.9
				c-4.9,2.8-10.5,2.8-15.4,0l-301.6-174.1C1510.2,690.8,1507.4,685.9,1507.4,680.3z"/>
			<path class="st1" d="M2045.7,753.8v34c0,2.5-1.1,4.4-3.2,5.6l-214.8,124.9c-2.1,1.2-4.4,1.2-6.5,0l-301.6-174.1
				c-2.1-1.2-3.2-3.1-3.2-5.6v-34.1l296,170.9c7.6,4.4,16.6,4.4,24.3,0L2045.7,753.8z"/>
			<path class="st3" d="M2046.9,716.2L1746,542.5c-4.9-2.8-10.5-2.8-15.4,0L1515.1,667c-4.9,2.8-7.7,7.7-7.7,13.3
				c0,5.6,2.8,10.5,7.7,13.3l301.6,174.1c4.9,2.8,10.5,2.8,15.4,0l214.8-124.9c4.9-2.8,7.6-7.7,7.6-13.3
				C2054.5,723.9,2051.7,719.1,2046.9,716.2z"/>
			<path class="st3" d="M2045.7,781.4v6.4c0,2.5-1.1,4.4-3.2,5.6l-2.6,1.5l-212.2,123.4c-2.1,1.2-4.4,1.2-6.5,0l-301.6-174.1
				l-0.1-0.1l-12-6.9v-0.1l8.9-5.1v0.2c0,2.5,1.1,4.4,3.2,5.6L1821.1,912c2.1,1.2,4.4,1.2,6.5,0l212.2-123.4v-31.4l5.9-3.4V781.4z"
				/>
		</g>
		<g>
			<path class="st4" d="M1514.2,603.1v9.9c0,5.5,2.7,10.1,7.4,12.9l1.2,0.7v26.6l-8.6,5c0,6.2,1.8,11,7.4,14.3l291.7,168.4
				c4.7,2.7,10.2,2.7,14.9,0l207.7-120.8c4.7-2.7,7.4-7.4,7.4-12.8v-56.4c0,5.4-2.7,10.1-7.4,12.9l-207.7,120.8
				c-4.7,2.7-10.1,2.8-14.9,0L1521.6,616C1516.9,613.2,1514.2,608.5,1514.2,603.1z"/>
			<path class="st5" d="M2034.7,674.2v32.9c0,2.4-1.1,4.2-3.1,5.4l-207.7,120.8c-2.1,1.2-4.2,1.2-6.3,0l-291.7-168.4
				c-2.1-1.2-3.1-3-3.1-5.4v-33L1809,791.8c7.4,4.3,16.1,4.3,23.5,0L2034.7,674.2z"/>
			<path class="st6" d="M2035.8,637.9l-290.9-168c-4.7-2.7-10.1-2.7-14.8,0l-208.5,120.4c-4.7,2.7-7.4,7.4-7.4,12.9
				c0,5.5,2.7,10.1,7.4,12.9l291.7,168.4c4.7,2.7,10.2,2.7,14.9,0l207.7-120.8c4.7-2.7,7.4-7.4,7.4-12.9
				C2043.2,645.3,2040.5,640.6,2035.8,637.9z"/>
			<path class="st4" d="M2034.7,700.9v6.2c0,2.4-1.1,4.2-3.1,5.4l-2.5,1.5l-205.2,119.3c-2.1,1.2-4.2,1.2-6.3,0l-291.7-168.4
				l-0.1-0.1l-11.6-6.7v-0.1l8.6-5v0.2c0,2.4,1.1,4.2,3.1,5.4l291.7,168.4c2.1,1.2,4.2,1.2,6.3,0L2029,707.8v-30.4l5.7-3.3V700.9z"
				/>
		</g>
	</g>
	<path class="st4" d="M1834.6,584.8c65.2-6.5,121.1,18.8,124.8,56.4c3.7,37.6-46.1,73.4-111.3,79.9c-65.2,6.5-121.1-18.8-124.8-56.4
		C1719.5,627,1769.4,591.2,1834.6,584.8z"/>
	<g>
		<path class="st7" d="M1922.9,641c0,37.8-53.1,68.5-118.6,68.5c-65.5,0-118.6-30.7-118.6-68.5v-45.6c0-37.8,53.1-68.5,118.6-68.5
			c65.5,0,118.6,30.7,118.6,68.5V641z"/>
		<g>
			<g>
				<path class="st2" d="M1928.1,648.9c0,37.8-53.1,68.5-118.6,68.5c-65.5,0-118.6-30.7-118.6-68.5v-45.6
					c0-37.8,53.1-68.5,118.6-68.5c65.5,0,118.6,30.7,118.6,68.5V648.9z"/>
				<path class="st8" d="M1809.5,534.9c65.5,0,118.6,30.7,118.6,68.5c0,37.8-53.1,68.5-118.6,68.5c-65.5,0-118.6-30.7-118.6-68.5
					C1690.9,565.5,1744,534.9,1809.5,534.9z"/>
				<path class="st9" d="M1809.5,534.9c35.7,0,67.8,9.1,89.5,23.6c0,0.3,0.1,0.5,0.1,0.8c0,4.6-6.4,8.3-14.3,8.3
					c-4.6,0-8.8-1.3-11.4-3.2l-145.8,65.8c3.1,1.5,5.1,3.8,5.1,6.4c0,4.6-6.4,8.3-14.3,8.3c-1.3,0-2.6-0.1-3.9-0.3
					c-14.9-11.4-23.7-25.7-23.7-41.1C1690.9,565.5,1744,534.9,1809.5,534.9z"/>
				<ellipse class="st0" cx="1809.5" cy="603.4" rx="96.5" ry="55.7"/>
				<ellipse class="st7" cx="1804.3" cy="596.9" rx="67" ry="38.7"/>
				<path class="st2" d="M1809.5,547.7c53.3,0,96.5,24.9,96.5,55.7c0,7.1-2.3,14-6.6,20.3c1.3-3.5,1.9-7.1,1.9-10.8
					c0-29.3-41.1-53-91.8-53c-50.7,0-91.8,23.7-91.8,53c0,3.7,0.7,7.3,1.9,10.8h0c-4.3-6.3-6.6-13.1-6.6-20.3
					C1713,572.6,1756.2,547.7,1809.5,547.7z"/>
				<g>
					<polygon class="st2" points="1780.5,580.9 1822.8,595.8 1848.2,620.5 1806,606.3 					"/>
					<polygon class="st10" points="1822.8,595.8 1848.2,620.5 1806,606.3 					"/>
				</g>
			</g>
			<path class="st2" d="M1761.2,580c-1.5-2.7-0.6-6.1,2-7.6c2.7-1.5,6.1-0.6,7.6,2c1.5,2.7,0.6,6.1-2,7.6S1762.7,582.7,1761.2,580z"
				/>
			<path class="st2" d="M1760,638.6c-1.5-2.7-0.6-6.1,2-7.6c2.7-1.5,6.1-0.6,7.6,2c1.5,2.7,0.6,6.1-2,7.6
				C1765,642.1,1761.6,641.2,1760,638.6z"/>
			<path class="st2" d="M1864.3,639.3c-1.5-2.7-0.6-6.1,2-7.6s6.1-0.6,7.6,2c1.5,2.7,0.6,6.1-2,7.6
				C1869.2,642.9,1865.8,642,1864.3,639.3z"/>
			<path class="st2" d="M1861.8,582.6c-1.5-2.7-0.6-6.1,2-7.6c2.7-1.5,6.1-0.6,7.6,2c1.5,2.7,0.6,6.1-2,7.6
				C1866.7,586.2,1863.3,585.3,1861.8,582.6z"/>
		</g>
	</g>
</g>
<g>
	<path class="st1" d="M1233.4,1142.6l6.2,81.6h100.3c4.4,0,8.2-1,12.1-3.2l473.6-273.4l-211.2-122L1233.4,1142.6z"/>
	<g>
		<path class="st5" d="M1068.5,763.9l-154.3,267.2c-3.3,5.7-1.3,13.1,4.4,16.5l308.6,178.2c3.8,2.2,8.1,2.2,11.8,0.2
			c0,0,0.1,0,0.1,0c0,0,0.1-0.1,0.1-0.1l519.1-301.4c0.6-0.3,1.2-0.7,1.7-1.2c4-3.3,5.4-8.4,3.7-13.2l-154.3-445.4
			c-1.6-4.6-5.4-7.6-10.2-8.1c-2.6-0.2-5.1,0.3-7.2,1.5l-519.1,301.4C1071.2,760.5,1069.6,762,1068.5,763.9z"/>
		<path class="st8" d="M1068.5,763.9L955.2,960.2l688.3-397.4l-34-98.2c-1.6-4.6-5.4-7.6-10.2-8.1c-2.6-0.2-5.1,0.3-7.2,1.5
			l-519.1,301.4C1071.2,760.5,1069.6,762,1068.5,763.9z"/>
		<path class="st9" d="M1068.5,763.9l-18.4,31.8c-2.3,34.1,20.2,69.1,52.8,79.2l428.6-247.5c13.3-42.6-18.8-93.1-63.7-97.3
			l-395,229.3C1071.2,760.5,1069.6,762,1068.5,763.9z"/>
		<path class="st11" d="M1068.5,763.9l-18.4,31.8v0c-0.1,1-0.1,2.1-0.1,3.1l0,0.1c-0.7,32,19.9,64,49.9,74.9l0.1,0c1,0.4,2,0.7,3,1
			l0,0l128.4-74.1c10.5-42.9-23.2-91.9-68.6-93.5l-89.9,52.2C1071.2,760.5,1069.6,762,1068.5,763.9z"/>
		<path class="st7" d="M1068.5,763.9l-154.3,267.2c-3.3,5.7-1.3,13.1,4.4,16.5l308.6,178.2c4.4,2.6,9.7,2.1,13.7-1.1
			c4-3.3,5.4-8.4,3.7-13.2L1090.4,766c-1.6-4.6-5.4-7.6-10.2-8.1C1075.3,757.5,1071,759.7,1068.5,763.9z"/>
		<path class="st0" d="M1222.7,1184.8l-135.1-389.9c-1.6-4.6-5.4-7.6-10.2-8.1c-4.8-0.5-9.2,1.8-11.6,6l-135.1,233.9
			c-3.3,5.7-1.3,13.1,4.4,16.5c90,52,180.1,104,270.1,156c4.4,2.6,9.7,2.1,13.7-1.1C1222.9,1194.8,1224.3,1189.7,1222.7,1184.8z"/>
		<path class="st1" d="M1128.9,914.2l-41.3-119.3c-1.6-4.6-5.4-7.6-10.2-8.1c-4.8-0.5-9.2,1.8-11.6,6l-135.1,233.9
			c-0.5,0.8-0.8,1.6-1.1,2.5L1128.9,914.2z"/>
		<path class="st7" d="M1155.8,867.1l26.7,77.1l64.3-37.2l-26.7-77L1155.8,867.1L1155.8,867.1z M1703.1,836.1l-64.3,37.2l27.1,78.3
			l64.3-37.1L1703.1,836.1L1703.1,836.1z M1636.4,874.8l27.1,78.2l-64.3,37.1l-27.1-78.1L1636.4,874.8L1636.4,874.8z M1569.6,913.5
			l-64.3,37.2l27,78l64.3-37.1L1569.6,913.5L1569.6,913.5z M1502.9,952.2l27,78l-64.3,37.1l-27-77.9L1502.9,952.2L1502.9,952.2z
			 M1436.1,990.9l-64.3,37.2l26.9,77.8l64.3-37.1L1436.1,990.9L1436.1,990.9z M1369.3,1029.5l26.9,77.8l-64.3,37.1l-26.9-77.6
			L1369.3,1029.5L1369.3,1029.5z M1302.6,1068.2l-64.3,37.2l26.9,77.5l64.3-37.1L1302.6,1068.2L1302.6,1068.2z M1237.4,1102.7
			l-26.4-76.3l64.2-37.3l26.4,76.4L1237.4,1102.7L1237.4,1102.7z M1304.1,1064l64.3-37.2l-26.5-76.4l-64.2,37.3L1304.1,1064
			L1304.1,1064z M1370.9,1025.4l-26.5-76.4l64.2-37.3l26.5,76.4L1370.9,1025.4L1370.9,1025.4z M1437.7,986.7l64.3-37.2l-26.5-76.4
			l-64.2,37.3L1437.7,986.7L1437.7,986.7z M1504.4,948l-26.5-76.4l64.2-37.3l26.5,76.5L1504.4,948L1504.4,948z M1571.2,909.3
			l64.3-37.2l-26.5-76.5l-64.2,37.3L1571.2,909.3L1571.2,909.3z M1637.9,870.6l-26.5-76.5l64.2-37.3l26.5,76.5L1637.9,870.6
			L1637.9,870.6z M1210,1023.7l-26.6-76.8l64.3-37.2l26.6,76.7L1210,1023.7L1210,1023.7z M1276.8,985l-26.6-76.7l64.3-37.2
			l26.6,76.7L1276.8,985L1276.8,985z M1343.5,946.2l64.2-37.3l-26.6-76.7l-64.3,37.2L1343.5,946.2L1343.5,946.2z M1410.2,907.5
			l-26.6-76.7l64.3-37.2l26.5,76.6L1410.2,907.5L1410.2,907.5z M1477,868.8l64.2-37.3l-26.5-76.6l-64.3,37.2L1477,868.8L1477,868.8z
			 M1543.7,830.1l-26.5-76.6l64.3-37.2l26.5,76.6L1543.7,830.1L1543.7,830.1z M1610.5,791.4l64.2-37.3l-26.5-76.5l-64.3,37.2
			L1610.5,791.4L1610.5,791.4z M1249.2,905.5l-26.7-77l64.3-37.1l26.6,76.8L1249.2,905.5L1249.2,905.5z M1316,866.8l-26.6-76.8
			l64.3-37.1l26.6,76.7L1316,866.8L1316,866.8z M1382.7,828.1l64.3-37.2l-26.5-76.6l-64.3,37.1L1382.7,828.1L1382.7,828.1z
			 M1449.5,789.4l-26.5-76.6l64.3-37.1l26.5,76.5L1449.5,789.4L1449.5,789.4z M1516.2,750.8l64.3-37.2l-26.5-76.4l-64.3,37.1
			L1516.2,750.8L1516.2,750.8z M1583,712.1l-26.5-76.4l64.3-37.1l26.4,76.2L1583,712.1L1583,712.1z M1263.1,1185.5l-110.7-319.7
			c156.7-90.4,313.4-180.9,470.1-271.4c37.1,107.1,74.2,214.2,111.3,321.3c-156.7,90.5-313.4,181-470.1,271.4L1263.1,1185.5z"/>
		<polygon class="st6" points="1248.4,907.6 1315.2,868.9 1342.8,948.6 1276,987.2 		"/>
		<polygon class="st7" points="1331.2,1146.5 1303.4,1066.1 1236.6,1104.8 1264.4,1185.1 		"/>
		<g>
			<g>
				<path class="st2" d="M1289.1,664.5c8.4,0,15.2,6.8,15.2,15.2c0,8.4-6.8,15.2-15.2,15.2c-8.4,0-15.2-6.8-15.2-15.2
					C1273.9,671.3,1280.7,664.5,1289.1,664.5z"/>
				<path class="st2" d="M1246.4,658.6c-2.3-4.2-4.2-8.6-5.5-13.2c-1.3-4.6-2-9.2-2-13.8c0-4,0.5-7.7,1.5-11.3
					c2.2-8.2,6.8-15,13.1-19.7c6.2-4.7,14-7.3,22.7-7.3v0c3.9,0,8,0.5,12.2,1.7c12.4,3.3,23.6,11.3,31.6,21.4
					c8.1,10.2,13.1,22.8,13.1,35.4c0,4-0.5,7.7-1.5,11.3c-2.2,8.2-6.8,15-13.1,19.7c-6.3,4.7-14.1,7.3-22.7,7.3
					c-3.9,0-8-0.5-12.2-1.7l4.8-18.1c2.6,0.7,5,1,7.4,1c4.5,0,8.5-1.2,11.5-3.5c3-2.2,5.2-5.5,6.3-9.6c0.5-1.9,0.8-4.1,0.8-6.5
					c0-8.3-3.5-16.8-9-23.8c-5.6-7.1-13.3-12.7-21.7-14.9c-2.6-0.7-5-1-7.4-1v0c-4.5,0-8.5,1.3-11.5,3.5c-3,2.2-5.2,5.5-6.3,9.6
					c-0.5,1.9-0.8,4.1-0.8,6.5c0,3,0.4,5.9,1.2,8.8c0.8,3.1,2.1,6.1,3.8,9.1L1246.4,658.6z"/>
			</g>
			<g>
				<path class="st2" d="M1419.6,588.9c8.4,0,15.2,6.8,15.2,15.2c0,8.4-6.8,15.2-15.2,15.2c-8.4,0-15.2-6.8-15.2-15.2
					C1404.4,595.7,1411.2,588.9,1419.6,588.9z"/>
				<path class="st2" d="M1376.8,582.9c-2.3-4.2-4.2-8.6-5.5-13.2c-1.3-4.6-2-9.2-2-13.8c0-4,0.5-7.7,1.5-11.3
					c2.2-8.2,6.8-15,13.2-19.7c6.2-4.7,14-7.3,22.7-7.3v0c3.9,0,8,0.5,12.2,1.7c12.4,3.3,23.6,11.3,31.6,21.4
					c8.1,10.2,13.1,22.8,13.1,35.4c0,4-0.5,7.7-1.5,11.3c-2.2,8.2-6.8,15-13.2,19.7c-6.3,4.7-14.1,7.3-22.7,7.3
					c-3.9,0-8-0.5-12.2-1.7l4.8-18.1c2.6,0.7,5,1,7.4,1c4.5,0,8.5-1.2,11.5-3.5c3-2.2,5.2-5.5,6.3-9.6c0.5-1.9,0.8-4.1,0.8-6.5
					c0-8.3-3.5-16.8-9-23.8c-5.6-7.1-13.3-12.7-21.7-14.9c-2.6-0.7-5-1-7.4-1v0c-4.5,0-8.5,1.3-11.5,3.5c-3,2.2-5.2,5.5-6.3,9.6
					c-0.5,1.9-0.8,4.1-0.8,6.5c0,3,0.4,5.9,1.2,8.8c0.9,3.1,2.1,6.1,3.8,9.1L1376.8,582.9z"/>
			</g>
			<g>
				<path class="st2" d="M1158.7,740.1c8.4,0,15.2,6.8,15.2,15.2c0,8.4-6.8,15.2-15.2,15.2c-8.4,0-15.2-6.8-15.2-15.2
					C1143.5,746.9,1150.3,740.1,1158.7,740.1z"/>
				<path class="st2" d="M1115.9,734.2c-2.3-4.2-4.2-8.6-5.5-13.3c-1.3-4.6-2-9.2-2-13.8c0-4,0.5-7.7,1.5-11.3
					c2.2-8.2,6.8-15,13.1-19.7c6.2-4.7,14-7.3,22.7-7.3v0c3.9,0,8,0.5,12.2,1.7c12.4,3.3,23.6,11.3,31.6,21.5
					c8.1,10.2,13.1,22.8,13.1,35.4c0,4-0.5,7.7-1.5,11.3c-2.2,8.2-6.8,15-13.1,19.7c-6.3,4.7-14.1,7.3-22.7,7.3
					c-3.9,0-8-0.5-12.2-1.7l4.8-18.1c2.6,0.7,5,1,7.4,1c4.5,0,8.5-1.2,11.5-3.5c3-2.2,5.2-5.5,6.3-9.6c0.5-1.9,0.8-4.1,0.8-6.5
					c0-8.3-3.5-16.8-9-23.8c-5.6-7.1-13.3-12.7-21.7-14.9c-2.6-0.7-5-1-7.4-1v0c-4.5,0-8.5,1.3-11.5,3.5c-3,2.2-5.2,5.5-6.3,9.6
					c-0.5,1.9-0.8,4.1-0.8,6.5c0,3,0.4,5.9,1.2,8.8c0.8,3.1,2.1,6.1,3.8,9.1L1115.9,734.2z"/>
			</g>
			<g>
				<path class="st2" d="M1550,513.2c8.4,0,15.2,6.8,15.2,15.2c0,8.4-6.8,15.2-15.2,15.2c-8.4,0-15.2-6.8-15.2-15.2
					C1534.8,520.1,1541.6,513.2,1550,513.2z"/>
				<path class="st2" d="M1507.2,507.3c-2.3-4.2-4.2-8.6-5.5-13.2c-1.3-4.6-1.9-9.2-1.9-13.8c0-4,0.5-7.7,1.5-11.3
					c2.2-8.2,6.8-15,13.1-19.7c6.2-4.7,14-7.3,22.7-7.3v0c3.9,0,8,0.5,12.2,1.7c12.4,3.3,23.6,11.3,31.6,21.5
					c8.1,10.2,13.1,22.8,13.1,35.4c0,4-0.5,7.7-1.5,11.3c-2.2,8.2-6.8,15-13.1,19.7c-6.3,4.7-14.1,7.3-22.7,7.3
					c-3.9,0-8-0.5-12.2-1.7l4.8-18.1c2.6,0.7,5,1,7.4,1c4.5,0,8.5-1.2,11.5-3.5c3-2.2,5.2-5.5,6.3-9.6c0.5-1.9,0.8-4.1,0.8-6.5
					c0-8.3-3.5-16.8-9-23.8c-5.6-7.1-13.3-12.7-21.7-14.9c-2.6-0.7-5-1-7.4-1v0c-4.5,0-8.5,1.3-11.5,3.5c-3,2.2-5.2,5.5-6.3,9.6
					c-0.5,1.9-0.8,4.1-0.8,6.5c0,3,0.4,5.9,1.2,8.8c0.8,3.1,2.1,6.1,3.8,9.1L1507.2,507.3z"/>
			</g>
		</g>
		<polygon class="st7" points="1515.5,753 1542.9,832.2 1610,794.4 1582.2,714.2 		"/>
		<g>
			<path class="st8" d="M1653.9,454c8.7,0,15.8,7.1,15.8,15.8s-7.1,15.8-15.8,15.8c-8.7,0-15.8-7.1-15.8-15.8S1645.2,454,1653.9,454
				z"/>
			<circle class="st8" cx="1606.1" cy="416.7" r="9.4"/>
		</g>
		<polygon class="st7" points="1476.4,871.5 1543.2,832.9 1570.4,911.4 1503.6,950.1 		"/>
	</g>
</g>
<g>
	<path class="st1" d="M1511,1240.4c79.4,0,143.7,26.6,143.7,59.4c0,32.8-64.3,59.4-143.7,59.4c-79.3,0-143.7-26.6-143.7-59.4
		C1367.3,1267,1431.6,1240.4,1511,1240.4z"/>
	<g>
		<g>
			<path class="st12" d="M1429.5,884.8l1.5-18.1c0,0-13.1-7.1-26.7-1.7c0,0,2.1,11.6,5.8,19.5c8.8-4.4,19.4,0.1,19.4,0.1
				L1429.5,884.8z"/>
			<path class="st13" d="M1430.9,866.7l1.7-15.8c0,0-3.9-2.4-6-0.7c-2,1.7-2.2,4.6-2.2,4.6s-12-2.7-20.2,10.2
				C1417.8,859.6,1430.9,866.7,1430.9,866.7z"/>
			<path class="st12" d="M1430.9,959.1c0,0,5.9-14.7,4.5-25.2c-1.3-10.5-6-49.3-6-49.3s-9.7-4.9-19.4-0.1c0,0-13.3,56.9-6.5,70.5
				C1410.3,968.6,1426.7,965.8,1430.9,959.1z"/>
		</g>
		<path class="st2" d="M1555,1269.3c0,0,6.1,2,8.2,11.7c2.1,9.7,0.5,18.1,0.5,18.1s-13.4,18.7-41.2,9.8c-35.6-11.4-42-26.4-42-26.4
			s-6.7-24.9,23.9-25.6C1535,1256.2,1555,1269.3,1555,1269.3z"/>
		<path class="st2" d="M1538.8,1259.3c12.4,0.9,22.5,6.9,22.5,13.5c0,6.6-10.1,11.3-22.5,10.4c-12.4-0.9-22.5-6.9-22.5-13.5
			C1516.3,1263.1,1526.4,1258.4,1538.8,1259.3z"/>
		<path class="st2" d="M1459.7,1284.6c0,0,6.1,2,8.2,11.7c2.1,9.7,0.5,18.1,0.5,18.1s-13.4,18.7-41.2,9.8
			c-35.6-11.4-42-26.4-42-26.4s-6.7-24.9,23.9-25.6C1439.6,1271.5,1459.7,1284.6,1459.7,1284.6z"/>
		<path class="st2" d="M1441,1274.6c13.8,0.9,25,6.9,25,13.5c0,6.6-11.2,11.3-25,10.4c-13.8-0.9-25-6.9-25-13.5
			C1416,1278.4,1427.2,1273.7,1441,1274.6z"/>
		<path class="st12" d="M1573.4,837.3c0,0,37.5,83.6,1.7,109.6C1578.2,913.4,1580,870.3,1573.4,837.3z"/>
		<path class="st0" d="M1542.4,900.9c-2-18.8-3.6-68.8,17-71.2c22.8-2.6,33.7,32.4,33.1,72.4
			C1592.2,922.3,1544.3,919.4,1542.4,900.9z"/>
		<path class="st13" d="M1454.8,727.9c0,0-8,42.3,8.3,68.1l19.4-3l0.8,25.8c0,0,18.1,14,43.8,0v-28.4c-10.5-2.8-18.1-2-27.9,0.7
			c-5.3-9.3-6.9-17-6.9-27c11.9,2.4,19.2-5.5,16.3-15.4c-2.4-8.2-17.3-11.8-20,0.4h-4c-3-2.6-7.9-13.4-7.8-15.4
			C1468.3,733.5,1454.8,727.9,1454.8,727.9z"/>
		<path class="st14" d="M1483.1,809l0.3,9.8c0,0,18.1,14,43.8,0v-12.6C1519.6,810.5,1505.3,815.1,1483.1,809z"/>
		<polygon class="st12" points="1482.6,793 1482.9,803.5 1494.3,791.3 		"/>
		<path class="st7" d="M1483.1,810.2l-47,28.8c0,0,10.4,135.4,8,175.1c0,0,84,27,124.1-14.4c0,0,17.7-99.5,5.2-162.4
			c0,0-31.4-22.4-46.2-26.5C1505.7,823,1483.1,810.2,1483.1,810.2z"/>
		<path class="st2" d="M1568.2,999.7c0,0-14.5,158.3-7.8,259.4c-5.2,3.7-20.4,12.1-41.6,3.6c-4.7-33.7-16.2-124.6-15.1-214.1
			c0.1-9.8,0.6-18.4,1.5-26C1527.7,1022.2,1551.7,1016.8,1568.2,999.7z"/>
		<path class="st12" d="M1557.8,1260.8c0.1,2.3,0.3,4.6,0.5,6.9c1.2,13.1-31.7,16.3-32.7,4.3c0,0-0.3-3.3-0.7-7.3
			C1540.2,1268.9,1551.8,1264.3,1557.8,1260.8z"/>
		<path class="st3" d="M1444.1,1014.1c0,0-33.4,102.4-22.6,262.1c6.4,7.6,32.7,12.7,41-4c0,0,2-124.8,40.3-206.4
			c0,0,15-15.7,22.2-44.9C1486.1,1027.6,1444.1,1014.1,1444.1,1014.1z"/>
		<path class="st2" d="M1420.1,1174.6c-1.3,30.4-1.2,64.5,1.3,101.6c6.4,7.6,32.7,12.7,41-4c0,0,0.5-27.8,5-65.7
			C1454,1234.3,1421.9,1205.2,1420.1,1174.6z"/>
		<path class="st2" d="M1444.1,1014.1l-0.1,2.4c5.9,3,14.7,6.7,26.3,10c-10.4,23.9-44.7,114.9-30.3,246.7
			c-10.7,0.4-16.9-3.8-16.9-3.9l-0.9,1.3c0,0,15,10.3,38.7-1.7l-0.7-1.4c-7.1,3.6-13.3,5.1-18.6,5.6
			c-14.5-131.9,20-222.7,30.2-246.2c13,3.6,29.4,6.5,49,7.2c1.5-4.1,2.9-8.5,4.1-13.3c-17.8,3.1-36.2,1.9-51-0.2l-0.7-0.3l-0.1,0.2
			C1456.1,1018,1444.1,1014.1,1444.1,1014.1z"/>
		<path class="st13" d="M1459.7,1275.9v10.1c0,12.2-36,8.5-36,0v-7.7C1432.7,1283.6,1450.8,1286.4,1459.7,1275.9z"/>
		<path class="st0" d="M1437.2,853.4c1.9,26.2,5.7,82.8,6.9,123.9c36.7-49.3,23.2-119.8,23.2-119.8l-19.9-0.5
			C1443.8,855.6,1440.5,854.4,1437.2,853.4z"/>
		<path class="st13" d="M1467.5,872c0,0,4.6-37.6-22.2-38.2c-20.6-0.4-23.3,54.8-30.8,89.7l0,0l0,0c-0.8,3.7-1.6,7.2-2.6,10.3
			c-2,11-2.4,27.6,11.1,32.5c1.3,0.3,2.6,0.5,4,0.7C1449.1,969.5,1466,898.4,1467.5,872z"/>
		<path class="st12" d="M1467.5,872c0,0,4.6-37.6-22.2-38.2c-18.2-0.4-22.4,42.6-28.3,76.8c4.4,8,14.7,21.3,36.2,24.7
			C1461.4,913.6,1466.7,886.3,1467.5,872z"/>
		<path class="st7" d="M1414.7,897.7c2.3-18.8,11.9-67.9,32.6-65.5c22.8,2.6,25.5,39.1,16,78
			C1458.4,929.8,1412.4,916.2,1414.7,897.7z"/>
		<path class="st2" d="M1527.2,790.4c0,0,39.1-67.1,13.1-72.8c23-37.1-49.3-53.7-69.5-33.3c-33.7-18.2-46.3,38.9-16,43.8l0-0.2
			c3.1,1.2,14.5,5.6,22,5.8c0,0.1,0,0.3,0.1,0.5c0.2,1.8,0.9,8.4,2,16c4.2,0.2,7.9-0.2,11.6-0.8l-0.1-4.3c4.7-7.2,16.3-3.6,18.4,3.6
			c2.9,9.9-4.4,17.8-16.3,15.4c0,10,1.6,17.8,6.9,27C1509.1,788.5,1516.7,787.6,1527.2,790.4z"/>
		<path class="st12" d="M1453.9,734.4c0.4-3.5,0.7-5.7,0.8-6.3c0-0.1,0-0.2,0-0.2s3.4,1.4,7.8,2.8c4.1,1.3,9.1,2.6,13.1,2.9
			c0.3,0,0.7,0,1,0c0,0.1,0,0.3,0.1,0.5c0.2,1.8,0.9,8.4,2,16c-4.7-5.4-5.1-13.5-5.1-13.5C1467.5,737.3,1457.9,736.1,1453.9,734.4z"
			/>
	</g>
</g>
<g>
	<ellipse class="st1" cx="2158.7" cy="1094" rx="132.6" ry="56.1"/>
	<polygon class="st3" points="1982.7,681.1 2057.7,649.9 2074.3,774.6 2007.3,802.5 	"/>
	<path class="st7" d="M1990.4,681.3l60.3-24.1c0,0,15.1,94.3,25.4,112l-57.1,22.7C2019.1,791.8,1988.4,723.5,1990.4,681.3z"/>
	<path class="st2" d="M2211.7,1067.4c0,0,6.1,2,8.2,11.7c2.1,9.7,0.5,18.1,0.5,18.1s-13.4,18.7-41.2,9.8c-35.6-11.4-42-26.4-42-26.4
		s-6.7-24.9,23.9-25.6C2191.7,1054.3,2211.7,1067.4,2211.7,1067.4z"/>
	<path class="st2" d="M2195.5,1057.4c12.4,0.9,22.5,6.9,22.5,13.5c0,6.6-10.1,11.3-22.5,10.4c-12.4-0.9-22.5-6.9-22.5-13.5
		C2173,1061.2,2183.1,1056.6,2195.5,1057.4z"/>
	<path class="st2" d="M2116.4,1082.7c0,0,6.1,2,8.2,11.7c2.1,9.7,0.5,18.1,0.5,18.1s-13.4,18.7-41.2,9.8c-35.6-11.4-42-26.4-42-26.4
		s-6.7-24.9,23.9-25.6C2096.4,1069.6,2116.4,1082.7,2116.4,1082.7z"/>
	<path class="st2" d="M2097.7,1072.7c13.8,0.9,25,6.9,25,13.5s-11.2,11.3-25,10.4c-13.8-0.9-25-6.9-25-13.5
		S2083.9,1071.9,2097.7,1072.7z"/>
	<path class="st12" d="M2230.1,635.5c0,0,37.5,83.6,1.7,109.6C2234.9,711.5,2236.7,668.5,2230.1,635.5z"/>
	<path class="st1" d="M2199.1,699c-2-18.8-3.6-68.8,17-71.2c22.8-2.6,33.7,32.4,33.1,72.4C2248.9,720.4,2201.1,717.5,2199.1,699z"/>
	<path class="st13" d="M2111.5,526.1c0,0-8,42.3,8.3,68.1l19.4-3l0.8,25.8c0,0,18.1,14,43.8,0v-28.4c-10.5-2.8-18.1-2-27.9,0.7
		c-5.3-9.3-6.9-17-6.9-27c11.9,2.4,19.2-5.5,16.3-15.4c-2.4-8.2-17.3-11.8-20,0.4h-4c-3-2.6-7.9-13.4-7.8-15.4
		C2125.1,531.7,2111.5,526.1,2111.5,526.1z"/>
	<path class="st12" d="M2139.8,607.2l0.3,9.8c0,0,18.1,14,43.8,0v-12.6C2176.4,608.6,2162,613.2,2139.8,607.2z"/>
	<polygon class="st12" points="2139.3,591.2 2139.6,601.6 2151,589.5 	"/>
	<path class="st7" d="M2139.8,608.3l-47,28.8c0,0,10.4,135.4,8,175.1c0,0,84,27,124.1-14.4c0,0,17.7-99.5,5.2-162.4
		c0,0-31.4-22.4-46.2-26.5C2162.4,621.2,2139.8,608.3,2139.8,608.3z"/>
	<path class="st2" d="M2224.9,797.9c0,0-14.5,158.3-7.8,259.4c-5.2,3.7-20.4,12.1-41.6,3.6c-4.7-33.7-16.2-124.6-15.1-214.1
		c0.1-9.8,0.6-18.4,1.5-25.9C2184.4,820.4,2208.4,814.9,2224.9,797.9z"/>
	<path class="st12" d="M2214.5,1058.9c0.1,2.3,0.3,4.6,0.5,6.9c1.2,13.1-31.7,16.3-32.7,4.3c0,0-0.3-3.3-0.7-7.3
		C2197,1067.1,2208.5,1062.5,2214.5,1058.9z"/>
	<path class="st3" d="M2100.8,812.3c0,0-33.4,102.4-22.6,262.1c6.4,7.6,32.7,12.7,41-4c0,0,2-124.8,40.3-206.4
		c0,0,15-15.7,22.2-44.9C2142.9,825.8,2100.8,812.3,2100.8,812.3z"/>
	<path class="st2" d="M2077.6,959.1c-2,33.7-2.3,72.4,0.6,115.2c6.4,7.6,32.7,12.7,41-4c0,0,0.7-41.9,8.7-93.1
		C2100.1,996.2,2084.8,975.4,2077.6,959.1z"/>
	<path class="st2" d="M2100.8,812.3l-0.1,2.4c5.9,3,14.7,6.7,26.3,10c-10.4,23.9-44.7,114.9-30.3,246.7c-10.7,0.4-16.9-3.8-16.9-3.9
		l-0.9,1.3c0,0,15,10.3,38.7-1.7l-0.7-1.4c-7.1,3.6-13.3,5.1-18.6,5.6c-14.5-131.9,20-222.7,30.2-246.2c13,3.6,29.4,6.5,49,7.2
		c1.5-4.1,2.9-8.5,4.1-13.3c-17.8,3.1-36.2,1.9-51-0.2l-0.7-0.3l-0.1,0.2C2112.8,816.1,2100.8,812.3,2100.8,812.3z"/>
	<path class="st13" d="M2116.4,1074v10.1c0,12.2-36,8.5-36,0v-7.7C2089.4,1081.7,2107.6,1084.6,2116.4,1074z"/>
	<path class="st1" d="M2093.9,651.5c1.9,26.2,5.7,82.8,6.9,123.9c36.7-49.3,23.2-119.8,23.2-119.8l-19.9-0.5
		C2100.6,653.8,2097.2,652.6,2093.9,651.5z"/>
	<path class="st13" d="M2124.3,670.2c0,0,4.6-37.6-22.2-38.2c-20.6-0.4-23.3,54.8-30.8,89.7l0,0l0,0c-0.8,3.7-1.6,7.2-2.6,10.3
		c-2,11-2.4,27.6,11.1,32.5c1.3,0.3,2.6,0.5,4,0.7C2105.9,767.6,2122.7,696.6,2124.3,670.2z"/>
	<path class="st12" d="M2124.3,670.2c0,0,4.6-37.6-22.2-38.2c-18.2-0.4-22.4,42.6-28.3,76.8c4.4,8,14.7,21.3,36.2,24.7
		C2118.1,711.8,2123.4,684.4,2124.3,670.2z"/>
	<path class="st7" d="M2071.4,695.9c2.3-18.8,11.9-67.9,32.6-65.5c22.8,2.6,25.5,39.1,16,78C2115.1,728,2069.2,714.4,2071.4,695.9z"
		/>
	<path class="st2" d="M2183.9,588.6c0,0,39.1-67.1,13.1-72.8c20.9-29.9-44.6-58.1-79.9-27.5c0,0,0.1-4.9,4.9-11.4
		c-23.4-2.2-39.2,36.8-10.5,49.4l0-0.2c3.1,1.2,14.5,5.6,22,5.8c0,0.1,0,0.3,0.1,0.5c0.2,1.8,0.9,8.4,2,16c4.2,0.2,7.9-0.2,11.6-0.8
		l-0.1-4.3c4.7-7.2,16.3-3.6,18.4,3.6c2.9,9.9-4.4,17.8-16.3,15.4c0,10,1.6,17.8,6.9,27C2165.8,586.7,2173.4,585.8,2183.9,588.6z"/>
	<path class="st12" d="M2110.7,532.6c0.4-3.4,0.7-5.7,0.8-6.3c0-0.1,0-0.2,0-0.2s3.4,1.4,7.8,2.8c4.1,1.3,9.1,2.6,13.1,2.9
		c0.3,0,0.7,0,1,0c0,0.1,0,0.3,0.1,0.5c0.2,1.8,0.9,8.4,2,16c-4.7-5.4-5.1-13.5-5.1-13.5C2124.2,535.5,2114.6,534.3,2110.7,532.6z"
		/>
	<path class="st2" d="M2000.1,670.6l2.4,9.1c0.2,0.7,0.6,1.2,1.2,1.5c0.6,0.3,1.3,0.4,2,0.1l31.2-11.9c1.1-0.4,1.8-1.6,1.5-2.8
		l-2.4-10c-0.2-0.7-0.6-1.2-1.2-1.6c-0.6-0.3-1.3-0.4-2-0.1l-9.1,3.7c-1.2-2.6-3.8-4.4-6.8-4.4c-4.1,0-7.4,3.4-7.4,7.5
		c0,0.9,0.1,1.7,0.4,2.5l-8.3,3.5C2000.3,668.2,1999.8,669.4,2000.1,670.6z"/>
	<path class="st2" d="M2002.1,690.5c0.2-0.1,0.5-0.1,0.7-0.1c1.3-0.2,2.5,0.1,3.5,0.8c1,0.7,1.7,1.7,2.1,2.9
		c0.1,0.2,0.1,0.5,0.2,0.7c0.2,1.6-0.2,3.2-1,4.5c-0.8,1.3-2.1,2.3-3.6,2.7c-0.2,0.1-0.5,0.1-0.7,0.1c-1.3,0.2-2.5-0.1-3.5-0.8
		c-1-0.7-1.7-1.7-2.1-2.9c-0.1-0.2-0.1-0.5-0.2-0.7c-0.2-1.6,0.2-3.2,1-4.5C1999.3,691.9,2000.6,690.9,2002.1,690.5L2002.1,690.5z
		 M2010.3,724.8c0.3-0.1,0.5-0.1,0.8-0.2c1.3-0.2,2.5,0.1,3.4,0.8c1,0.6,1.7,1.6,2,2.9c0.1,0.2,0.1,0.5,0.2,0.8
		c0.2,1.6-0.2,3.2-1.1,4.5c-0.9,1.3-2.1,2.3-3.7,2.7c-0.3,0.1-0.5,0.1-0.8,0.2c-1.3,0.2-2.5-0.1-3.4-0.8c-1-0.6-1.7-1.6-2-2.9
		c-0.1-0.2-0.1-0.5-0.2-0.8c-0.2-1.6,0.2-3.2,1.1-4.5C2007.5,726.3,2008.8,725.3,2010.3,724.8L2010.3,724.8z M2011.3,725.8
		c-0.2,0-0.4,0.1-0.6,0.1c-1.2,0.3-2.3,1.2-3,2.3c-0.7,1.1-1.1,2.4-0.9,3.7c0,0.2,0.1,0.4,0.1,0.6c0.3,1,0.8,1.7,1.6,2.2
		c0.7,0.5,1.7,0.7,2.7,0.6c0.2,0,0.4-0.1,0.6-0.1c1.2-0.3,2.3-1.2,3-2.3c0.7-1.1,1.1-2.4,0.9-3.7c0-0.2-0.1-0.4-0.1-0.6
		c-0.3-1-0.8-1.7-1.6-2.2C2013.2,725.9,2012.2,725.7,2011.3,725.8L2011.3,725.8z M2006.2,707.7c0.3-0.1,0.5-0.1,0.8-0.2
		c1.3-0.2,2.5,0.1,3.4,0.8c1,0.6,1.7,1.6,2,2.9c0.1,0.2,0.1,0.5,0.2,0.8c0.2,1.6-0.2,3.2-1.1,4.5c-0.9,1.3-2.1,2.3-3.7,2.7
		c-0.3,0.1-0.5,0.1-0.8,0.2c-1.3,0.2-2.5-0.1-3.4-0.8c-1-0.6-1.7-1.6-2-2.9c-0.1-0.2-0.1-0.5-0.2-0.8c-0.2-1.6,0.2-3.2,1.1-4.5
		C2003.4,709.1,2004.7,708.1,2006.2,707.7L2006.2,707.7z M2007.2,708.6c-0.2,0-0.4,0.1-0.6,0.1c-1.2,0.3-2.3,1.2-3,2.3
		c-0.7,1.1-1.1,2.4-0.9,3.7c0,0.2,0.1,0.4,0.1,0.6c0.3,1,0.8,1.7,1.6,2.2c0.7,0.5,1.7,0.7,2.7,0.6c0.2,0,0.4-0.1,0.6-0.1
		c1.2-0.3,2.3-1.2,3-2.3c0.7-1.1,1.1-2.4,0.9-3.7c0-0.2-0.1-0.4-0.1-0.6c-0.3-1-0.8-1.7-1.6-2.2
		C2009.1,708.7,2008.1,708.5,2007.2,708.6L2007.2,708.6z M2002.9,691.4c-0.2,0-0.4,0.1-0.6,0.1c-1.2,0.3-2.3,1.2-3,2.3
		c-0.7,1.1-1,2.4-0.8,3.7c0,0.2,0.1,0.4,0.1,0.6c0.3,1,0.9,1.8,1.6,2.3c0.8,0.5,1.7,0.7,2.7,0.6c0.2,0,0.4-0.1,0.6-0.1
		c1.2-0.3,2.3-1.2,3-2.3c0.7-1.1,1-2.4,0.8-3.7c0-0.2-0.1-0.4-0.1-0.6c-0.3-1-0.9-1.8-1.6-2.3
		C2004.9,691.5,2003.9,691.3,2002.9,691.4z"/>
	<path class="st13" d="M2016.1,730.3l-17.7-4.1c0,0-9,11.9-5.6,26.1c0,0,11.8-0.4,20.2-2.8c-3-9.3,3-19.2,3-19.2L2016.1,730.3z"/>
	<path class="st12" d="M1998.4,726.1l-15.4-4c0,0-3,3.5-1.6,5.8c1.4,2.3,4.2,2.9,4.2,2.9s-4.5,11.5,7.1,21.5
		C1989.4,738,1998.4,726.1,1998.4,726.1z"/>
	<path class="st13" d="M2089.8,739.9c0,0-13.7-8-24.2-8.3c-10.6-0.3-49.7-1.4-49.7-1.4s-6.3,8.9-3,19.2c0,0,54.3,21.7,68.7,17
		C2096.1,761.7,2095.7,745.1,2089.8,739.9z"/>
	
		<rect x="2012.4" y="682.3" transform="matrix(0.9313 -0.3641 0.3641 0.9313 -109.889 784.6063)" class="st2" width="26.9" height="2.8"/>
	
		<rect x="2014.9" y="690" transform="matrix(0.9314 -0.3641 0.3641 0.9314 -112.8505 784.33)" class="st2" width="17.6" height="2.8"/>
	
		<rect x="2017.3" y="703" transform="matrix(0.9314 -0.3641 0.3641 0.9314 -117.5612 785.3047)" class="st2" width="13.4" height="2.8"/>
	<polygon class="st2" points="2019.4,711.6 2044,702.1 2045,704.7 2020.4,714.2 	"/>
	
		<rect x="2021.9" y="719.1" transform="matrix(0.9375 -0.348 0.348 0.9375 -123.7603 751.9738)" class="st2" width="19.5" height="2.8"/>
</g>
<g>
	<g>
		<path class="st2" d="M875.8,751.4c13.3-7.2,25.8-2.2,28.1,11.3c2.3,13.5-6.7,30.3-19.9,37.6c-13.3,7.2-25.8,2.2-28.1-11.3
			C853.6,775.5,862.5,758.7,875.8,751.4z"/>
		<path class="st7" d="M877,763.2c5.5-3,10.7-0.9,11.6,4.7c0.9,5.6-2.7,12.5-8.2,15.5c-5.5,3-10.7,0.9-11.6-4.7
			C867.8,773.2,871.5,766.2,877,763.2L877,763.2z M898.5,786.1c-4.6-2.8-11-2.8-17.5,0.8c-6.2,3.4-11.4,9.3-14.4,15.8
			c5,1.7,11.1,1,17.4-2.4C889.9,797.1,894.9,792,898.5,786.1z"/>
	</g>
	<path class="st2" d="M913.8,743.3l29.7-17.2v6.5l-29.7,17.2V743.3L913.8,743.3z M913.8,754v6.5l16.2-9.4v-6.5L913.8,754z"/>
</g>
<g>
	<path class="st1" d="M873.2,1186.4c30.1,0,54.4,14.1,54.4,31.4c0,17.4-24.4,31.4-54.4,31.4c-30.1,0-54.4-14.1-54.4-31.4
		C818.8,1200.5,843.1,1186.4,873.2,1186.4z"/>
	<g>
		<path class="st7" d="M906.8,1184.9l0,0.4l0,0.2c0,0.2,0,0.4,0,0.5l0,0.2c0,0.2,0,0.5,0,0.7v12.9c0,17.4-24.4,31.4-54.4,31.4
			c-30.1,0-54.4-14.1-54.4-31.4V1187c0-0.3,0-0.5,0-0.8l0-0.3c0-0.2,0-0.4,0-0.5c0-0.1,0-0.2,0-0.3l0-0.1c-0.1-0.7-0.1-1.4-0.1-2
			v-12.9c0-0.7,0-1.4,0.1-2.1c-0.1-0.7-0.1-1.3-0.1-2v-12.9c0-0.7,0-1.4,0.1-2.1c-0.1-0.7-0.1-1.3-0.1-2v-12.9c0-0.7,0-1.4,0.1-2.1
			c-0.1-0.7-0.1-1.3-0.1-2v-12.9c0-17.4,24.4-31.4,54.4-31.4c30.1,0,54.4,14.1,54.4,31.4v12.9c0,0.7,0,1.4-0.1,2
			c0.1,0.7,0.1,1.4,0.1,2.1v12.9c0,0.7,0,1.4-0.1,2c0.1,0.7,0.1,1.4,0.1,2.1v12.9c0,0.7,0,1.4-0.1,2c0.1,0.7,0.1,1.4,0.1,2.1v12.9
			C906.9,1183.5,906.8,1184.2,906.8,1184.9z"/>
		<g>
			<g>
				<path class="st15" d="M858.9,1162.8c30.1,0,54.4,14.1,54.4,31.4v12.9c0,17.4-24.4,31.4-54.4,31.4c-30.1,0-54.4-14.1-54.4-31.4
					v-12.9C804.5,1176.9,828.9,1162.8,858.9,1162.8z"/>
				<path class="st16" d="M858.9,1162.8c30.1,0,54.4,14.1,54.4,31.4c0,17.4-24.4,31.4-54.4,31.4c-30.1,0-54.4-14.1-54.4-31.4
					C804.5,1176.9,828.9,1162.8,858.9,1162.8z"/>
				<path class="st16" d="M858.9,1169.1c24,0,43.5,11.3,43.5,25.1c0,13.9-19.5,25.1-43.5,25.1c-24,0-43.5-11.3-43.5-25.1
					C815.4,1180.4,834.9,1169.1,858.9,1169.1z"/>
				<path class="st16" d="M858.9,1169.1c24,0,43.5,11.3,43.5,25.1c0,0.6,0,1.1-0.1,1.7c-1.5-13.1-20.4-23.5-43.4-23.5
					c-23.1,0-42,10.4-43.4,23.5c-0.1-0.5-0.1-1.1-0.1-1.7C815.4,1180.4,834.9,1169.1,858.9,1169.1z"/>
				<path class="st16" d="M848.6,1185.3v3.3c0,1,0.5,2.1,1.4,3c2.4,2.6,5.5,4.3,8.2,6.5c0.1,0.1,0.1,0.1,0.2,0.2
					c-0.7,0.3-1.6,0.5-2.6,0.5c-1.1,0-2.4-0.1-3.9-0.5c-2.9-0.6-7.2-3-9.4-5.1c-1.1-1.1-1.9-2.1-2.4-3.2l-8.3,1.8v3.3
					c0.4,1.1,1.4,2.4,3,3.8c0.9,0.7,1.8,1.5,2.9,2.1l-2,1.1v3.3l5,2.2l5.1-2.8c4.2,1.4,8.2,2.1,12,2c3.8-0.1,6.9-0.8,9.4-2.2
					c2-1.1,3-2.2,3.2-3.4c0-0.1,0-0.2,0-0.4v-3.3c0-1-0.5-2-1.4-3c-1-1.1-2.4-2.2-4.3-3.6c-1.2-0.8-3.9-2.9-3.9-2.9
					c-0.1-0.1-0.2-0.2-0.3-0.2c0.7-0.3,1.6-0.5,2.6-0.6c3.2-0.2,7.1,1.2,10.2,3.2c1.8,1.2,3.4,2.7,4.5,4.2l8.1-2v-3.3
					c-0.8-1.5-2.3-2.9-4.6-4.4l2-1.1v-3.3l-5-2.2l-5,2.8c-4.2-1.5-8.2-2.2-12.1-2.1c-3.8,0.1-7,0.8-9.5,2.2c-2,1.1-3.1,2.3-3.2,3.4
					C848.6,1185.1,848.6,1185.2,848.6,1185.3z"/>
				<path class="st16" d="M867.3,1201.4c-2.5,1.4-5.6,2.1-9.4,2.2c-3.8,0.1-7.8-0.6-12-2l-5.1,2.8l-5-2.2l4.9-2.7
					c-2.4-1.2-4.3-2.4-5.9-3.8c-1.6-1.4-2.6-2.6-3-3.8l8.3-1.8c0.4,1,1.2,2.1,2.4,3.2c2.2,2.1,6.5,4.5,9.4,5.1
					c1.5,0.4,2.7,0.6,3.9,0.5c1.1,0,2.1-0.3,2.9-0.7c0.8-0.4,1.1-0.9,0.9-1.4c-0.1-0.5-0.6-1.2-1.4-1.9c-2.7-2.2-5.8-3.9-8.2-6.5
					c-1-1.1-1.5-2.2-1.3-3.4c0.1-1.2,1.2-2.3,3.2-3.4c2.5-1.4,5.7-2.1,9.5-2.2c3.8-0.1,7.9,0.6,12.1,2.1l5-2.8l5,2.2l-4.9,2.7
					c3.8,2,6.3,4,7.5,6.1l-8.1,2c-1-1.5-2.6-3-4.5-4.2c-3.1-2-7-3.4-10.2-3.2c-1.2,0.1-2.2,0.3-3,0.7c-0.8,0.4-1.1,0.9-0.9,1.5
					c0.2,0.6,0.7,1.2,1.5,1.9c0,0,2.7,2,3.9,2.9c1.9,1.3,3.3,2.5,4.3,3.6c1,1.1,1.5,2.2,1.3,3.3
					C870.4,1199.2,869.3,1200.3,867.3,1201.4z"/>
			</g>
			<g>
				<path class="st15" d="M858.9,1145.8c30.1,0,54.4,14.1,54.4,31.4v12.9c0,17.4-24.4,31.4-54.4,31.4c-30.1,0-54.4-14.1-54.4-31.4
					v-12.9C804.5,1159.9,828.9,1145.8,858.9,1145.8z"/>
				<path class="st16" d="M858.9,1145.8c30.1,0,54.4,14.1,54.4,31.4c0,17.4-24.4,31.4-54.4,31.4c-30.1,0-54.4-14.1-54.4-31.4
					C804.5,1159.9,828.9,1145.8,858.9,1145.8z"/>
				<path class="st16" d="M858.9,1152.1c24,0,43.5,11.3,43.5,25.1c0,13.9-19.5,25.1-43.5,25.1c-24,0-43.5-11.3-43.5-25.1
					C815.4,1163.4,834.9,1152.1,858.9,1152.1z"/>
				<path class="st16" d="M858.9,1152.1c24,0,43.5,11.3,43.5,25.1c0,0.6,0,1.1-0.1,1.7c-1.5-13.1-20.4-23.5-43.4-23.5
					c-23.1,0-42,10.4-43.4,23.5c-0.1-0.5-0.1-1.1-0.1-1.7C815.4,1163.4,834.9,1152.1,858.9,1152.1z"/>
				<path class="st16" d="M848.6,1168.3v3.3c0,1,0.5,2.1,1.4,3c2.4,2.6,5.5,4.3,8.2,6.5c0.1,0.1,0.1,0.1,0.2,0.2
					c-0.7,0.3-1.6,0.5-2.6,0.5c-1.1,0-2.4-0.1-3.9-0.5c-2.9-0.6-7.2-3-9.4-5.1c-1.1-1.1-1.9-2.1-2.4-3.2l-8.3,1.8v3.3
					c0.4,1.1,1.4,2.4,3,3.8c0.9,0.7,1.8,1.5,2.9,2.1l-2,1.1v3.3l5,2.2l5.1-2.8c4.2,1.4,8.2,2.1,12,2c3.8-0.1,6.9-0.8,9.4-2.2
					c2-1.1,3-2.2,3.2-3.4c0-0.1,0-0.2,0-0.4v-3.3c0-1-0.5-2-1.4-3c-1-1.1-2.4-2.2-4.3-3.6c-1.2-0.8-3.9-2.9-3.9-2.9
					c-0.1-0.1-0.2-0.2-0.3-0.2c0.7-0.3,1.6-0.5,2.6-0.6c3.2-0.2,7.1,1.2,10.2,3.2c1.8,1.2,3.4,2.7,4.5,4.2l8.1-2v-3.3
					c-0.8-1.5-2.3-2.9-4.6-4.4l2-1.1v-3.3l-5-2.2l-5,2.8c-4.2-1.5-8.2-2.2-12.1-2.1c-3.8,0.1-7,0.8-9.5,2.2c-2,1.1-3.1,2.3-3.2,3.4
					C848.6,1168.1,848.6,1168.2,848.6,1168.3z"/>
				<path class="st16" d="M867.3,1184.4c-2.5,1.4-5.6,2.1-9.4,2.2c-3.8,0.1-7.8-0.6-12-2l-5.1,2.8l-5-2.2l4.9-2.7
					c-2.4-1.2-4.3-2.4-5.9-3.8c-1.6-1.4-2.6-2.6-3-3.8l8.3-1.8c0.4,1,1.2,2.1,2.4,3.2c2.2,2.1,6.5,4.5,9.4,5.1
					c1.5,0.4,2.7,0.6,3.9,0.5c1.1,0,2.1-0.3,2.9-0.7c0.8-0.4,1.1-0.9,0.9-1.4c-0.1-0.5-0.6-1.2-1.4-1.9c-2.7-2.2-5.8-3.9-8.2-6.5
					c-1-1.1-1.5-2.2-1.3-3.4c0.1-1.2,1.2-2.3,3.2-3.4c2.5-1.4,5.7-2.1,9.5-2.2c3.8-0.1,7.9,0.6,12.1,2.1l5-2.8l5,2.2l-4.9,2.7
					c3.8,2,6.3,4,7.5,6.1l-8.1,2c-1-1.5-2.6-3-4.5-4.2c-3.1-2-7-3.4-10.2-3.2c-1.2,0.1-2.2,0.3-3,0.7c-0.8,0.4-1.1,0.9-0.9,1.5
					c0.2,0.5,0.7,1.2,1.5,1.9c0,0,2.7,2,3.9,2.9c1.9,1.3,3.3,2.5,4.3,3.6c1,1.1,1.5,2.2,1.3,3.3
					C870.4,1182.2,869.3,1183.3,867.3,1184.4z"/>
			</g>
			<g>
				<path class="st15" d="M858.9,1128.8c30.1,0,54.4,14.1,54.4,31.4v12.9c0,17.4-24.4,31.4-54.4,31.4c-30.1,0-54.4-14.1-54.4-31.4
					v-12.9C804.5,1142.9,828.9,1128.8,858.9,1128.8z"/>
				<path class="st16" d="M858.9,1128.8c30.1,0,54.4,14.1,54.4,31.4c0,17.4-24.4,31.4-54.4,31.4c-30.1,0-54.4-14.1-54.4-31.4
					C804.5,1142.9,828.9,1128.8,858.9,1128.8z"/>
				<path class="st16" d="M858.9,1135.1c24,0,43.5,11.3,43.5,25.1c0,13.9-19.5,25.1-43.5,25.1c-24,0-43.5-11.3-43.5-25.1
					C815.4,1146.3,834.9,1135.1,858.9,1135.1z"/>
				<path class="st16" d="M858.9,1135.1c24,0,43.5,11.3,43.5,25.1c0,0.6,0,1.1-0.1,1.7c-1.5-13.1-20.4-23.5-43.4-23.5
					c-23.1,0-42,10.4-43.4,23.5c-0.1-0.5-0.1-1.1-0.1-1.7C815.4,1146.3,834.9,1135.1,858.9,1135.1z"/>
				<path class="st16" d="M848.6,1151.3v3.3c0,1,0.5,2.1,1.4,3c2.4,2.6,5.5,4.3,8.2,6.5c0.1,0.1,0.1,0.1,0.2,0.2
					c-0.7,0.3-1.6,0.5-2.6,0.5c-1.1,0-2.4-0.1-3.9-0.5c-2.9-0.6-7.2-3-9.4-5.1c-1.1-1.1-1.9-2.1-2.4-3.2l-8.3,1.8v3.3
					c0.4,1.1,1.4,2.4,3,3.8c0.9,0.7,1.8,1.5,2.9,2.1l-2,1.1v3.3l5,2.2l5.1-2.8c4.2,1.4,8.2,2.1,12,2c3.8-0.1,6.9-0.8,9.4-2.2
					c2-1.1,3-2.2,3.2-3.4c0-0.1,0-0.2,0-0.4v-3.3c0-1-0.5-2-1.4-3c-1-1.1-2.4-2.2-4.3-3.6c-1.2-0.8-3.9-2.9-3.9-2.9
					c-0.1-0.1-0.2-0.2-0.3-0.2c0.7-0.3,1.6-0.5,2.6-0.6c3.2-0.2,7.1,1.2,10.2,3.2c1.8,1.2,3.4,2.7,4.5,4.2l8.1-2v-3.3
					c-0.8-1.5-2.3-2.9-4.6-4.4l2-1.1v-3.3l-5-2.2l-5,2.8c-4.2-1.5-8.2-2.2-12.1-2.1c-3.8,0.1-7,0.8-9.5,2.2c-2,1.1-3.1,2.3-3.2,3.4
					C848.6,1151.1,848.6,1151.2,848.6,1151.3z"/>
				<path class="st16" d="M867.3,1167.4c-2.5,1.4-5.6,2.1-9.4,2.2c-3.8,0.1-7.8-0.6-12-2l-5.1,2.8l-5-2.2l4.9-2.7
					c-2.4-1.2-4.3-2.4-5.9-3.8c-1.6-1.4-2.6-2.6-3-3.8l8.3-1.8c0.4,1,1.2,2.1,2.4,3.2c2.2,2.1,6.5,4.5,9.4,5.1
					c1.5,0.4,2.7,0.6,3.9,0.5c1.1,0,2.1-0.3,2.9-0.7c0.8-0.4,1.1-0.9,0.9-1.4c-0.1-0.5-0.6-1.2-1.4-1.9c-2.7-2.2-5.8-3.9-8.2-6.5
					c-1-1.1-1.5-2.2-1.3-3.4c0.1-1.2,1.2-2.3,3.2-3.4c2.5-1.4,5.7-2.1,9.5-2.2c3.8-0.1,7.9,0.6,12.1,2.1l5-2.8l5,2.2l-4.9,2.7
					c3.8,2,6.3,4,7.5,6.1l-8.1,2c-1-1.5-2.6-3-4.5-4.2c-3.1-2-7-3.4-10.2-3.2c-1.2,0.1-2.2,0.3-3,0.7c-0.8,0.4-1.1,0.9-0.9,1.5
					c0.2,0.6,0.7,1.2,1.5,1.9c0,0,2.7,2,3.9,2.9c1.9,1.3,3.3,2.5,4.3,3.6c1,1.1,1.5,2.2,1.3,3.3
					C870.4,1165.2,869.3,1166.3,867.3,1167.4z"/>
			</g>
			<g>
				<path class="st15" d="M858.9,1111.8c30.1,0,54.4,14.1,54.4,31.4v12.9c0,17.4-24.4,31.4-54.4,31.4c-30.1,0-54.4-14.1-54.4-31.4
					v-12.9C804.5,1125.8,828.9,1111.8,858.9,1111.8z"/>
				<path class="st16" d="M858.9,1111.8c30.1,0,54.4,14.1,54.4,31.4c0,17.4-24.4,31.4-54.4,31.4c-30.1,0-54.4-14.1-54.4-31.4
					C804.5,1125.8,828.9,1111.8,858.9,1111.8z"/>
				<path class="st16" d="M858.9,1118.1c24,0,43.5,11.3,43.5,25.1c0,13.9-19.5,25.1-43.5,25.1c-24,0-43.5-11.3-43.5-25.1
					C815.4,1129.3,834.9,1118.1,858.9,1118.1z"/>
				<path class="st16" d="M858.9,1118.1c24,0,43.5,11.3,43.5,25.1c0,0.6,0,1.1-0.1,1.7c-1.5-13.1-20.4-23.5-43.4-23.5
					c-23.1,0-42,10.4-43.4,23.5c-0.1-0.5-0.1-1.1-0.1-1.7C815.4,1129.3,834.9,1118.1,858.9,1118.1z"/>
				<path class="st16" d="M848.6,1134.3v3.3c0,1,0.5,2.1,1.4,3c2.4,2.6,5.5,4.3,8.2,6.5c0.1,0.1,0.1,0.1,0.2,0.2
					c-0.7,0.3-1.6,0.5-2.6,0.5c-1.1,0-2.4-0.1-3.9-0.5c-2.9-0.6-7.2-3-9.4-5.1c-1.1-1.1-1.9-2.1-2.4-3.2l-8.3,1.8v3.3
					c0.4,1.1,1.4,2.4,3,3.8c0.9,0.7,1.8,1.5,2.9,2.1l-2,1.1v3.3l5,2.2l5.1-2.8c4.2,1.4,8.2,2.1,12,2c3.8-0.1,6.9-0.8,9.4-2.2
					c2-1.1,3-2.2,3.2-3.4c0-0.1,0-0.2,0-0.4v-3.3c0-1-0.5-2-1.4-3c-1-1.1-2.4-2.2-4.3-3.6c-1.2-0.8-3.9-2.9-3.9-2.9
					c-0.1-0.1-0.2-0.2-0.3-0.2c0.7-0.3,1.6-0.5,2.6-0.6c3.2-0.2,7.1,1.2,10.2,3.2c1.8,1.2,3.4,2.7,4.5,4.2l8.1-2v-3.3
					c-0.8-1.5-2.3-2.9-4.6-4.4l2-1.1v-3.3l-5-2.2l-5,2.8c-4.2-1.5-8.2-2.2-12.1-2.1c-3.8,0.1-7,0.8-9.5,2.2c-2,1.1-3.1,2.3-3.2,3.4
					C848.6,1134,848.6,1134.2,848.6,1134.3z"/>
				<path class="st16" d="M867.3,1150.4c-2.5,1.4-5.6,2.1-9.4,2.2c-3.8,0.1-7.8-0.6-12-2l-5.1,2.8l-5-2.2l4.9-2.7
					c-2.4-1.2-4.3-2.4-5.9-3.8c-1.6-1.4-2.6-2.6-3-3.8l8.3-1.8c0.4,1,1.2,2.1,2.4,3.2c2.2,2.1,6.5,4.5,9.4,5.1
					c1.5,0.4,2.7,0.6,3.9,0.5c1.1,0,2.1-0.3,2.9-0.7c0.8-0.4,1.1-0.9,0.9-1.4c-0.1-0.5-0.6-1.2-1.4-1.9c-2.7-2.2-5.8-3.9-8.2-6.5
					c-1-1.1-1.5-2.2-1.3-3.4c0.1-1.2,1.2-2.3,3.2-3.4c2.5-1.4,5.7-2.1,9.5-2.2c3.8-0.1,7.9,0.6,12.1,2.1l5-2.8l5,2.2l-4.9,2.7
					c3.8,2,6.3,4,7.5,6.1l-8.1,2c-1-1.5-2.6-3-4.5-4.2c-3.1-2-7-3.4-10.2-3.2c-1.2,0.1-2.2,0.3-3,0.7c-0.8,0.4-1.1,0.9-0.9,1.5
					c0.2,0.6,0.7,1.2,1.5,1.9c0,0,2.7,2,3.9,2.9c1.9,1.3,3.3,2.5,4.3,3.6c1,1.1,1.5,2.2,1.3,3.3
					C870.4,1148.1,869.3,1149.3,867.3,1150.4z"/>
			</g>
			<g>
				<path class="st15" d="M858.9,1094.8c30.1,0,54.4,14.1,54.4,31.4v12.9c0,17.4-24.4,31.4-54.4,31.4c-30.1,0-54.4-14.1-54.4-31.4
					v-12.9C804.5,1108.8,828.9,1094.8,858.9,1094.8z"/>
				<path class="st16" d="M858.9,1094.8c30.1,0,54.4,14.1,54.4,31.4c0,17.4-24.4,31.4-54.4,31.4c-30.1,0-54.4-14.1-54.4-31.4
					C804.5,1108.8,828.9,1094.8,858.9,1094.8z"/>
				<path class="st16" d="M858.9,1101c24,0,43.5,11.3,43.5,25.1c0,13.9-19.5,25.1-43.5,25.1c-24,0-43.5-11.3-43.5-25.1
					C815.4,1112.3,834.9,1101,858.9,1101z"/>
				<path class="st15" d="M858.9,1101c24,0,43.5,11.3,43.5,25.1c0,0.6,0,1.1-0.1,1.7c-1.5-13.1-20.4-23.5-43.4-23.5
					c-23.1,0-42,10.4-43.4,23.5c-0.1-0.5-0.1-1.1-0.1-1.7C815.4,1112.3,834.9,1101,858.9,1101z"/>
				<path class="st15" d="M848.6,1117.3v3.3c0,1,0.5,2,1.4,3c2.4,2.6,5.5,4.3,8.2,6.5c0.1,0.1,0.1,0.1,0.2,0.2
					c-0.7,0.3-1.6,0.5-2.6,0.5c-1.1,0-2.4-0.1-3.9-0.5c-2.9-0.6-7.2-3-9.4-5.1c-1.1-1.1-1.9-2.1-2.4-3.2l-8.3,1.8v3.3
					c0.4,1.1,1.4,2.4,3,3.8c0.9,0.7,1.8,1.5,2.9,2.1l-2,1.1v3.3l5,2.2l5.1-2.8c4.2,1.4,8.2,2.1,12,2c3.8-0.1,6.9-0.8,9.4-2.2
					c2-1.1,3-2.2,3.2-3.4c0-0.1,0-0.2,0-0.4v-3.3c0-1-0.5-2-1.4-3c-1-1.1-2.4-2.2-4.3-3.6c-1.2-0.8-3.9-2.9-3.9-2.9
					c-0.1-0.1-0.2-0.2-0.3-0.2c0.7-0.3,1.6-0.5,2.6-0.6c3.2-0.2,7.1,1.2,10.2,3.2c1.8,1.2,3.4,2.7,4.5,4.2l8.1-2v-3.3
					c-0.8-1.5-2.3-2.9-4.6-4.4l2-1.1v-3.3l-5-2.2l-5,2.8c-4.2-1.5-8.2-2.2-12.1-2.1s-7,0.8-9.5,2.2c-2,1.1-3.1,2.3-3.2,3.4
					C848.6,1117,848.6,1117.1,848.6,1117.3z"/>
				<path class="st16" d="M867.3,1133.4c-2.5,1.4-5.6,2.1-9.4,2.2c-3.8,0.1-7.8-0.6-12-2l-5.1,2.8l-5-2.2l4.9-2.7
					c-2.4-1.2-4.3-2.4-5.9-3.8c-1.6-1.4-2.6-2.6-3-3.8l8.3-1.8c0.4,1,1.2,2.1,2.4,3.2c2.2,2.1,6.5,4.5,9.4,5.1
					c1.5,0.4,2.7,0.6,3.9,0.5c1.1,0,2.1-0.3,2.9-0.7c0.8-0.4,1.1-0.9,0.9-1.4c-0.1-0.5-0.6-1.2-1.4-1.9c-2.7-2.2-5.8-3.9-8.2-6.5
					c-1-1.1-1.5-2.2-1.3-3.4c0.1-1.2,1.2-2.3,3.2-3.4c2.5-1.4,5.7-2.1,9.5-2.2s7.9,0.6,12.1,2.1l5-2.8l5,2.2l-4.9,2.7
					c3.8,2,6.3,4,7.5,6.1l-8.1,2c-1-1.5-2.6-3-4.5-4.2c-3.1-2-7-3.4-10.2-3.2c-1.2,0.1-2.2,0.3-3,0.7c-0.8,0.4-1.1,0.9-0.9,1.5
					c0.2,0.6,0.7,1.2,1.5,1.9c0,0,2.7,2,3.9,2.9c1.9,1.3,3.3,2.5,4.3,3.6c1,1.1,1.5,2.2,1.3,3.3
					C870.4,1131.1,869.3,1132.3,867.3,1133.4z"/>
			</g>
		</g>
	</g>
	<path class="st1" d="M975.2,1253.8c30.1,0,54.4,14.1,54.4,31.4c0,17.4-24.4,31.4-54.4,31.4c-30.1,0-54.4-14.1-54.4-31.4
		C920.8,1267.9,945.2,1253.8,975.2,1253.8z"/>
	<path class="st1" d="M1269.1,1238.5L1077,1127.5c-3.8-2.2-8.2-2.2-12.1,0l-102.1,59l187,107.9L1139,1309l41.2-0.2
		c2.2,0,4.1-0.5,6-1.6l83-47.9c3.8-2.2,6-6,6-10.4C1275.2,1244.5,1273,1240.7,1269.1,1238.5z"/>
	<g>
		<path class="st7" d="M917.6,1120.7v38.8c0,8.9,4.4,16.5,12.1,20.9l204.2,117.9l108.1-62.4v-52.8c0-8.9-4.4-16.5-12.1-20.9
			l-192.1-110.9c-7.7-4.4-16.4-4.4-24.1,0l-84,48.5C922,1104.3,917.6,1111.9,917.6,1120.7z"/>
		<g>
			<polygon class="st4" points="922.8,1117.5 922.8,1184.2 1139,1309 1247.2,1246.6 1247.2,1179.9 1139,1242.4 			"/>
			<polygon class="st17" points="1247.2,1179.9 1030.9,1055.1 922.8,1117.5 1139,1242.4 			"/>
			<path class="st6" d="M1204,1171.2l-157.9-91.2c-4,2.3-9.5,3.7-15.5,3.7c-6.1,0-11.6-1.4-15.5-3.7l-49.1,28.3c4,2.3,6.4,5.5,6.4,9
				c0,3.5-2.5,6.7-6.4,9l157.9,91.2c4-2.3,9.5-3.7,15.5-3.7c6.1,0,11.6,1.4,15.5,3.7l49.1-28.3c-4-2.3-6.4-5.5-6.4-9
				C1197.6,1176.6,1200,1173.5,1204,1171.2z"/>
			<path class="st17" d="M1085,1131.9c-16.1,0-29.2,7.5-29.2,16.8c0,9.3,13.1,16.8,29.2,16.8c16.1,0,29.2-7.5,29.2-16.8
				C1114.1,1139.4,1101.1,1131.9,1085,1131.9z"/>
		</g>
	</g>
	<g>
		<path class="st18" d="M1034,1093.7c30.1,0,54.4,14.1,54.4,31.4c0,17.4-24.4,31.4-54.4,31.4c-30.1,0-54.4-14.1-54.4-31.4
			C979.6,1107.8,1004,1093.7,1034,1093.7z"/>
		<path class="st19" d="M983,1136.1l32.1,18.5c5.9,1.3,12.3,2,18.9,2c30.1,0,54.4-14.1,54.4-31.4c0-17.4-24.4-31.4-54.4-31.4
			c-30.1,0-54.4,14.1-54.4,31.4C979.6,1129,980.8,1132.7,983,1136.1z"/>
		<path class="st18" d="M1085,1131.9c-16.1,0-29.2,7.5-29.2,16.8c0,1.7,0.4,3.4,1.3,4.9c15.1-4.1,26.5-12.1,30.1-21.7
			C1086.4,1131.9,1085.7,1131.9,1085,1131.9z"/>
	</g>
	<g>
		<path class="st7" d="M1069.4,1096.1l0,0.4l0,0.2c0,0.2,0,0.4,0,0.5l0,0.2c0,0.2,0,0.5,0,0.7v12.9c0,17.4-24.4,31.4-54.4,31.4
			c-30.1,0-54.4-14.1-54.4-31.4v-12.9c0-0.3,0-0.5,0-0.8l0-0.3c0-0.2,0-0.4,0-0.5c0-0.1,0-0.2,0-0.3l0-0.1c-0.1-0.7-0.1-1.4-0.1-2
			v-12.9c0-0.7,0-1.4,0.1-2.1c-0.1-0.7-0.1-1.3-0.1-2v-12.9c0-17.4,24.4-31.4,54.4-31.4c30.1,0,54.4,14.1,54.4,31.4v12.9
			c0,0.7,0,1.4-0.1,2c0.1,0.7,0.1,1.4,0.1,2.1v12.9C1069.5,1094.8,1069.5,1095.4,1069.4,1096.1z"/>
		<g>
			<g>
				<path class="st15" d="M1020,1073.1c30.1,0,54.4,14.1,54.4,31.4v12.9c0,17.4-24.4,31.4-54.4,31.4c-30.1,0-54.4-14.1-54.4-31.4
					v-12.9C965.6,1087.1,990,1073.1,1020,1073.1z"/>
				<path class="st16" d="M1020,1073.1c30.1,0,54.4,14.1,54.4,31.4c0,17.4-24.4,31.4-54.4,31.4c-30.1,0-54.4-14.1-54.4-31.4
					C965.6,1087.1,990,1073.1,1020,1073.1z"/>
				<path class="st16" d="M1020,1079.3c24,0,43.5,11.3,43.5,25.1c0,13.9-19.5,25.1-43.5,25.1c-24,0-43.5-11.3-43.5-25.1
					C976.5,1090.6,996,1079.3,1020,1079.3z"/>
				<path class="st16" d="M1020,1079.3c24,0,43.5,11.3,43.5,25.1c0,0.6,0,1.1-0.1,1.7c-1.5-13.1-20.4-23.5-43.4-23.5
					c-23.1,0-42,10.4-43.4,23.5c-0.1-0.5-0.1-1.1-0.1-1.7C976.5,1090.6,996,1079.3,1020,1079.3z"/>
				<path class="st16" d="M1009.7,1095.6v3.3c0,1,0.5,2,1.4,3c2.4,2.6,5.5,4.3,8.2,6.5c0.1,0.1,0.1,0.1,0.2,0.2
					c-0.7,0.3-1.6,0.5-2.6,0.5c-1.1,0-2.4-0.1-3.9-0.5c-2.9-0.6-7.2-3-9.4-5.1c-1.1-1.1-1.9-2.1-2.4-3.2l-8.3,1.8v3.3
					c0.4,1.1,1.4,2.4,3,3.8c0.9,0.7,1.9,1.5,2.9,2.1l-2,1.1v3.3l5,2.2l5.1-2.8c4.2,1.4,8.2,2.1,12,2c3.8-0.1,6.9-0.8,9.4-2.2
					c2-1.1,3-2.2,3.2-3.4c0-0.1,0-0.2,0-0.4v-3.3c0-1-0.5-2-1.4-3c-1-1.1-2.5-2.2-4.3-3.6c-1.2-0.8-3.9-2.9-3.9-2.9
					c-0.1-0.1-0.2-0.2-0.3-0.2c0.7-0.3,1.6-0.5,2.6-0.6c3.2-0.2,7.1,1.2,10.2,3.2c1.8,1.2,3.4,2.7,4.5,4.2l8.1-2v-3.3
					c-0.8-1.5-2.3-2.9-4.6-4.4l2-1.1v-3.3l-5-2.2l-5,2.8c-4.2-1.5-8.2-2.2-12.1-2.1c-3.8,0.1-7,0.8-9.5,2.2c-2,1.1-3.1,2.3-3.2,3.4
					C1009.7,1095.3,1009.7,1095.4,1009.7,1095.6z"/>
				<path class="st16" d="M1028.5,1111.7c-2.5,1.4-5.6,2.1-9.4,2.2c-3.8,0.1-7.8-0.6-12-2l-5.1,2.8l-5-2.2l4.9-2.7
					c-2.4-1.2-4.3-2.4-5.9-3.8c-1.6-1.4-2.6-2.6-3-3.8l8.3-1.8c0.4,1,1.2,2.1,2.4,3.2c2.2,2.1,6.5,4.5,9.4,5.1
					c1.5,0.4,2.7,0.6,3.9,0.5c1.1,0,2.1-0.3,2.9-0.7c0.8-0.4,1.1-0.9,0.9-1.4c-0.1-0.5-0.6-1.2-1.4-1.9c-2.7-2.2-5.8-3.9-8.2-6.5
					c-1-1.1-1.5-2.2-1.3-3.4c0.1-1.2,1.2-2.3,3.2-3.4c2.5-1.4,5.7-2.1,9.5-2.2c3.8-0.1,7.9,0.6,12.1,2.1l5-2.8l5,2.2l-4.9,2.7
					c3.8,2,6.3,4,7.5,6.1l-8.1,2c-1-1.5-2.6-3-4.5-4.2c-3.1-2-7-3.4-10.2-3.2c-1.2,0.1-2.2,0.3-3,0.7c-0.8,0.4-1.1,0.9-0.9,1.5
					c0.2,0.6,0.7,1.2,1.5,1.9c0,0,2.7,2,3.9,2.9c1.9,1.3,3.3,2.5,4.3,3.6c1,1.1,1.5,2.2,1.3,3.3
					C1031.5,1109.4,1030.4,1110.6,1028.5,1111.7z"/>
			</g>
			<g>
				<path class="st15" d="M1020,1056c30.1,0,54.4,14.1,54.4,31.4v12.9c0,17.4-24.4,31.4-54.4,31.4c-30.1,0-54.4-14.1-54.4-31.4
					v-12.9C965.6,1070.1,990,1056,1020,1056z"/>
				<path class="st16" d="M1020,1056c30.1,0,54.4,14.1,54.4,31.4c0,17.4-24.4,31.4-54.4,31.4c-30.1,0-54.4-14.1-54.4-31.4
					C965.6,1070.1,990,1056,1020,1056z"/>
				<path class="st16" d="M1020,1062.3c24,0,43.5,11.3,43.5,25.1c0,13.9-19.5,25.1-43.5,25.1c-24,0-43.5-11.3-43.5-25.1
					C976.5,1073.6,996,1062.3,1020,1062.3z"/>
				<path class="st16" d="M1020,1062.3c24,0,43.5,11.3,43.5,25.1c0,0.6,0,1.1-0.1,1.7c-1.5-13.1-20.4-23.5-43.4-23.5
					c-23.1,0-42,10.4-43.4,23.5c-0.1-0.5-0.1-1.1-0.1-1.7C976.5,1073.6,996,1062.3,1020,1062.3z"/>
				<path class="st16" d="M1009.7,1078.5v3.3c0,1,0.5,2,1.4,3c2.4,2.6,5.5,4.3,8.2,6.5c0.1,0.1,0.1,0.1,0.2,0.2
					c-0.7,0.3-1.6,0.5-2.6,0.5c-1.1,0-2.4-0.1-3.9-0.5c-2.9-0.6-7.2-3-9.4-5.1c-1.1-1.1-1.9-2.1-2.4-3.2l-8.3,1.8v3.3
					c0.4,1.1,1.4,2.4,3,3.8c0.9,0.7,1.9,1.5,2.9,2.1l-2,1.1v3.3l5,2.2l5.1-2.8c4.2,1.4,8.2,2.1,12,2c3.8-0.1,6.9-0.8,9.4-2.2
					c2-1.1,3-2.2,3.2-3.4c0-0.1,0-0.2,0-0.4v-3.3c0-1-0.5-2-1.4-3c-1-1.1-2.5-2.2-4.3-3.6c-1.2-0.8-3.9-2.9-3.9-2.9
					c-0.1-0.1-0.2-0.2-0.3-0.2c0.7-0.3,1.6-0.5,2.6-0.6c3.2-0.2,7.1,1.2,10.2,3.2c1.8,1.2,3.4,2.7,4.5,4.2l8.1-2v-3.3
					c-0.8-1.5-2.3-2.9-4.6-4.4l2-1.1v-3.3l-5-2.2l-5,2.8c-4.2-1.5-8.2-2.2-12.1-2.1c-3.8,0.1-7,0.8-9.5,2.2c-2,1.1-3.1,2.3-3.2,3.4
					C1009.7,1078.3,1009.7,1078.4,1009.7,1078.5z"/>
				<path class="st16" d="M1028.5,1094.7c-2.5,1.4-5.6,2.1-9.4,2.2c-3.8,0.1-7.8-0.6-12-2l-5.1,2.8l-5-2.2l4.9-2.7
					c-2.4-1.2-4.3-2.4-5.9-3.8c-1.6-1.4-2.6-2.6-3-3.8l8.3-1.8c0.4,1,1.2,2.1,2.4,3.2c2.2,2.1,6.5,4.5,9.4,5.1
					c1.5,0.4,2.7,0.6,3.9,0.5c1.1,0,2.1-0.3,2.9-0.7c0.8-0.4,1.1-0.9,0.9-1.4c-0.1-0.5-0.6-1.2-1.4-1.9c-2.7-2.2-5.8-3.9-8.2-6.5
					c-1-1.1-1.5-2.2-1.3-3.4c0.1-1.2,1.2-2.3,3.2-3.4c2.5-1.4,5.7-2.1,9.5-2.2c3.8-0.1,7.9,0.6,12.1,2.1l5-2.8l5,2.2l-4.9,2.7
					c3.8,2,6.3,4,7.5,6.1l-8.1,2c-1-1.5-2.6-3-4.5-4.2c-3.1-2-7-3.4-10.2-3.2c-1.2,0.1-2.2,0.3-3,0.7c-0.8,0.4-1.1,0.9-0.9,1.5
					c0.2,0.6,0.7,1.2,1.5,1.9c0,0,2.7,2,3.9,2.9c1.9,1.3,3.3,2.5,4.3,3.6c1,1.1,1.5,2.2,1.3,3.3
					C1031.5,1092.4,1030.4,1093.5,1028.5,1094.7z"/>
			</g>
			<g>
				<path class="st15" d="M1020,1039c30.1,0,54.4,14.1,54.4,31.4v12.9c0,17.4-24.4,31.4-54.4,31.4c-30.1,0-54.4-14.1-54.4-31.4
					v-12.9C965.6,1053.1,990,1039,1020,1039z"/>
				<path class="st16" d="M1020,1039c30.1,0,54.4,14.1,54.4,31.4c0,17.4-24.4,31.4-54.4,31.4c-30.1,0-54.4-14.1-54.4-31.4
					C965.6,1053.1,990,1039,1020,1039z"/>
				<path class="st16" d="M1020,1045.3c24,0,43.5,11.3,43.5,25.1c0,13.9-19.5,25.1-43.5,25.1c-24,0-43.5-11.3-43.5-25.1
					C976.5,1056.6,996,1045.3,1020,1045.3z"/>
				<path class="st15" d="M1020,1045.3c24,0,43.5,11.3,43.5,25.1c0,0.6,0,1.1-0.1,1.7c-1.5-13.1-20.4-23.5-43.4-23.5
					c-23.1,0-42,10.4-43.4,23.5c-0.1-0.5-0.1-1.1-0.1-1.7C976.5,1056.6,996,1045.3,1020,1045.3z"/>
				<path class="st15" d="M1009.7,1061.5v3.3c0,1,0.5,2.1,1.4,3c2.4,2.6,5.5,4.3,8.2,6.5c0.1,0.1,0.1,0.1,0.2,0.2
					c-0.7,0.3-1.6,0.5-2.6,0.5c-1.1,0-2.4-0.1-3.9-0.5c-2.9-0.6-7.2-3-9.4-5.1c-1.1-1.1-1.9-2.1-2.4-3.2l-8.3,1.8v3.3
					c0.4,1.1,1.4,2.4,3,3.8c0.9,0.7,1.9,1.5,2.9,2.1l-2,1.1v3.3l5,2.2l5.1-2.8c4.2,1.4,8.2,2.1,12,2c3.8-0.1,6.9-0.8,9.4-2.2
					c2-1.1,3-2.2,3.2-3.4c0-0.1,0-0.2,0-0.4v-3.3c0-1-0.5-2-1.4-3c-1-1.1-2.5-2.2-4.3-3.6c-1.2-0.8-3.9-2.9-3.9-2.9
					c-0.1-0.1-0.2-0.2-0.3-0.2c0.7-0.3,1.6-0.5,2.6-0.6c3.2-0.2,7.1,1.2,10.2,3.2c1.8,1.2,3.4,2.7,4.5,4.2l8.1-2v-3.3
					c-0.8-1.5-2.3-2.9-4.6-4.4l2-1.1v-3.3l-5-2.2l-5,2.8c-4.2-1.5-8.2-2.2-12.1-2.1c-3.8,0.1-7,0.8-9.5,2.2c-2,1.1-3.1,2.3-3.2,3.4
					C1009.7,1061.3,1009.7,1061.4,1009.7,1061.5z"/>
				<path class="st16" d="M1028.5,1077.6c-2.5,1.4-5.6,2.1-9.4,2.2c-3.8,0.1-7.8-0.6-12-2l-5.1,2.8l-5-2.2l4.9-2.7
					c-2.4-1.2-4.3-2.4-5.9-3.8c-1.6-1.4-2.6-2.6-3-3.8l8.3-1.8c0.4,1,1.2,2.1,2.4,3.2c2.2,2.1,6.5,4.5,9.4,5.1
					c1.5,0.4,2.7,0.6,3.9,0.5c1.1,0,2.1-0.3,2.9-0.7c0.8-0.4,1.1-0.9,0.9-1.4c-0.1-0.5-0.6-1.2-1.4-1.9c-2.7-2.2-5.8-3.9-8.2-6.5
					c-1-1.1-1.5-2.2-1.3-3.4c0.1-1.2,1.2-2.3,3.2-3.4c2.5-1.4,5.7-2.1,9.5-2.2c3.8-0.1,7.9,0.6,12.1,2.1l5-2.8l5,2.2l-4.9,2.7
					c3.8,2,6.3,4,7.5,6.1l-8.1,2c-1-1.5-2.6-3-4.5-4.2c-3.1-2-7-3.4-10.2-3.2c-1.2,0.1-2.2,0.3-3,0.7c-0.8,0.4-1.1,0.9-0.9,1.5
					c0.2,0.6,0.7,1.2,1.5,1.9c0,0,2.7,2,3.9,2.9c1.9,1.3,3.3,2.5,4.3,3.6c1,1.1,1.5,2.2,1.3,3.3
					C1031.5,1075.4,1030.4,1076.5,1028.5,1077.6z"/>
			</g>
		</g>
	</g>
	<g>
		<path class="st7" d="M1009.9,1257.7l0,0.4l0,0.2c0,0.2,0,0.4,0,0.5l0,0.2c0,0.2,0,0.5,0,0.7v12.9c0,17.4-24.4,31.4-54.4,31.4
			c-30.1,0-54.4-14.1-54.4-31.4v-12.9c0-0.3,0-0.5,0-0.8l0-0.3c0-0.2,0-0.4,0-0.5c0-0.1,0-0.2,0-0.3l0-0.1c-0.1-0.7-0.1-1.4-0.1-2
			v-12.9c0-17.4,24.4-31.4,54.4-31.4c30.1,0,54.4,14.1,54.4,31.4v12.9C1010,1256.3,1010,1257,1009.9,1257.7z"/>
		<g>
			<g>
				<path class="st15" d="M960,1233.5c30.1,0,54.4,14.1,54.4,31.4v12.9c0,17.4-24.4,31.4-54.4,31.4c-30.1,0-54.4-14.1-54.4-31.4
					V1265C905.6,1247.6,929.9,1233.5,960,1233.5z"/>
				<path class="st16" d="M960,1233.5c30.1,0,54.4,14.1,54.4,31.4c0,17.4-24.4,31.4-54.4,31.4c-30.1,0-54.4-14.1-54.4-31.4
					C905.6,1247.6,929.9,1233.5,960,1233.5z"/>
				<path class="st16" d="M960,1239.8c24,0,43.5,11.3,43.5,25.1c0,13.9-19.5,25.1-43.5,25.1c-24,0-43.5-11.3-43.5-25.1
					C916.4,1251.1,935.9,1239.8,960,1239.8z"/>
				<path class="st16" d="M960,1239.8c24,0,43.5,11.3,43.5,25.1c0,0.6,0,1.1-0.1,1.7c-1.5-13.1-20.4-23.5-43.4-23.5
					c-23.1,0-42,10.4-43.4,23.5c-0.1-0.5-0.1-1.1-0.1-1.7C916.4,1251.1,935.9,1239.8,960,1239.8z"/>
				<path class="st16" d="M949.7,1256v3.3c0,1,0.5,2.1,1.4,3c2.4,2.6,5.5,4.3,8.2,6.5c0.1,0.1,0.1,0.1,0.2,0.2
					c-0.7,0.3-1.6,0.5-2.6,0.5c-1.1,0-2.4-0.1-3.9-0.5c-2.9-0.6-7.2-3-9.4-5.1c-1.1-1.1-1.9-2.1-2.4-3.2l-8.3,1.8v3.3
					c0.4,1.1,1.4,2.4,3,3.8c0.9,0.7,1.8,1.5,2.9,2.1l-2,1.1v3.3l5,2.2l5.1-2.8c4.2,1.4,8.2,2.1,12,2c3.8-0.1,6.9-0.8,9.4-2.2
					c2-1.1,3-2.2,3.2-3.4c0-0.1,0-0.2,0-0.4v-3.3c0-1-0.5-2-1.4-3c-1-1.1-2.5-2.2-4.3-3.6c-1.2-0.8-3.9-2.9-3.9-2.9
					c-0.1-0.1-0.2-0.2-0.3-0.2c0.7-0.3,1.6-0.5,2.6-0.6c3.2-0.2,7.1,1.2,10.2,3.2c1.8,1.2,3.4,2.7,4.5,4.2l8.1-2v-3.3
					c-0.8-1.5-2.3-2.9-4.6-4.4l2-1.1v-3.3l-5-2.2l-5,2.8c-4.2-1.5-8.2-2.2-12.1-2.1c-3.8,0.1-7,0.8-9.5,2.2c-2,1.1-3.1,2.3-3.2,3.4
					C949.7,1255.8,949.7,1255.9,949.7,1256z"/>
				<path class="st16" d="M968.4,1272.1c-2.5,1.4-5.6,2.1-9.4,2.2c-3.8,0.1-7.8-0.6-12-2l-5.1,2.8l-5-2.2l4.9-2.7
					c-2.4-1.2-4.3-2.4-5.9-3.8c-1.6-1.4-2.6-2.6-3-3.8l8.3-1.8c0.4,1,1.2,2.1,2.4,3.2c2.2,2.1,6.5,4.5,9.4,5.1
					c1.5,0.4,2.7,0.6,3.9,0.5c1.1,0,2.1-0.3,2.9-0.7c0.8-0.4,1.1-0.9,0.9-1.4c-0.1-0.5-0.6-1.2-1.4-1.9c-2.7-2.2-5.8-3.9-8.2-6.5
					c-1-1.1-1.5-2.2-1.3-3.4c0.1-1.2,1.2-2.3,3.2-3.4c2.5-1.4,5.7-2.1,9.5-2.2c3.8-0.1,7.9,0.6,12.1,2.1l5-2.8l5,2.2l-4.9,2.7
					c3.8,2,6.3,4,7.5,6.1l-8.1,2c-1-1.5-2.6-3-4.5-4.2c-3.1-2-7-3.4-10.2-3.2c-1.2,0.1-2.2,0.3-3,0.7c-0.8,0.4-1.1,0.9-0.9,1.5
					c0.2,0.6,0.7,1.2,1.5,1.9c0,0,2.7,2,3.9,2.9c1.9,1.3,3.3,2.5,4.3,3.6c1,1.1,1.5,2.2,1.3,3.3S970.4,1271,968.4,1272.1z"/>
			</g>
			<g>
				<path class="st15" d="M960,1216.5c30.1,0,54.4,14.1,54.4,31.4v12.9c0,17.4-24.4,31.4-54.4,31.4c-30.1,0-54.4-14.1-54.4-31.4
					v-12.9C905.6,1230.6,929.9,1216.5,960,1216.5z"/>
				<path class="st16" d="M960,1216.5c30.1,0,54.4,14.1,54.4,31.4c0,17.4-24.4,31.4-54.4,31.4c-30.1,0-54.4-14.1-54.4-31.4
					C905.6,1230.6,929.9,1216.5,960,1216.5z"/>
				<path class="st16" d="M960,1222.8c24,0,43.5,11.3,43.5,25.1c0,13.9-19.5,25.1-43.5,25.1c-24,0-43.5-11.3-43.5-25.1
					C916.4,1234.1,935.9,1222.8,960,1222.8z"/>
				<path class="st15" d="M960,1222.8c24,0,43.5,11.3,43.5,25.1c0,0.6,0,1.1-0.1,1.7c-1.5-13.1-20.4-23.5-43.4-23.5
					c-23.1,0-42,10.4-43.4,23.5c-0.1-0.5-0.1-1.1-0.1-1.7C916.4,1234.1,935.9,1222.8,960,1222.8z"/>
				<path class="st15" d="M949.7,1239v3.3c0,1,0.5,2.1,1.4,3c2.4,2.6,5.5,4.3,8.2,6.5c0.1,0.1,0.1,0.1,0.2,0.2
					c-0.7,0.3-1.6,0.5-2.6,0.5c-1.1,0-2.4-0.1-3.9-0.5c-2.9-0.6-7.2-3-9.4-5.1c-1.1-1.1-1.9-2.1-2.4-3.2l-8.3,1.8v3.3
					c0.4,1.1,1.4,2.4,3,3.8c0.9,0.7,1.8,1.5,2.9,2.1l-2,1.1v3.3l5,2.2l5.1-2.8c4.2,1.4,8.2,2.1,12,2c3.8-0.1,6.9-0.8,9.4-2.2
					c2-1.1,3-2.2,3.2-3.4c0-0.1,0-0.2,0-0.4v-3.3c0-1-0.5-2-1.4-3c-1-1.1-2.5-2.2-4.3-3.6c-1.2-0.8-3.9-2.9-3.9-2.9
					c-0.1-0.1-0.2-0.2-0.3-0.2c0.7-0.3,1.6-0.5,2.6-0.6c3.2-0.2,7.1,1.2,10.2,3.2c1.8,1.2,3.4,2.7,4.5,4.2l8.1-2v-3.3
					c-0.8-1.5-2.3-2.9-4.6-4.4l2-1.1v-3.3l-5-2.2l-5,2.8c-4.2-1.5-8.2-2.2-12.1-2.1c-3.8,0.1-7,0.8-9.5,2.2c-2,1.1-3.1,2.3-3.2,3.4
					C949.7,1238.8,949.7,1238.9,949.7,1239z"/>
				<path class="st16" d="M968.4,1255.1c-2.5,1.4-5.6,2.1-9.4,2.2c-3.8,0.1-7.8-0.6-12-2l-5.1,2.8l-5-2.2l4.9-2.7
					c-2.4-1.2-4.3-2.4-5.9-3.8c-1.6-1.4-2.6-2.6-3-3.8l8.3-1.8c0.4,1,1.2,2.1,2.4,3.2c2.2,2.1,6.5,4.5,9.4,5.1
					c1.5,0.4,2.7,0.6,3.9,0.5c1.1,0,2.1-0.3,2.9-0.7c0.8-0.4,1.1-0.9,0.9-1.4c-0.1-0.5-0.6-1.2-1.4-1.9c-2.7-2.2-5.8-3.9-8.2-6.5
					c-1-1.1-1.5-2.2-1.3-3.4c0.1-1.2,1.2-2.3,3.2-3.4c2.5-1.4,5.7-2.1,9.5-2.2c3.8-0.1,7.9,0.6,12.1,2.1l5-2.8l5,2.2l-4.9,2.7
					c3.8,2,6.3,4,7.5,6.1l-8.1,2c-1-1.5-2.6-3-4.5-4.2c-3.1-2-7-3.4-10.2-3.2c-1.2,0.1-2.2,0.3-3,0.7c-0.8,0.4-1.1,0.9-0.9,1.5
					c0.2,0.6,0.7,1.2,1.5,1.9c0,0,2.7,2,3.9,2.9c1.9,1.3,3.3,2.5,4.3,3.6c1,1.1,1.5,2.2,1.3,3.3
					C971.5,1252.9,970.4,1254,968.4,1255.1z"/>
			</g>
		</g>
	</g>
	<path class="st7" d="M866.6,1011.5c6.7,0,12.1,5.4,12.1,12.1c0,6.7-5.4,12.1-12.1,12.1c-6.7,0-12.1-5.4-12.1-12.1
		C854.6,1016.9,860,1011.5,866.6,1011.5z"/>
	<g>
		<path class="st15" d="M1075.4,1018.9c5,0,9,4,9,9c0,5-4,9-9,9c-5,0-9-4-9-9C1066.4,1023,1070.4,1018.9,1075.4,1018.9z"/>
		<path class="st15" d="M1111.9,1051c2.5,0,4.5,2,4.5,4.5c0,2.5-2,4.5-4.5,4.5c-2.5,0-4.5-2-4.5-4.5
			C1107.4,1053,1109.5,1051,1111.9,1051z"/>
	</g>
</g>
<g>
	<path class="st7" d="M902.1,565.4c9.7,0,17.5,7.8,17.5,17.5c0,9.7-7.8,17.5-17.5,17.5c-9.7,0-17.5-7.8-17.5-17.5
		C884.6,573.2,892.4,565.4,902.1,565.4z"/>
	<path class="st7" d="M877.9,426.9c5.4,0,9.8,4.4,9.8,9.8c0,5.4-4.4,9.8-9.8,9.8c-5.4,0-9.8-4.4-9.8-9.8
		C868.2,431.3,872.5,426.9,877.9,426.9z"/>
	<g>
		<path class="st7" d="M1070.2,350.8C1070.2,350.8,1070.2,350.8,1070.2,350.8c-0.9-0.2-1.8-0.4-2.7-0.5
			C1068.4,350.4,1069.3,350.6,1070.2,350.8L1070.2,350.8z M985.2,600.9c-1-0.4-2.1-0.8-3.1-1.3l-25-11.2
			c-20.6-9.2-36.8-29.2-44.2-58.3c-15.5-61.2,14.4-139.6,66.8-174.9c27.5-18.6,55.7-21.6,78.6-11.4l25,11.2c0.2,0.1,0.3,0.2,0.5,0.2
			c0.1,0.1,0.3,0.1,0.4,0.2c1.2,0.6,2.4,1.2,3.6,1.8c0.1,0.1,0.2,0.1,0.3,0.2c1.2,0.7,2.4,1.4,3.6,2.1c0.1,0,0.1,0.1,0.2,0.1
			c1.2,0.8,2.4,1.6,3.6,2.5c0,0,0,0,0,0c14.7,10.8,26,28.1,31.8,51.1c15.4,61.2-14.4,139.6-66.8,174.9c-21.3,14.4-43,19.4-62.3,16.3
			h0c-1.4-0.2-2.9-0.5-4.3-0.8c-0.1,0-0.1,0-0.2,0c-1.4-0.3-2.7-0.7-4-1.1c-0.1,0-0.2-0.1-0.4-0.1c-1.3-0.4-2.6-0.8-3.8-1.3
			C985.5,601,985.3,600.9,985.2,600.9z"/>
		<path class="st2" d="M1083.3,358.2C1083.3,358.2,1083.3,358.2,1083.3,358.2c-0.9-0.2-1.8-0.4-2.7-0.5
			C1081.5,357.8,1082.4,358,1083.3,358.2L1083.3,358.2z M998.2,608.3c-1-0.4-2.1-0.8-3.1-1.3l-25-11.2
			c-20.6-9.2-36.8-29.2-44.1-58.3c-15.5-61.2,14.4-139.6,66.8-174.9c27.5-18.6,55.7-21.6,78.6-11.4l25,11.2c0.2,0.1,0.3,0.2,0.5,0.2
			c0.1,0.1,0.3,0.1,0.4,0.2c1.2,0.6,2.4,1.2,3.6,1.8c0.1,0.1,0.2,0.1,0.3,0.2c1.2,0.7,2.4,1.4,3.6,2.1c0.1,0,0.1,0.1,0.2,0.1
			c1.2,0.8,2.4,1.6,3.6,2.5c0,0,0,0,0,0c14.7,10.8,26,28.1,31.8,51.1c15.5,61.2-14.4,139.6-66.8,174.9c-21.3,14.4-43,19.4-62.3,16.3
			h0c-1.4-0.2-2.9-0.5-4.3-0.8c-0.1,0-0.1,0-0.2,0c-1.4-0.3-2.7-0.7-4-1.1c-0.1,0-0.2-0.1-0.4-0.1c-1.3-0.4-2.6-0.8-3.8-1.3
			C998.6,608.4,998.4,608.4,998.2,608.3z"/>
		<path class="st9" d="M1017.7,373.8c-52.3,35.4-82.2,113.7-66.8,174.9c15.5,61.2,70.4,82.2,122.7,46.9
			c52.3-35.4,82.2-113.7,66.8-174.9C1125,359.5,1070.1,338.5,1017.7,373.8z"/>
		<path class="st0" d="M1020.6,385.2c-46.9,31.7-73.8,102-59.9,156.9c13.9,54.9,63.2,73.8,110.1,42.1c46.9-31.7,73.8-102,59.9-156.9
			C1116.9,372.3,1067.6,353.5,1020.6,385.2z"/>
		<path class="st2" d="M1010.5,597.9c18.4,4.5,39.6,0.3,60.3-13.7c46.9-31.7,73.8-102,59.9-156.9c-8.7-34.6-31.5-54.9-58.9-57.2
			c23.3,5.7,42,25.1,49.8,55.7c13.9,54.9-13,125.2-59.9,156.9C1044.3,594.5,1026.6,599.3,1010.5,597.9z"/>
		<path class="st7" d="M1015.6,395.8c-35,23.7-55,76-44.7,117s47.1,55,82.1,31.4c35-23.7,55-76,44.7-117
			C1087.4,386.1,1050.6,372.1,1015.6,395.8z"/>
		<g>
			<g>
				<path class="st2" d="M1025,402.6c-2.4,1.6-3.8,5.3-3.1,8.2c0.7,2.9,3.3,3.8,5.7,2.2c2.4-1.6,3.8-5.3,3.1-8.2
					C1030,401.9,1027.4,401,1025,402.6z"/>
				<path class="st2" d="M1063.8,556.5c-2.4,1.6-3.8,5.3-3.1,8.2s3.3,3.8,5.7,2.2c2.4-1.6,3.8-5.3,3.1-8.2
					C1068.8,555.8,1066.3,554.9,1063.8,556.5z"/>
			</g>
			<g>
				<path class="st2" d="M975.6,532.1c0.7,2.9,3.3,3.8,5.7,2.2c2.4-1.6,3.8-5.3,3.1-8.2c-0.7-2.9-3.3-3.8-5.7-2.2
					S974.8,529.3,975.6,532.1z"/>
				<path class="st2" d="M1107,443.3c0.7,2.9,3.3,3.8,5.7,2.2c2.4-1.6,3.8-5.3,3.1-8.2c-0.7-2.9-3.3-3.8-5.7-2.2
					C1107.7,436.8,1106.3,440.4,1107,443.3z"/>
			</g>
			<g>
				<path class="st2" d="M981.5,460.2c-1.2,3.2-0.4,6.5,1.8,7.3c2.2,0.9,5-1,6.2-4.2c1.2-3.2,0.4-6.5-1.8-7.3
					C985.5,455.1,982.7,457,981.5,460.2z"/>
				<path class="st2" d="M1101.9,506.2c-1.2,3.2-0.4,6.5,1.8,7.3c2.2,0.9,5-1,6.2-4.2c1.2-3.2,0.4-6.5-1.8-7.3
					C1105.9,501.1,1103.1,503,1101.9,506.2z"/>
			</g>
			<g>
				<path class="st2" d="M1010.8,576.3c2.2,0.9,5-1,6.2-4.2c1.2-3.2,0.4-6.5-1.8-7.3c-2.2-0.9-5,1-6.2,4.2
					C1007.7,572.2,1008.5,575.5,1010.8,576.3z"/>
				<path class="st2" d="M1076.3,404.7c2.2,0.9,5-1,6.2-4.2c1.2-3.2,0.4-6.5-1.8-7.3c-2.2-0.9-5,1-6.2,4.2
					C1073.2,400.5,1074,403.8,1076.3,404.7z"/>
			</g>
		</g>
		<path class="st10" d="M1049.7,484.9l21.2,17.9c0.7,0.6,1.7,0.2,2.4-0.9c0.6-1.1,0.6-2.4-0.1-3l-21.2-17.9c0.6-1.7,0.7-3.5,0.3-5.1
			c-0.2-0.7-0.5-1.4-0.8-1.9l13.5-47.6c0,0,0.6-1.4-1.4-1.7c-2-0.3-2.5,2-2.5,2l-12.6,45.5c-1-0.1-2.1,0.2-3.2,1
			c-3,2-4.7,6.5-3.8,10c0.9,3.5,4,4.7,7,2.7C1048.9,485.6,1049.3,485.3,1049.7,484.9z"/>
	</g>
	
		<rect x="1091.7" y="309.7" transform="matrix(0.1654 -0.9862 0.9862 0.1654 609.6278 1351.101)" class="st2" width="22.8" height="11.4"/>
	<polygon class="st2" points="1142.7,321.8 1129.1,335.2 1121.1,327.1 1134.8,313.7 	"/>
	<path class="st7" d="M996.4,490.2c-0.7,14.3,0.5,28.4,3.9,41.7c15.5,61.2,70.4,82.2,122.7,46.9c52.3-35.4,82.2-113.7,66.8-174.9
		c-11-43.5-41.8-66.6-77.5-63.8c29.9,1.1,55,22.3,64.4,59.6c14.4,57.1-13.5,130-62.2,163c-48.7,32.9-99.9,13.4-114.3-43.7
		C997.8,509.7,996.6,500,996.4,490.2z"/>
</g>
<g>
	<path class="st1" d="M1677.4,1147.9l79,45.6l-25.9,15l52.9-1c0.4,0,0.8,0,1.2,0h0v0c1.8-0.1,3.6-0.7,5.2-1.6l256.4-148
		c3.8-2.2,6-6,6-10.4c0-4.4-2.2-8.2-6-10.4L1945.8,979c-3.8-2.2-8.2-2.2-12,0l-256.3,148c-3.8,2.2-6,6-6,10.4
		C1671.4,1141.9,1673.6,1145.7,1677.4,1147.9z"/>
	<g>
		<path class="st7" d="M1711.7,1199.4c7.6,4.4,16.2,4.4,23.7,0l232.6-134.3c15.1-8.7,23.7-23.7,23.7-41.1l0-91.7
			c0-8.7-4.3-16.2-11.9-20.6l-85.5-49.3c-7.6-4.4-16.2-4.4-23.7,0l-232.6,134.3c-15.1,8.7-23.7,23.7-23.7,41.1l0,91.7
			c0,8.7,4.3,16.2,11.9,20.6L1711.7,1199.4z"/>
		<path class="st2" d="M1722.2,1205.4c7.6,4.4,16.2,4.4,23.7,0l232.6-134.3c15.1-8.7,23.7-23.7,23.7-41.1l0-91.7
			c0-8.7-4.3-16.2-11.9-20.6l-85.5-49.3c-7.6-4.4-16.2-4.4-23.7,0l-232.6,134.3c-15.1,8.7-23.7,23.7-23.7,41.1l0,91.7
			c0,8.7,4.3,16.2,11.9,20.6L1722.2,1205.4z"/>
		<path class="st3" d="M2000.3,928.6c-2-4.5-5.3-8.2-9.9-10.9l-85.5-49.3c-7.6-4.4-16.2-4.4-23.7,0l-232.6,134.3
			c-10.9,6.3-18.4,15.8-21.8,27.2c2,4.5,5.3,8.3,9.9,10.9l85.5,49.3c7.6,4.4,16.2,4.4,23.7,0l232.6-134.3
			C1989.4,949.5,1996.9,940,2000.3,928.6z"/>
		<path class="st2" d="M1966.7,917.7L1734,1052c-15.1,8.7-23.7,23.7-23.7,41.1l0,91.7c0,8.7,4.3,16.2,11.9,20.6
			c7.6,4.4,16.2,4.4,23.7,0l232.6-134.3c15.1-8.7,23.7-23.7,23.7-41.1l0-91.7c0-8.7-4.3-16.2-11.9-20.6
			C1982.9,913.4,1974.2,913.4,1966.7,917.7z"/>
		<path class="st15" d="M1973.9,930.3c3.1-1.8,6.2-1.8,9.2,0c3.1,1.8,4.6,4.5,4.6,8l0,91.7c0,12.2-5.9,22.4-16.5,28.6l-232.6,134.3
			c-3.1,1.8-6.2,1.8-9.2,0c-3.1-1.8-4.6-4.5-4.6-8l0-91.7c0-12.2,5.9-22.4,16.5-28.6L1973.9,930.3z"/>
		<path class="st16" d="M1973.9,938.8c3.1-1.8,6.2-1.8,9.2,0c3.1,1.8,4.6,4.5,4.6,8l0,66.4c0,12.2-5.9,22.4-16.5,28.6l-163.8,94.6
			c-3,1.6-6,1.6-9-0.1c-3.1-1.8-4.6-4.5-4.6-8l0-71.6c0-8.7,4.3-16.2,11.9-20.6L1973.9,938.8z"/>
		<path class="st20" d="M1726.4,1081.3l19-11v-8.5h1.1v7.8l30.4-17.5v-8.5h1.1v7.8l30.4-17.5v-8.5h1.1v7.8l30.4-17.5v-8.5h1.1v7.8
			l30.4-17.5v-8.5h1.1v7.8l30.4-17.5v-8.5h1.1v7.8l30.4-17.5v-8.5h1.1v7.8L1966,943v-8.5h1.1v7.8l18.2-10.5l0.6,1l-18.8,10.9v35.1
			l20.3-11.7l0.6,1l-20.9,12.1v35.1l20.3-11.7l0.6,1l-20.9,12.1v35.1l18.5-10.7l0.6,1l-19,11v8.4h-1.1v-7.8l-30.4,17.5v8.4h-1.1
			v-7.8l-30.4,17.5v8.4h-1.1v-7.8l-30.4,17.5v8.5h-1.1v-7.8l-30.4,17.5v8.5h-1.1v-7.8l-30.4,17.5v8.5h-1.1v-7.8l-30.4,17.5v8.5h-1.1
			v-7.8l-30.4,17.5v8.5h-1.1v-7.8l-18.2,10.5l-0.6-1l18.8-10.9v-35.1l-20.3,11.7l-0.6-1l20.9-12.1V1108l-20.3,11.7l-0.6-1l20.9-12.1
			v-35.1l-18.5,10.7L1726.4,1081.3L1726.4,1081.3z M1966,944.3l-30.4,17.5v35.1l30.4-17.5V944.3L1966,944.3z M1934.5,962.5
			l-30.4,17.5v35.1l30.4-17.5V962.5L1934.5,962.5z M1903,980.7l-30.4,17.5v35.1l30.4-17.5V980.7L1903,980.7z M1871.5,998.9
			l-30.4,17.5v35.1l30.4-17.5V998.9L1871.5,998.9z M1840,1017.1l-30.4,17.5v35.1l30.4-17.5V1017.1L1840,1017.1z M1808.4,1035.3
			l-30.4,17.5v35.1l30.4-17.5V1035.3L1808.4,1035.3z M1776.9,1053.5l-30.4,17.5v35.1l30.4-17.5V1053.5L1776.9,1053.5z
			 M1746.6,1107.4v35.1l30.4-17.5v-35.1L1746.6,1107.4L1746.6,1107.4z M1746.6,1143.8v35.1l30.4-17.5v-35.1L1746.6,1143.8
			L1746.6,1143.8z M1778.1,1089.2v35.1l30.4-17.5v-35.1L1778.1,1089.2L1778.1,1089.2z M1778.1,1125.6v35.1l30.4-17.5V1108
			L1778.1,1125.6L1778.1,1125.6z M1809.6,1071v35.1l30.4-17.5v-35.1L1809.6,1071L1809.6,1071z M1809.6,1107.4v35.1l30.4-17.5v-35.1
			L1809.6,1107.4L1809.6,1107.4z M1841.1,1052.8v35.1l30.4-17.5v-35.1L1841.1,1052.8L1841.1,1052.8z M1841.1,1089.2v35.1l30.4-17.5
			v-35.1L1841.1,1089.2L1841.1,1089.2z M1872.6,1034.6v35.1l30.4-17.5v-35.1L1872.6,1034.6L1872.6,1034.6z M1872.6,1071v35.1
			l30.4-17.5v-35.1L1872.6,1071L1872.6,1071z M1904.1,1016.4v35.1l30.4-17.5v-35.1L1904.1,1016.4L1904.1,1016.4z M1904.1,1052.8
			v35.1l30.4-17.5v-35.1L1904.1,1052.8L1904.1,1052.8z M1935.6,998.2v35.1l30.4-17.5v-35.1L1935.6,998.2L1935.6,998.2z
			 M1935.6,1034.6v35.1l30.4-17.5v-35.1L1935.6,1034.6z"/>
		<path class="st21" d="M1974.4,930c2.9-1.5,5.8-1.4,8.7,0.3c3.1,1.8,4.6,4.5,4.6,8l0,91.7c0,12.2-5.9,22.4-16.5,28.6l-232.6,134.3
			c-3.1,1.8-6.2,1.8-9.2,0c-3.1-1.8-4.6-4.5-4.6-8v-0.8c0.2-0.1,0.3-0.2,0.5-0.3l232.6-134.3c10.6-6.1,16.5-16.3,16.5-28.6
			L1974.4,930z"/>
		<path class="st7" d="M1799.6,1110.5c0,0.8-0.3,1.7-0.9,2.6c-0.6,0.9-1.3,1.6-2.1,2.1c-0.8,0.5-1.5,0.6-2.1,0.3
			c-0.6-0.2-0.9-0.8-0.9-1.6v-32.4c0-0.8,0.3-1.7,0.9-2.6c0.6-0.9,1.3-1.6,2.1-2.1c0.8-0.5,1.5-0.6,2.1-0.4c0.6,0.2,0.9,0.8,0.9,1.6
			V1110.5L1799.6,1110.5z M1811.5,1071.2c0-4.1-1.5-6.8-4.4-8c-2.9-1.2-6.4-0.6-10.5,1.7c-4.1,2.4-7.6,5.8-10.5,10.4
			c-2.9,4.6-4.4,8.9-4.4,13v32.7c0,4.1,1.5,6.7,4.4,7.9c2.9,1.2,6.4,0.6,10.5-1.7c4.1-2.4,7.6-5.8,10.5-10.4c2.9-4.6,4.4-9,4.4-13.1
			l0,0V1071.2L1811.5,1071.2z M1845.7,1049.8v-12l-29.9,17.2v29.9l14.9-8.6c0.8-0.5,1.5-0.6,2.1-0.3c0.6,0.2,0.9,0.8,0.9,1.6v13.2
			c0,0.8-0.3,1.7-0.9,2.6c-0.6,0.9-1.3,1.6-2.1,2.1c-0.8,0.5-1.5,0.6-2.1,0.3c-0.6-0.2-0.9-0.8-0.9-1.6v-6.3l-12,6.9v6.3
			c0,4.1,1.5,6.8,4.4,8.1c2.9,1.2,6.4,0.7,10.5-1.7c4.1-2.4,7.7-5.9,10.6-10.5c2.9-4.6,4.4-9,4.4-13.1v-13.3c0-4.1-1.5-6.7-4.4-8
			c-2.9-1.2-6.4-0.7-10.5,1.7l-3,1.8v-6L1845.7,1049.8L1845.7,1049.8z M1861.7,1055.9c0-1.7-0.6-2.7-1.7-3.2
			c-1.2-0.5-2.6-0.3-4.2,0.7c-1.7,1-3.1,2.4-4.3,4.2c-1.2,1.8-1.7,3.6-1.7,5.3c0,1.6,0.6,2.7,1.7,3.2c1.2,0.5,2.6,0.3,4.3-0.7
			c1.6-0.9,3-2.3,4.2-4.2C1861.1,1059.3,1861.7,1057.5,1861.7,1055.9L1861.7,1055.9z M1861.7,1082.5c0-1.6-0.6-2.7-1.7-3.2
			c-1.2-0.5-2.6-0.3-4.2,0.7c-1.7,1-3.1,2.4-4.3,4.2c-1.2,1.8-1.7,3.6-1.7,5.2c0,1.7,0.6,2.7,1.7,3.2c1.2,0.5,2.6,0.3,4.3-0.7
			c1.6-0.9,3-2.3,4.2-4.2C1861.1,1085.9,1861.7,1084.1,1861.7,1082.5L1861.7,1082.5z M1884.8,1061.3c0,0.8-0.3,1.7-0.9,2.6
			c-0.6,0.9-1.3,1.6-2.1,2.1c-0.8,0.5-1.5,0.6-2.1,0.3c-0.6-0.2-0.9-0.8-0.9-1.6v-32.4c0-0.8,0.3-1.7,0.9-2.6
			c0.6-0.9,1.3-1.6,2.1-2.1c0.8-0.5,1.5-0.6,2.1-0.4c0.6,0.2,0.9,0.8,0.9,1.6V1061.3L1884.8,1061.3z M1896.7,1022
			c0-4.1-1.5-6.8-4.4-8c-2.9-1.2-6.4-0.6-10.5,1.7c-4.1,2.4-7.6,5.8-10.5,10.4c-2.9,4.6-4.4,8.9-4.4,13v32.7c0,4.1,1.5,6.7,4.4,7.9
			c2.9,1.2,6.4,0.6,10.5-1.7c4.1-2.4,7.6-5.9,10.5-10.4c2.9-4.6,4.4-9,4.4-13.1l0,0V1022L1896.7,1022z M1919,1041.6
			c0,0.8-0.3,1.7-0.9,2.6c-0.6,0.9-1.3,1.6-2.1,2.1c-0.8,0.5-1.5,0.6-2.1,0.3c-0.6-0.2-0.9-0.8-0.9-1.6v-32.4c0-0.8,0.3-1.7,0.9-2.6
			c0.6-0.9,1.3-1.6,2.1-2.1c0.8-0.5,1.5-0.6,2.1-0.4c0.6,0.2,0.9,0.8,0.9,1.6V1041.6L1919,1041.6z M1930.9,1002.3
			c0-4.1-1.5-6.8-4.4-8c-2.9-1.2-6.4-0.6-10.5,1.7c-4.1,2.4-7.6,5.8-10.5,10.4c-2.9,4.6-4.4,8.9-4.4,13v32.7c0,4.1,1.5,6.7,4.4,7.9
			c2.9,1.2,6.4,0.6,10.5-1.7c4.1-2.4,7.6-5.8,10.5-10.4c2.9-4.6,4.4-9,4.4-13.1l0,0V1002.3z"/>
		<path class="st21" d="M1942.2,973.5l9.3-5.3v4.9l-9.3,5.3V973.5L1942.2,973.5z M1942.2,964v4.9l13.1-7.6v-4.9L1942.2,964z"/>
		<path class="st2" d="M1871.3,957l-44.6,25.7c-6,3.5-12.9,3.5-19,0l-10.4-6c-3-1.7-4.7-4.7-4.7-8.2c0-3.5,1.7-6.5,4.7-8.2
			l44.6-25.7c6-3.5,12.9-3.5,19,0l10.4,6c3,1.7,4.7,4.7,4.7,8.2C1876,952.3,1874.3,955.3,1871.3,957z"/>
		<path class="st2" d="M1924.8,925.4l-27.4,15.8c-6,3.5-12.9,3.5-19,0l-10.4-6c-3-1.7-4.7-4.7-4.7-8.2c0-3.5,1.7-6.5,4.7-8.2
			l27.4-15.8c6-3.5,12.9-3.5,19,0l10.4,6c3,1.7,4.7,4.7,4.7,8.2C1929.6,920.7,1927.8,923.7,1924.8,925.4z"/>
		<g>
			<path class="st15" d="M1852.5,900.9v21.2c0,3.5,1.7,6.5,4.7,8.2l10.4,6c6,3.5,12.9,3.5,19,0l27.4-15.8c3-1.7,4.7-4.7,4.7-8.2
				v-21.2c0-3.5-1.7-6.5-4.7-8.2l-10.4-6c-6-3.5-12.9-3.5-19,0l-27.4,15.8C1854.2,894.5,1852.5,897.5,1852.5,900.9z"/>
			<path class="st16" d="M1914,899.4l-27.4,15.8c-6,3.5-12.9,3.5-19,0l-10.4-6c-3-1.7-4.7-4.7-4.7-8.2s1.7-6.5,4.7-8.2l27.4-15.8
				c6-3.5,12.9-3.5,19,0l10.4,6c3,1.7,4.7,4.7,4.7,8.2C1918.7,894.7,1917,897.7,1914,899.4z"/>
		</g>
		<g>
			<path class="st1" d="M1781.7,942.5v21.2c0,3.5,1.7,6.5,4.7,8.2l10.4,6c6,3.5,12.9,3.5,19,0l44.6-25.7c3-1.7,4.7-4.7,4.7-8.2
				v-21.2c0-3.5-1.7-6.5-4.7-8.2l-10.4-6c-6-3.5-12.9-3.5-19,0l-44.6,25.7C1783.4,936,1781.7,939,1781.7,942.5z"/>
			<path class="st5" d="M1860.4,931l-44.6,25.7c-6,3.5-12.9,3.5-19,0l-10.4-6c-3-1.7-4.7-4.7-4.7-8.2c0-3.5,1.7-6.5,4.7-8.2
				l44.6-25.7c6-3.5,12.9-3.5,19,0l10.4,6c3,1.7,4.7,4.7,4.7,8.2S1863.5,929.3,1860.4,931z"/>
		</g>
	</g>
</g>
<g>
	<path class="st7" d="M1934.7,1027.7c0,0,43.3-62,120-57.4c76.8,4.6,85.9-32.1,85.9-32.1s-14.8,48-87.3,42.3
		C1980.9,974.8,1934.7,1027.7,1934.7,1027.7z"/>
	<path class="st7" d="M1372.8,1233.9c0,0-51.3,32.3-67.5,4.2c-16.2-28.1,20.6-34.7,20.6-34.7
		C1294.7,1217.9,1312.9,1266.4,1372.8,1233.9z"/>
</g>
</svg>
