<svg width="136" height="136" viewBox="0 0 136 136" fill="none" xmlns="http://www.w3.org/2000/svg">
<path d="M132.926 132.971C130.987 134.9 128.364 135.983 125.628 135.983C122.893 135.983 120.269 134.9 118.331 132.971L87.157 101.797C86.1139 100.858 85.2727 99.7167 84.6847 98.4425C84.0966 97.1683 83.774 95.7878 83.7364 94.3849C83.6988 92.9821 83.9471 91.5863 84.4661 90.2824C84.985 88.9786 85.7639 87.7939 86.7553 86.8007C87.7466 85.8074 88.9297 85.0262 90.2326 84.5047C91.5354 83.9832 92.9308 83.7322 94.3337 83.767C95.7366 83.8019 97.1177 84.1219 98.3931 84.7075C99.6684 85.293 100.811 86.132 101.752 87.1733L132.926 118.489C134.835 120.415 135.906 123.018 135.906 125.73C135.906 128.442 134.835 131.044 132.926 132.971Z" fill="#DFE8F4"/>
<path d="M33.3397 89.4687C26.7059 84.3791 21.833 77.3394 19.4055 69.3382C16.978 61.3371 17.1177 52.7765 19.8051 44.8589C22.4925 36.9413 27.5925 30.0643 34.3889 25.194C41.1853 20.3236 49.3365 17.7045 57.6978 17.7045C66.0591 17.7045 74.2103 20.3236 81.0067 25.194C87.8031 30.0643 92.9031 36.9413 95.5905 44.8589C98.2779 52.7765 98.4176 61.3371 95.9901 69.3382C93.5626 77.3394 88.6897 84.3791 82.0559 89.4687C75.0658 94.8257 66.5046 97.7289 57.6978 97.7289C48.891 97.7289 40.3298 94.8257 33.3397 89.4687Z" fill="#445BB8"/>
<path d="M132.756 118.177L116.574 102.108C113.555 99.1449 111.459 95.3708 110.539 91.242C109.619 87.1132 109.913 82.8063 111.388 78.8413C116.244 66.5094 116.706 52.8816 112.698 40.2487C108.689 27.6158 100.454 16.748 89.3758 9.4721C78.2979 2.19622 65.0529 -1.04415 51.8671 0.295679C38.6814 1.63551 26.3588 7.47386 16.9709 16.8293C7.58289 26.1848 1.70183 38.487 0.316263 51.668C-1.0693 64.849 2.12509 78.1052 9.3625 89.2083C16.5999 100.311 27.4391 108.584 40.058 112.637C52.6769 116.689 66.3062 116.274 78.6549 111.461C82.643 110.008 86.9648 109.732 91.1051 110.667C95.2455 111.601 99.0298 113.707 102.007 116.732L118.217 132.971C119.306 134.059 120.625 134.891 122.076 135.406C123.528 135.92 125.076 136.104 126.608 135.944C128.139 135.784 129.616 135.283 130.93 134.48C132.243 133.676 133.361 132.589 134.201 131.298C135.495 129.275 136.057 126.87 135.794 124.483C135.531 122.095 134.459 119.87 132.756 118.177ZM33.3395 89.4688C26.7057 84.3792 21.8328 77.3394 19.4053 69.3383C16.9778 61.3372 17.1175 52.7766 19.8049 44.859C22.4923 36.9413 27.5923 30.0644 34.3887 25.194C41.1851 20.3237 49.3363 17.7046 57.6976 17.7046C66.0589 17.7046 74.2101 20.3237 81.0065 25.194C87.8029 30.0644 92.9029 36.9413 95.5903 44.859C98.2777 52.7766 98.4174 61.3372 95.9899 69.3383C93.5624 77.3394 88.6895 84.3792 82.0557 89.4688C75.0656 94.8258 66.5044 97.729 57.6976 97.729C48.8908 97.729 40.3296 94.8258 33.3395 89.4688Z" fill="#DFE8F4"/>
<path d="M123.12 108.542L108.497 123.137L118.331 132.971C120.266 134.906 122.891 135.993 125.628 135.993C128.365 135.993 130.99 134.906 132.926 132.971C134.861 131.035 135.949 128.41 135.949 125.673C135.949 122.936 134.861 120.311 132.926 118.376L123.12 108.542Z" fill="#445BB8"/>
<path d="M123.113 108.542L108.504 123.15L112.933 127.579L127.542 112.97L123.113 108.542Z" fill="#618BE0"/>
<path d="M66.6107 39.5055H40.6797V48.801H66.6107L69.303 44.1532L66.6107 39.5055Z" fill="white"/>
<path d="M58.8456 53.1088H40.6797V62.3759H58.8456L61.5095 57.7282L58.8456 53.1088Z" fill="white"/>
<path d="M78.0317 66.6835H40.6797V75.979H78.0317L80.6956 71.3313L78.0317 66.6835Z" fill="#DFE8F4"/>
</svg>
