<svg width="34" height="25" viewBox="0 0 34 25" fill="none" xmlns="http://www.w3.org/2000/svg">
<path d="M15.2501 25C15.2501 25 13.1667 25 13.1667 22.9167C13.1667 20.8333 15.2501 14.5833 23.5834 14.5833C31.9167 14.5833 34.0001 20.8333 34.0001 22.9167C34.0001 25 31.9167 25 31.9167 25H15.2501ZM23.5834 12.5C25.241 12.5 26.8307 11.8415 28.0028 10.6694C29.1749 9.49731 29.8334 7.9076 29.8334 6.25C29.8334 4.5924 29.1749 3.00269 28.0028 1.83058C26.8307 0.65848 25.241 0 23.5834 0C21.9258 0 20.3361 0.65848 19.164 1.83058C17.9919 3.00269 17.3334 4.5924 17.3334 6.25C17.3334 7.9076 17.9919 9.49731 19.164 10.6694C20.3361 11.8415 21.9258 12.5 23.5834 12.5Z" fill="white"/>
<path fill-rule="evenodd" clip-rule="evenodd" d="M11.5334 25C11.2246 24.3496 11.0705 23.6365 11.0834 22.9167C11.0834 20.0937 12.5001 17.1875 15.1167 15.1667C13.8107 14.7642 12.45 14.5674 11.0834 14.5833C2.75008 14.5833 0.666748 20.8333 0.666748 22.9167C0.666748 25 2.75008 25 2.75008 25H11.5334Z" fill="white"/>
<path d="M10.0416 12.5C11.4229 12.5 12.7477 11.9512 13.7244 10.9745C14.7012 9.99774 15.2499 8.67298 15.2499 7.29165C15.2499 5.91031 14.7012 4.58555 13.7244 3.6088C12.7477 2.63205 11.4229 2.08331 10.0416 2.08331C8.66025 2.08331 7.33549 2.63205 6.35874 3.6088C5.38199 4.58555 4.83325 5.91031 4.83325 7.29165C4.83325 8.67298 5.38199 9.99774 6.35874 10.9745C7.33549 11.9512 8.66025 12.5 10.0416 12.5V12.5Z" fill="white"/>
</svg>
