<svg width="37" height="37" viewBox="0 0 37 37" fill="none" xmlns="http://www.w3.org/2000/svg">
<path d="M29.2069 4.625H7.79312C6.04342 4.625 4.625 6.04342 4.625 7.79312V29.2069C4.625 30.9566 6.04342 32.375 7.79312 32.375H29.2069C30.9566 32.375 32.375 30.9566 32.375 29.2069V7.79312C32.375 6.04342 30.9566 4.625 29.2069 4.625Z" fill="#DFE8F4"/>
<path d="M32.375 28.1489V26.7267C32.1488 26.5607 31.9362 26.3771 31.7391 26.1775C31.5024 25.9216 31.2166 25.7161 30.8988 25.573C30.5809 25.43 30.2375 25.3524 29.8891 25.345C28.7328 25.345 27.8194 26.1833 26.9175 27.1256C26.8678 27.1766 26.8136 27.223 26.7556 27.2644C26.322 27.2123 25.0212 26.0387 23.7436 24.8998L23.2464 24.4547C22.1504 23.3523 20.6777 22.7058 19.1244 22.6451C16.6847 22.6451 14.5572 24.5067 12.7997 26.3336C11.8978 27.2701 11.0653 27.7442 10.2733 27.7442C9.37719 27.7442 8.6025 27.1256 7.96078 26.6284L7.70062 26.4203C7.16741 26.0667 6.53611 25.8907 5.89687 25.9173C5.46588 25.9057 5.03598 25.9662 4.625 26.0965V27.3222L5.01234 27.1719H5.07016C5.33624 27.0914 5.61313 27.0524 5.89109 27.0562C6.27569 27.0319 6.65865 27.1246 6.98953 27.3222L7.25547 27.5303C7.97813 28.1084 8.98984 28.9005 10.2733 28.9005C11.3775 28.9005 12.5048 28.3223 13.6322 27.1372C15.222 25.4837 17.1009 23.8014 19.1244 23.8014C20.3931 23.8702 21.5898 24.4128 22.4775 25.3219L22.9689 25.767C25.0848 27.6575 25.8884 28.3223 26.6227 28.409L27.01 28.4553L27.3453 28.253C27.4951 28.1628 27.6314 28.0519 27.75 27.9234C28.6172 27.0215 29.2473 26.5012 29.8891 26.5012C30.087 26.5102 30.281 26.5589 30.4598 26.6443C30.6385 26.7297 30.7983 26.8501 30.9297 26.9984C31.1686 27.2416 31.4277 27.4641 31.7044 27.6633L32.375 28.1489Z" fill="#CCD8E5"/>
<path d="M4.62488 19.8991C4.6225 19.7327 4.65371 19.5675 4.71665 19.4135C4.77958 19.2594 4.87294 19.1197 4.99114 19.0026C5.10934 18.8854 5.24996 18.7934 5.40457 18.7318C5.55919 18.6703 5.72462 18.6406 5.89098 18.6445C6.12065 18.6423 6.34616 18.706 6.54082 18.8279C6.73547 18.9498 6.89114 19.1249 6.98941 19.3325V19.3672C7.68895 20.7605 8.78738 23.4141 10.2558 23.4141C11.2213 23.4141 12.3429 22.2578 13.6147 18.8527C15.6093 13.5166 17.3379 10.2386 19.1069 10.2386C20.188 10.2386 21.2807 11.4527 22.46 14.1641C24.7032 19.3325 25.8536 22.1653 26.7555 22.1653C27.1024 22.1653 27.4146 21.7491 27.7325 20.8819C28.5072 18.8006 29.1836 17.205 29.8716 17.205C30.2127 17.205 30.5538 17.5924 30.9122 18.5C31.1872 19.3012 31.5621 20.0646 32.028 20.772C32.2514 21.0622 32.3732 21.4176 32.3749 21.7838V18.9625C32.265 18.7197 32.1436 18.4249 32.0049 18.078C31.7852 17.4999 31.2071 16.0488 29.8889 16.0488C28.4263 16.0488 27.6632 17.7831 26.6688 20.483C26.0329 19.425 25.0616 17.1761 24.0441 14.8289L23.5469 13.6727C22.6855 11.6897 21.2922 9.04767 19.1358 9.04767C16.5689 9.04767 14.7189 12.632 12.5625 18.4133C11.1808 22.1191 10.2963 22.2231 10.2847 22.2231C9.90316 22.2231 9.23254 21.2461 8.30754 19.3325C8.22082 19.1475 8.1341 18.9741 8.05316 18.818V18.7717C7.8564 18.3745 7.5522 18.0405 7.17511 17.8075C6.79802 17.5745 6.36315 17.4519 5.91988 17.4536C5.45953 17.4583 5.01016 17.5947 4.62488 17.8467V19.8991Z" fill="#CCD8E5"/>
<path d="M4.625 26.0966C5.02947 25.9623 5.45337 25.8958 5.87953 25.9C6.51876 25.8734 7.15007 26.0494 7.68328 26.403L7.94344 26.6111C8.56781 27.1083 9.3425 27.7269 10.2559 27.7269C11.0306 27.7269 11.8805 27.2528 12.7823 26.3162C14.5167 24.4894 16.6673 22.6278 19.107 22.6278C20.6603 22.6885 22.1331 23.335 23.2291 24.4373L23.7262 24.8825C24.9923 26.0387 26.3047 27.195 26.7383 27.247C26.7962 27.2057 26.8504 27.1592 26.9002 27.1083C27.802 26.1659 28.7039 25.3277 29.8717 25.3277C30.2202 25.3351 30.5636 25.4127 30.8814 25.5557C31.1993 25.6987 31.485 25.9043 31.7217 26.1602C31.9188 26.3598 32.1315 26.5434 32.3577 26.7094V21.7837C32.361 21.4196 32.2453 21.0643 32.0281 20.772C31.5682 20.0637 31.1992 19.3004 30.9297 18.5C29.8428 15.7539 28.9062 17.7773 27.75 20.8819C26.5938 23.9864 25.582 21.3212 22.4775 14.1641C19.373 7.00687 16.835 10.2617 13.6322 18.8527C10.4294 27.4436 8.16313 21.6797 7.00688 19.3672V19.3325C6.88002 19.0799 6.67125 18.8779 6.41468 18.7594C6.15811 18.6408 5.86893 18.6128 5.59439 18.68C5.31985 18.7471 5.0762 18.9053 4.90327 19.1289C4.73034 19.3524 4.63835 19.628 4.64234 19.9106V26.1023L4.625 26.0966Z" fill="#0795FF"/>
<path d="M21.3905 24.5183C20.8942 24.1976 20.3407 23.9758 19.7602 23.865L11.2676 32.375H13.5801L21.3905 24.5183Z" fill="#156CDD"/>
<path d="M11.3716 28.7097C10.6425 28.9808 9.84024 28.9808 9.11113 28.7097L5.98926 31.7969C6.49625 32.1593 7.10059 32.3607 7.72363 32.375L11.3716 28.7097Z" fill="#156CDD"/>
<path d="M19.2053 23.8014C17.4073 23.7667 15.6556 25.0386 13.6321 27.1372C13.416 27.3537 13.1883 27.5583 12.95 27.75L8.32495 32.375H10.6375L19.2053 23.8014Z" fill="#156CDD"/>
<path d="M4.625 27.5419V29.2069C4.625 29.3341 4.625 29.4613 4.625 29.5827L6.9375 27.2702C6.30734 26.877 4.625 27.0447 4.625 27.5419Z" fill="#156CDD"/>
<path d="M7.30181 27.5708L4.75806 30.1145C4.9184 30.6554 5.22204 31.1428 5.63681 31.5251L8.67196 28.49C8.18475 28.2317 7.72558 27.9236 7.30181 27.5708Z" fill="#156CDD"/>
<path d="M30.7678 26.8597C29.7503 26.0156 28.8484 26.7788 27.75 27.9234C27.5393 28.1668 27.2553 28.3352 26.9406 28.4033L22.9631 32.375H25.2756L30.7678 26.8597Z" fill="#156CDD"/>
<path d="M23.0324 25.8191L22.4543 25.3219C22.2353 25.128 22.0056 24.9466 21.7663 24.7784L14.1929 32.375H16.4765L23.0324 25.8191Z" fill="#156CDD"/>
<path d="M28.8137 32.375H29.2068C30.0471 32.375 30.8529 32.0412 31.447 31.4471C32.0412 30.8529 32.375 30.0471 32.375 29.2069V28.8138L28.8137 32.375Z" fill="#156CDD"/>
<path d="M32.3749 28.1894C32.315 28.0503 32.2029 27.9403 32.0627 27.883C31.7121 27.6905 31.3893 27.4513 31.103 27.1719L25.8999 32.375H28.1835L32.3749 28.1894Z" fill="#156CDD"/>
<path d="M24.5933 27.1719C24.2291 26.8712 23.8244 26.5186 23.3735 26.1081L17.1182 32.375H19.4307L24.5933 27.1719Z" fill="#156CDD"/>
<path d="M26.3567 28.3281C25.8386 28.1195 25.3596 27.8243 24.9403 27.4552L20.0378 32.375H22.3503L26.3567 28.3281Z" fill="#156CDD"/>
</svg>
