<svg width="219" height="48" viewBox="0 0 219 48" fill="none" xmlns="http://www.w3.org/2000/svg">
<path d="M78.6589 13.996H81.7949C82.1123 13.996 82.2709 14.1547 82.2709 14.472V31.524C82.2709 31.8413 82.1123 32 81.7949 32H80.0589C79.7416 32 79.5829 31.8413 79.5829 31.524V17.384H79.4709L75.8309 27.632C75.7189 27.9307 75.5136 28.08 75.2149 28.08H73.4229C73.1429 28.08 72.9469 27.9307 72.8349 27.632L69.1109 17.356H68.9989V31.524C68.9989 31.7107 68.9616 31.8413 68.8869 31.916C68.8309 31.972 68.7096 32 68.5229 32H66.8149C66.4976 32 66.3389 31.8413 66.3389 31.524V14.472C66.3389 14.1547 66.4976 13.996 66.8149 13.996H69.9509C70.1563 13.996 70.3056 14.0987 70.3989 14.304L74.2349 25.112H74.3749L78.2389 14.304C78.2763 14.0987 78.4163 13.996 78.6589 13.996ZM92.5985 32H90.1345C88.7532 32 87.6799 31.6173 86.9145 30.852C86.1679 30.0867 85.7945 29.0227 85.7945 27.66V22.06C85.7945 20.6787 86.1679 19.6147 86.9145 18.868C87.6799 18.1027 88.7532 17.72 90.1345 17.72H92.5985C93.9612 17.72 95.0252 18.1027 95.7905 18.868C96.5745 19.6147 96.9665 20.6787 96.9665 22.06V27.66C96.9665 29.0227 96.5745 30.0867 95.7905 30.852C95.0252 31.6173 93.9612 32 92.5985 32ZM90.5265 29.62H92.2345C93.5785 29.62 94.2505 28.9387 94.2505 27.576V22.144C94.2505 20.7813 93.5785 20.1 92.2345 20.1H90.5265C89.8172 20.1 89.3039 20.268 88.9865 20.604C88.6692 20.9213 88.5105 21.4347 88.5105 22.144V27.576C88.5105 28.2853 88.6692 28.808 88.9865 29.144C89.3039 29.4613 89.8172 29.62 90.5265 29.62ZM105.504 32H104.076C102.732 32 101.696 31.6267 100.968 30.88C100.259 30.1147 99.9039 29.0413 99.9039 27.66V22.06C99.9039 20.66 100.259 19.5867 100.968 18.84C101.696 18.0933 102.732 17.72 104.076 17.72H105.504C106.941 17.72 107.875 18.2147 108.304 19.204H108.416V12.792C108.416 12.4747 108.575 12.316 108.892 12.316H110.684C111.001 12.316 111.16 12.4747 111.16 12.792V31.524C111.16 31.8413 111.001 32 110.684 32H108.892C108.575 32 108.416 31.8413 108.416 31.524V30.516H108.304C107.875 31.5053 106.941 32 105.504 32ZM108.416 27.24V22.48C108.416 20.8933 107.651 20.1 106.12 20.1H104.636C103.292 20.1 102.62 20.7907 102.62 22.172V27.548C102.62 28.9293 103.292 29.62 104.636 29.62H106.12C107.651 29.62 108.416 28.8267 108.416 27.24ZM124.784 32H118.736C117.355 32 116.281 31.6173 115.516 30.852C114.769 30.0867 114.396 29.0227 114.396 27.66V22.06C114.396 20.6787 114.769 19.6147 115.516 18.868C116.281 18.1027 117.355 17.72 118.736 17.72H121.032C122.413 17.72 123.487 18.1027 124.252 18.868C125.017 19.6147 125.4 20.6787 125.4 22.06V25.616C125.4 25.952 125.232 26.12 124.896 26.12H117.392C117.187 26.12 117.084 26.2133 117.084 26.4V27.604C117.084 28.9667 117.765 29.648 119.128 29.648H124.784C125.12 29.648 125.288 29.816 125.288 30.152V31.552C125.288 31.8507 125.12 32 124.784 32ZM117.392 24.216H122.404C122.591 24.216 122.684 24.1227 122.684 23.936V22.144C122.684 21.4347 122.525 20.9213 122.208 20.604C121.891 20.268 121.377 20.1 120.668 20.1H119.128C118.419 20.1 117.905 20.268 117.588 20.604C117.271 20.9213 117.112 21.4347 117.112 22.144V23.936C117.112 24.1227 117.205 24.216 117.392 24.216ZM130.725 32H128.961C128.643 32 128.485 31.8413 128.485 31.524V18.196C128.485 17.8787 128.643 17.72 128.961 17.72H130.725C131.042 17.72 131.201 17.8787 131.201 18.196V19.26H131.313C131.499 18.7933 131.854 18.42 132.377 18.14C132.918 17.86 133.515 17.72 134.169 17.72H135.205C135.522 17.72 135.681 17.8787 135.681 18.196V19.652C135.681 20.0067 135.522 20.156 135.205 20.1H133.525C131.975 20.1 131.201 20.9493 131.201 22.648V31.524C131.201 31.8413 131.042 32 130.725 32ZM140.104 32H138.34C138.022 32 137.864 31.8413 137.864 31.524V18.196C137.864 17.8787 138.022 17.72 138.34 17.72H140.104C140.421 17.72 140.58 17.8787 140.58 18.196V19.204H140.692C141.14 18.2147 142.082 17.72 143.52 17.72H144.752C146.114 17.72 147.16 18.0933 147.888 18.84C148.616 19.5867 148.98 20.66 148.98 22.06V31.524C148.98 31.8413 148.812 32 148.476 32H146.712C146.394 32 146.236 31.8413 146.236 31.524V22.172C146.236 20.7907 145.554 20.1 144.192 20.1H142.876C141.345 20.1 140.58 20.8933 140.58 22.48V31.524C140.58 31.8413 140.421 32 140.104 32ZM158.944 27.632V26.904C158.944 26.5867 159.103 26.428 159.42 26.428H161.212C161.53 26.428 161.688 26.5867 161.688 26.904V27.408C161.688 28.192 161.856 28.7613 162.192 29.116C162.547 29.452 163.126 29.62 163.928 29.62H165.86C166.663 29.62 167.242 29.4427 167.596 29.088C167.951 28.7147 168.128 28.1173 168.128 27.296V26.652C168.128 26.0547 167.895 25.588 167.428 25.252C166.98 24.8973 166.42 24.6733 165.748 24.58C165.076 24.468 164.339 24.3187 163.536 24.132C162.734 23.9453 161.996 23.7307 161.324 23.488C160.652 23.2453 160.083 22.788 159.616 22.116C159.168 21.444 158.944 20.5853 158.944 19.54V18.364C158.944 17.0013 159.327 15.9373 160.092 15.172C160.876 14.388 161.95 13.996 163.312 13.996H166.28C167.662 13.996 168.735 14.388 169.5 15.172C170.284 15.9373 170.676 17.0013 170.676 18.364V18.98C170.676 19.2973 170.518 19.456 170.2 19.456H168.408C168.091 19.456 167.932 19.2973 167.932 18.98V18.616C167.932 17.8133 167.755 17.244 167.4 16.908C167.064 16.5533 166.495 16.376 165.692 16.376H163.928C163.126 16.376 162.547 16.5627 162.192 16.936C161.856 17.2907 161.688 17.9067 161.688 18.784V19.652C161.688 20.492 162.295 21.0613 163.508 21.36C164.05 21.4907 164.638 21.6027 165.272 21.696C165.926 21.7893 166.579 21.9293 167.232 22.116C167.886 22.3027 168.483 22.5547 169.024 22.872C169.566 23.1707 170.004 23.6373 170.34 24.272C170.676 24.888 170.844 25.644 170.844 26.54V27.632C170.844 28.9947 170.452 30.068 169.668 30.852C168.903 31.6173 167.839 32 166.476 32H163.34C161.978 32 160.904 31.6173 160.12 30.852C159.336 30.068 158.944 28.9947 158.944 27.632ZM174.76 20.1H173.416C173.23 20.1 173.099 20.072 173.024 20.016C172.968 19.9413 172.94 19.82 172.94 19.652V18.196C172.94 17.8787 173.099 17.72 173.416 17.72H174.76C174.947 17.72 175.04 17.6267 175.04 17.44V14.92C175.04 14.6027 175.208 14.444 175.544 14.444H177.308C177.626 14.444 177.784 14.6027 177.784 14.92V17.44C177.784 17.6267 177.887 17.72 178.092 17.72H180.696C181.032 17.72 181.2 17.8787 181.2 18.196V19.652C181.2 19.9507 181.032 20.1 180.696 20.1H178.092C177.887 20.1 177.784 20.1933 177.784 20.38V27.576C177.784 28.9387 178.484 29.62 179.884 29.62H180.976C181.312 29.62 181.48 29.7787 181.48 30.096V31.552C181.48 31.8507 181.312 32 180.976 32H179.464C178.083 32 177 31.6267 176.216 30.88C175.432 30.1333 175.04 29.0787 175.04 27.716V20.38C175.04 20.1933 174.947 20.1 174.76 20.1ZM189.309 32H188.217C186.835 32 185.762 31.6173 184.997 30.852C184.25 30.0867 183.877 29.0227 183.877 27.66V22.06C183.877 20.6787 184.25 19.6147 184.997 18.868C185.762 18.1027 186.835 17.72 188.217 17.72H194.489C194.825 17.72 194.993 17.8787 194.993 18.196V31.524C194.993 31.8413 194.825 32 194.489 32H192.725C192.407 32 192.249 31.8413 192.249 31.524V30.516H192.137C191.689 31.5053 190.746 32 189.309 32ZM192.249 27.24V20.38C192.249 20.1933 192.146 20.1 191.941 20.1H188.609C187.265 20.1 186.593 20.7907 186.593 22.172V27.548C186.593 28.9293 187.265 29.62 188.609 29.62H189.953C191.483 29.62 192.249 28.8267 192.249 27.24ZM198.905 20.1H197.561C197.374 20.1 197.243 20.072 197.169 20.016C197.113 19.9413 197.085 19.82 197.085 19.652V18.196C197.085 17.8787 197.243 17.72 197.561 17.72H198.905C199.091 17.72 199.185 17.6267 199.185 17.44V14.92C199.185 14.6027 199.353 14.444 199.689 14.444H201.453C201.77 14.444 201.929 14.6027 201.929 14.92V17.44C201.929 17.6267 202.031 17.72 202.237 17.72H204.841C205.177 17.72 205.345 17.8787 205.345 18.196V19.652C205.345 19.9507 205.177 20.1 204.841 20.1H202.237C202.031 20.1 201.929 20.1933 201.929 20.38V27.576C201.929 28.9387 202.629 29.62 204.029 29.62H205.121C205.457 29.62 205.625 29.7787 205.625 30.096V31.552C205.625 31.8507 205.457 32 205.121 32H203.609C202.227 32 201.145 31.6267 200.361 30.88C199.577 30.1333 199.185 29.0787 199.185 27.716V20.38C199.185 20.1933 199.091 20.1 198.905 20.1ZM213.397 32H208.245C207.928 32 207.769 31.8413 207.769 31.524V30.152C207.769 29.8533 207.928 29.704 208.245 29.704H212.949C214.162 29.704 214.769 29.284 214.769 28.444V28.108C214.769 27.3613 214.33 26.792 213.453 26.4L210.401 24.944C209.449 24.496 208.758 24.0013 208.329 23.46C207.9 22.9187 207.685 22.2093 207.685 21.332C207.685 18.924 209.02 17.72 211.689 17.72H216.337C216.636 17.72 216.785 17.8787 216.785 18.196V19.568C216.785 19.8853 216.636 20.044 216.337 20.044H212.249C211.689 20.044 211.26 20.1467 210.961 20.352C210.662 20.5387 210.513 20.7907 210.513 21.108V21.416C210.513 22.0133 210.989 22.536 211.941 22.984L215.021 24.552C215.992 24.9813 216.654 25.4947 217.009 26.092C217.382 26.6707 217.569 27.4267 217.569 28.36C217.569 30.7867 216.178 32 213.397 32Z" fill="white"/>
<path d="M7.2 0H0.91C0.407421 0 0 0.407421 0 0.91V7.2C0 7.70258 0.407421 8.11 0.91 8.11H7.2C7.70258 8.11 8.11 7.70258 8.11 7.2V0.91C8.11 0.407421 7.70258 0 7.2 0Z" fill="#DFE8F4"/>
<path d="M17.17 0H10.88C10.3774 0 9.96997 0.407421 9.96997 0.91V7.2C9.96997 7.70258 10.3774 8.11 10.88 8.11H17.17C17.6726 8.11 18.08 7.70258 18.08 7.2V0.91C18.08 0.407421 17.6726 0 17.17 0Z" fill="#DFE8F4"/>
<path d="M27.1399 0H20.8499C20.3474 0 19.9399 0.407421 19.9399 0.91V7.2C19.9399 7.70258 20.3474 8.11 20.8499 8.11H27.1399C27.6425 8.11 28.0499 7.70258 28.0499 7.2V0.91C28.0499 0.407421 27.6425 0 27.1399 0Z" fill="#DFE8F4"/>
<path d="M37.1099 0H30.8199C30.3173 0 29.9099 0.407421 29.9099 0.91V7.2C29.9099 7.70258 30.3173 8.11 30.8199 8.11H37.1099C37.6125 8.11 38.0199 7.70258 38.0199 7.2V0.91C38.0199 0.407421 37.6125 0 37.1099 0Z" fill="#DFE8F4"/>
<path d="M47.0901 0H40.8001C40.2976 0 39.8901 0.407421 39.8901 0.91V7.2C39.8901 7.70258 40.2976 8.11 40.8001 8.11H47.0901C47.5927 8.11 48.0001 7.70258 48.0001 7.2V0.91C48.0001 0.407421 47.5927 0 47.0901 0Z" fill="#CA9E9E"/>
<path d="M7.2 9.96997H0.91C0.407421 9.96997 0 10.3774 0 10.88V17.17C0 17.6726 0.407421 18.08 0.91 18.08H7.2C7.70258 18.08 8.11 17.6726 8.11 17.17V10.88C8.11 10.3774 7.70258 9.96997 7.2 9.96997Z" fill="#DFE8F4"/>
<path d="M17.17 9.96997H10.88C10.3774 9.96997 9.96997 10.3774 9.96997 10.88V17.17C9.96997 17.6726 10.3774 18.08 10.88 18.08H17.17C17.6726 18.08 18.08 17.6726 18.08 17.17V10.88C18.08 10.3774 17.6726 9.96997 17.17 9.96997Z" fill="#DFE8F4"/>
<path d="M27.1399 9.96997H20.8499C20.3474 9.96997 19.9399 10.3774 19.9399 10.88V17.17C19.9399 17.6726 20.3474 18.08 20.8499 18.08H27.1399C27.6425 18.08 28.0499 17.6726 28.0499 17.17V10.88C28.0499 10.3774 27.6425 9.96997 27.1399 9.96997Z" fill="#DFE8F4"/>
<path d="M37.1099 9.96997H30.8199C30.3173 9.96997 29.9099 10.3774 29.9099 10.88V17.17C29.9099 17.6726 30.3173 18.08 30.8199 18.08H37.1099C37.6125 18.08 38.0199 17.6726 38.0199 17.17V10.88C38.0199 10.3774 37.6125 9.96997 37.1099 9.96997Z" fill="#CA9E9E"/>
<path d="M47.0901 9.96997H40.8001C40.2976 9.96997 39.8901 10.3774 39.8901 10.88V17.17C39.8901 17.6726 40.2976 18.08 40.8001 18.08H47.0901C47.5927 18.08 48.0001 17.6726 48.0001 17.17V10.88C48.0001 10.3774 47.5927 9.96997 47.0901 9.96997Z" fill="#CA9E9E"/>
<path d="M7.2 19.9399H0.91C0.407421 19.9399 0 20.3474 0 20.8499V27.1399C0 27.6425 0.407421 28.0499 0.91 28.0499H7.2C7.70258 28.0499 8.11 27.6425 8.11 27.1399V20.8499C8.11 20.3474 7.70258 19.9399 7.2 19.9399Z" fill="#CCD8E5"/>
<path d="M17.17 19.9399H10.88C10.3774 19.9399 9.96997 20.3474 9.96997 20.8499V27.1399C9.96997 27.6425 10.3774 28.0499 10.88 28.0499H17.17C17.6726 28.0499 18.08 27.6425 18.08 27.1399V20.8499C18.08 20.3474 17.6726 19.9399 17.17 19.9399Z" fill="#CCD8E5"/>
<path d="M27.1399 19.9399H20.8499C20.3474 19.9399 19.9399 20.3474 19.9399 20.8499V27.1399C19.9399 27.6425 20.3474 28.0499 20.8499 28.0499H27.1399C27.6425 28.0499 28.0499 27.6425 28.0499 27.1399V20.8499C28.0499 20.3474 27.6425 19.9399 27.1399 19.9399Z" fill="#CA9E9E"/>
<path d="M37.1099 19.9399H30.8199C30.3173 19.9399 29.9099 20.3474 29.9099 20.8499V27.1399C29.9099 27.6425 30.3173 28.0499 30.8199 28.0499H37.1099C37.6125 28.0499 38.0199 27.6425 38.0199 27.1399V20.8499C38.0199 20.3474 37.6125 19.9399 37.1099 19.9399Z" fill="#CA9E9E"/>
<path d="M47.0901 19.9399H40.8001C40.2976 19.9399 39.8901 20.3474 39.8901 20.8499V27.1399C39.8901 27.6425 40.2976 28.0499 40.8001 28.0499H47.0901C47.5927 28.0499 48.0001 27.6425 48.0001 27.1399V20.8499C48.0001 20.3474 47.5927 19.9399 47.0901 19.9399Z" fill="#CA9E9E"/>
<path d="M7.2 29.9099H0.91C0.407421 29.9099 0 30.3173 0 30.8199V37.1099C0 37.6125 0.407421 38.0199 0.91 38.0199H7.2C7.70258 38.0199 8.11 37.6125 8.11 37.1099V30.8199C8.11 30.3173 7.70258 29.9099 7.2 29.9099Z" fill="#CA9E9E"/>
<path d="M17.17 29.9099H10.88C10.3774 29.9099 9.96997 30.3173 9.96997 30.8199V37.1099C9.96997 37.6125 10.3774 38.0199 10.88 38.0199H17.17C17.6726 38.0199 18.08 37.6125 18.08 37.1099V30.8199C18.08 30.3173 17.6726 29.9099 17.17 29.9099Z" fill="#CCD8E5"/>
<path d="M27.1399 29.9099H20.8499C20.3474 29.9099 19.9399 30.3173 19.9399 30.8199V37.1099C19.9399 37.6125 20.3474 38.0199 20.8499 38.0199H27.1399C27.6425 38.0199 28.0499 37.6125 28.0499 37.1099V30.8199C28.0499 30.3173 27.6425 29.9099 27.1399 29.9099Z" fill="#CA9E9E"/>
<path d="M37.1099 29.9099H30.8199C30.3173 29.9099 29.9099 30.3173 29.9099 30.8199V37.1099C29.9099 37.6125 30.3173 38.0199 30.8199 38.0199H37.1099C37.6125 38.0199 38.0199 37.6125 38.0199 37.1099V30.8199C38.0199 30.3173 37.6125 29.9099 37.1099 29.9099Z" fill="#CA9E9E"/>
<path d="M47.0901 29.9099H40.8001C40.2976 29.9099 39.8901 30.3173 39.8901 30.8199V37.1099C39.8901 37.6125 40.2976 38.0199 40.8001 38.0199H47.0901C47.5927 38.0199 48.0001 37.6125 48.0001 37.1099V30.8199C48.0001 30.3173 47.5927 29.9099 47.0901 29.9099Z" fill="#CA9E9E"/>
<path d="M7.2 39.89H0.91C0.407421 39.89 0 40.2974 0 40.8V47.09C0 47.5926 0.407421 48 0.91 48H7.2C7.70258 48 8.11 47.5926 8.11 47.09V40.8C8.11 40.2974 7.70258 39.89 7.2 39.89Z" fill="#F7D3C2"/>
<path d="M17.17 39.89H10.88C10.3774 39.89 9.96997 40.2974 9.96997 40.8V47.09C9.96997 47.5926 10.3774 48 10.88 48H17.17C17.6726 48 18.08 47.5926 18.08 47.09V40.8C18.08 40.2974 17.6726 39.89 17.17 39.89Z" fill="#F7D3C2"/>
<path d="M27.1399 39.89H20.8499C20.3474 39.89 19.9399 40.2974 19.9399 40.8V47.09C19.9399 47.5926 20.3474 48 20.8499 48H27.1399C27.6425 48 28.0499 47.5926 28.0499 47.09V40.8C28.0499 40.2974 27.6425 39.89 27.1399 39.89Z" fill="#F7D3C2"/>
<path d="M37.1099 39.89H30.8199C30.3173 39.89 29.9099 40.2974 29.9099 40.8V47.09C29.9099 47.5926 30.3173 48 30.8199 48H37.1099C37.6125 48 38.0199 47.5926 38.0199 47.09V40.8C38.0199 40.2974 37.6125 39.89 37.1099 39.89Z" fill="#F7D3C2"/>
<path d="M47.0901 39.89H40.8001C40.2976 39.89 39.8901 40.2974 39.8901 40.8V47.09C39.8901 47.5926 40.2976 48 40.8001 48H47.0901C47.5927 48 48.0001 47.5926 48.0001 47.09V40.8C48.0001 40.2974 47.5927 39.89 47.0901 39.89Z" fill="#F7D3C2"/>
</svg>
