<svg width="100" height="77" viewBox="0 0 100 77" fill="none" xmlns="http://www.w3.org/2000/svg">
<path d="M9.60216 59.426H11.6182C11.8222 59.426 11.9242 59.528 11.9242 59.732V70.694C11.9242 70.898 11.8222 71 11.6182 71H10.5022C10.2982 71 10.1962 70.898 10.1962 70.694V61.604H10.1242L7.78416 68.192C7.71216 68.384 7.58016 68.48 7.38816 68.48H6.23616C6.05616 68.48 5.93016 68.384 5.85816 68.192L3.46416 61.586H3.39216V70.694C3.39216 70.814 3.36816 70.898 3.32016 70.946C3.28416 70.982 3.20616 71 3.08616 71H1.98816C1.78416 71 1.68216 70.898 1.68216 70.694V59.732C1.68216 59.528 1.78416 59.426 1.98816 59.426H4.00416C4.13616 59.426 4.23216 59.492 4.29216 59.624L6.75816 66.572H6.84816L9.33216 59.624C9.35616 59.492 9.44616 59.426 9.60216 59.426ZM18.5634 71H16.9794C16.0914 71 15.4014 70.754 14.9094 70.262C14.4294 69.77 14.1894 69.086 14.1894 68.21V64.61C14.1894 63.722 14.4294 63.038 14.9094 62.558C15.4014 62.066 16.0914 61.82 16.9794 61.82H18.5634C19.4394 61.82 20.1234 62.066 20.6154 62.558C21.1194 63.038 21.3714 63.722 21.3714 64.61V68.21C21.3714 69.086 21.1194 69.77 20.6154 70.262C20.1234 70.754 19.4394 71 18.5634 71ZM17.2314 69.47H18.3294C19.1934 69.47 19.6254 69.032 19.6254 68.156V64.664C19.6254 63.788 19.1934 63.35 18.3294 63.35H17.2314C16.7754 63.35 16.4454 63.458 16.2414 63.674C16.0374 63.878 15.9354 64.208 15.9354 64.664V68.156C15.9354 68.612 16.0374 68.948 16.2414 69.164C16.4454 69.368 16.7754 69.47 17.2314 69.47ZM26.8597 71H25.9417C25.0777 71 24.4117 70.76 23.9437 70.28C23.4877 69.788 23.2597 69.098 23.2597 68.21V64.61C23.2597 63.71 23.4877 63.02 23.9437 62.54C24.4117 62.06 25.0777 61.82 25.9417 61.82H26.8597C27.7837 61.82 28.3837 62.138 28.6597 62.774H28.7317V58.652C28.7317 58.448 28.8337 58.346 29.0377 58.346H30.1897C30.3937 58.346 30.4957 58.448 30.4957 58.652V70.694C30.4957 70.898 30.3937 71 30.1897 71H29.0377C28.8337 71 28.7317 70.898 28.7317 70.694V70.046H28.6597C28.3837 70.682 27.7837 71 26.8597 71ZM28.7317 67.94V64.88C28.7317 63.86 28.2397 63.35 27.2557 63.35H26.3017C25.4377 63.35 25.0057 63.794 25.0057 64.682V68.138C25.0057 69.026 25.4377 69.47 26.3017 69.47H27.2557C28.2397 69.47 28.7317 68.96 28.7317 67.94ZM39.2541 71H35.3661C34.4781 71 33.7881 70.754 33.2961 70.262C32.8161 69.77 32.5761 69.086 32.5761 68.21V64.61C32.5761 63.722 32.8161 63.038 33.2961 62.558C33.7881 62.066 34.4781 61.82 35.3661 61.82H36.8421C37.7301 61.82 38.4201 62.066 38.9121 62.558C39.4041 63.038 39.6501 63.722 39.6501 64.61V66.896C39.6501 67.112 39.5421 67.22 39.3261 67.22H34.5021C34.3701 67.22 34.3041 67.28 34.3041 67.4V68.174C34.3041 69.05 34.7421 69.488 35.6181 69.488H39.2541C39.4701 69.488 39.5781 69.596 39.5781 69.812V70.712C39.5781 70.904 39.4701 71 39.2541 71ZM34.5021 65.996H37.7241C37.8441 65.996 37.9041 65.936 37.9041 65.816V64.664C37.9041 64.208 37.8021 63.878 37.5981 63.674C37.3941 63.458 37.0641 63.35 36.6081 63.35H35.6181C35.1621 63.35 34.8321 63.458 34.6281 63.674C34.4241 63.878 34.3221 64.208 34.3221 64.664V65.816C34.3221 65.936 34.3821 65.996 34.5021 65.996ZM43.073 71H41.939C41.735 71 41.633 70.898 41.633 70.694V62.126C41.633 61.922 41.735 61.82 41.939 61.82H43.073C43.277 61.82 43.379 61.922 43.379 62.126V62.81H43.451C43.571 62.51 43.799 62.27 44.135 62.09C44.483 61.91 44.867 61.82 45.287 61.82H45.953C46.157 61.82 46.259 61.922 46.259 62.126V63.062C46.259 63.29 46.157 63.386 45.953 63.35H44.873C43.877 63.35 43.379 63.896 43.379 64.988V70.694C43.379 70.898 43.277 71 43.073 71ZM49.1023 71H47.9683C47.7643 71 47.6623 70.898 47.6623 70.694V62.126C47.6623 61.922 47.7643 61.82 47.9683 61.82H49.1023C49.3063 61.82 49.4083 61.922 49.4083 62.126V62.774H49.4803C49.7683 62.138 50.3743 61.82 51.2983 61.82H52.0903C52.9663 61.82 53.6383 62.06 54.1063 62.54C54.5743 63.02 54.8083 63.71 54.8083 64.61V70.694C54.8083 70.898 54.7003 71 54.4843 71H53.3503C53.1463 71 53.0443 70.898 53.0443 70.694V64.682C53.0443 63.794 52.6063 63.35 51.7303 63.35H50.8843C49.9003 63.35 49.4083 63.86 49.4083 64.88V70.694C49.4083 70.898 49.3063 71 49.1023 71ZM61.2142 68.192V67.724C61.2142 67.52 61.3162 67.418 61.5202 67.418H62.6722C62.8762 67.418 62.9782 67.52 62.9782 67.724V68.048C62.9782 68.552 63.0862 68.918 63.3022 69.146C63.5302 69.362 63.9022 69.47 64.4182 69.47H65.6602C66.1762 69.47 66.5482 69.356 66.7762 69.128C67.0042 68.888 67.1182 68.504 67.1182 67.976V67.562C67.1182 67.178 66.9682 66.878 66.6682 66.662C66.3802 66.434 66.0202 66.29 65.5882 66.23C65.1562 66.158 64.6822 66.062 64.1662 65.942C63.6502 65.822 63.1762 65.684 62.7442 65.528C62.3122 65.372 61.9462 65.078 61.6462 64.646C61.3582 64.214 61.2142 63.662 61.2142 62.99V62.234C61.2142 61.358 61.4602 60.674 61.9522 60.182C62.4562 59.678 63.1462 59.426 64.0222 59.426H65.9302C66.8182 59.426 67.5082 59.678 68.0002 60.182C68.5042 60.674 68.7562 61.358 68.7562 62.234V62.63C68.7562 62.834 68.6542 62.936 68.4502 62.936H67.2982C67.0942 62.936 66.9922 62.834 66.9922 62.63V62.396C66.9922 61.88 66.8782 61.514 66.6502 61.298C66.4342 61.07 66.0682 60.956 65.5522 60.956H64.4182C63.9022 60.956 63.5302 61.076 63.3022 61.316C63.0862 61.544 62.9782 61.94 62.9782 62.504V63.062C62.9782 63.602 63.3682 63.968 64.1482 64.16C64.4962 64.244 64.8742 64.316 65.2822 64.376C65.7022 64.436 66.1222 64.526 66.5422 64.646C66.9622 64.766 67.3462 64.928 67.6942 65.132C68.0422 65.324 68.3242 65.624 68.5402 66.032C68.7562 66.428 68.8642 66.914 68.8642 67.49V68.192C68.8642 69.068 68.6122 69.758 68.1082 70.262C67.6162 70.754 66.9322 71 66.0562 71H64.0402C63.1642 71 62.4742 70.754 61.9702 70.262C61.4662 69.758 61.2142 69.068 61.2142 68.192ZM71.3815 63.35H70.5175C70.3975 63.35 70.3135 63.332 70.2655 63.296C70.2295 63.248 70.2115 63.17 70.2115 63.062V62.126C70.2115 61.922 70.3135 61.82 70.5175 61.82H71.3815C71.5015 61.82 71.5615 61.76 71.5615 61.64V60.02C71.5615 59.816 71.6695 59.714 71.8855 59.714H73.0195C73.2235 59.714 73.3255 59.816 73.3255 60.02V61.64C73.3255 61.76 73.3915 61.82 73.5235 61.82H75.1975C75.4135 61.82 75.5215 61.922 75.5215 62.126V63.062C75.5215 63.254 75.4135 63.35 75.1975 63.35H73.5235C73.3915 63.35 73.3255 63.41 73.3255 63.53V68.156C73.3255 69.032 73.7755 69.47 74.6755 69.47H75.3775C75.5935 69.47 75.7015 69.572 75.7015 69.776V70.712C75.7015 70.904 75.5935 71 75.3775 71H74.4055C73.5175 71 72.8215 70.76 72.3175 70.28C71.8135 69.8 71.5615 69.122 71.5615 68.246V63.53C71.5615 63.41 71.5015 63.35 71.3815 63.35ZM80.7341 71H80.0321C79.1441 71 78.4541 70.754 77.9621 70.262C77.4821 69.77 77.2421 69.086 77.2421 68.21V64.61C77.2421 63.722 77.4821 63.038 77.9621 62.558C78.4541 62.066 79.1441 61.82 80.0321 61.82H84.0641C84.2801 61.82 84.3881 61.922 84.3881 62.126V70.694C84.3881 70.898 84.2801 71 84.0641 71H82.9301C82.7261 71 82.6241 70.898 82.6241 70.694V70.046H82.5521C82.2641 70.682 81.6581 71 80.7341 71ZM82.6241 67.94V63.53C82.6241 63.41 82.5581 63.35 82.4261 63.35H80.2841C79.4201 63.35 78.9881 63.794 78.9881 64.682V68.138C78.9881 69.026 79.4201 69.47 80.2841 69.47H81.1481C82.1321 69.47 82.6241 68.96 82.6241 67.94ZM86.903 63.35H86.039C85.919 63.35 85.835 63.332 85.787 63.296C85.751 63.248 85.733 63.17 85.733 63.062V62.126C85.733 61.922 85.835 61.82 86.039 61.82H86.903C87.023 61.82 87.083 61.76 87.083 61.64V60.02C87.083 59.816 87.191 59.714 87.407 59.714H88.541C88.745 59.714 88.847 59.816 88.847 60.02V61.64C88.847 61.76 88.913 61.82 89.045 61.82H90.719C90.935 61.82 91.043 61.922 91.043 62.126V63.062C91.043 63.254 90.935 63.35 90.719 63.35H89.045C88.913 63.35 88.847 63.41 88.847 63.53V68.156C88.847 69.032 89.297 69.47 90.197 69.47H90.899C91.115 69.47 91.223 69.572 91.223 69.776V70.712C91.223 70.904 91.115 71 90.899 71H89.927C89.039 71 88.343 70.76 87.839 70.28C87.335 69.8 87.083 69.122 87.083 68.246V63.53C87.083 63.41 87.023 63.35 86.903 63.35ZM96.2196 71H92.9076C92.7036 71 92.6016 70.898 92.6016 70.694V69.812C92.6016 69.62 92.7036 69.524 92.9076 69.524H95.9316C96.7116 69.524 97.1016 69.254 97.1016 68.714V68.498C97.1016 68.018 96.8196 67.652 96.2556 67.4L94.2936 66.464C93.6816 66.176 93.2376 65.858 92.9616 65.51C92.6856 65.162 92.5476 64.706 92.5476 64.142C92.5476 62.594 93.4056 61.82 95.1216 61.82H98.1096C98.3016 61.82 98.3976 61.922 98.3976 62.126V63.008C98.3976 63.212 98.3016 63.314 98.1096 63.314H95.4816C95.1216 63.314 94.8456 63.38 94.6536 63.512C94.4616 63.632 94.3656 63.794 94.3656 63.998V64.196C94.3656 64.58 94.6716 64.916 95.2836 65.204L97.2636 66.212C97.8876 66.488 98.3136 66.818 98.5416 67.202C98.7816 67.574 98.9016 68.06 98.9016 68.66C98.9016 70.22 98.0076 71 96.2196 71Z" fill="white"/>
<path d="M33.2 0H26.91C26.4074 0 26 0.407421 26 0.91V7.2C26 7.70258 26.4074 8.11 26.91 8.11H33.2C33.7026 8.11 34.11 7.70258 34.11 7.2V0.91C34.11 0.407421 33.7026 0 33.2 0Z" fill="#DFE8F4"/>
<path d="M43.17 0H36.88C36.3774 0 35.97 0.407421 35.97 0.91V7.2C35.97 7.70258 36.3774 8.11 36.88 8.11H43.17C43.6726 8.11 44.08 7.70258 44.08 7.2V0.91C44.08 0.407421 43.6726 0 43.17 0Z" fill="#DFE8F4"/>
<path d="M53.1399 0H46.8499C46.3474 0 45.9399 0.407421 45.9399 0.91V7.2C45.9399 7.70258 46.3474 8.11 46.8499 8.11H53.1399C53.6425 8.11 54.0499 7.70258 54.0499 7.2V0.91C54.0499 0.407421 53.6425 0 53.1399 0Z" fill="#DFE8F4"/>
<path d="M63.1099 0H56.8199C56.3173 0 55.9099 0.407421 55.9099 0.91V7.2C55.9099 7.70258 56.3173 8.11 56.8199 8.11H63.1099C63.6125 8.11 64.0199 7.70258 64.0199 7.2V0.91C64.0199 0.407421 63.6125 0 63.1099 0Z" fill="#DFE8F4"/>
<path d="M73.0901 0H66.8001C66.2976 0 65.8901 0.407421 65.8901 0.91V7.2C65.8901 7.70258 66.2976 8.11 66.8001 8.11H73.0901C73.5927 8.11 74.0001 7.70258 74.0001 7.2V0.91C74.0001 0.407421 73.5927 0 73.0901 0Z" fill="#CA9E9E"/>
<path d="M33.2 9.96997H26.91C26.4074 9.96997 26 10.3774 26 10.88V17.17C26 17.6726 26.4074 18.08 26.91 18.08H33.2C33.7026 18.08 34.11 17.6726 34.11 17.17V10.88C34.11 10.3774 33.7026 9.96997 33.2 9.96997Z" fill="#DFE8F4"/>
<path d="M43.17 9.96997H36.88C36.3774 9.96997 35.97 10.3774 35.97 10.88V17.17C35.97 17.6726 36.3774 18.08 36.88 18.08H43.17C43.6726 18.08 44.08 17.6726 44.08 17.17V10.88C44.08 10.3774 43.6726 9.96997 43.17 9.96997Z" fill="#DFE8F4"/>
<path d="M53.1399 9.96997H46.8499C46.3474 9.96997 45.9399 10.3774 45.9399 10.88V17.17C45.9399 17.6726 46.3474 18.08 46.8499 18.08H53.1399C53.6425 18.08 54.0499 17.6726 54.0499 17.17V10.88C54.0499 10.3774 53.6425 9.96997 53.1399 9.96997Z" fill="#DFE8F4"/>
<path d="M63.1099 9.96997H56.8199C56.3173 9.96997 55.9099 10.3774 55.9099 10.88V17.17C55.9099 17.6726 56.3173 18.08 56.8199 18.08H63.1099C63.6125 18.08 64.0199 17.6726 64.0199 17.17V10.88C64.0199 10.3774 63.6125 9.96997 63.1099 9.96997Z" fill="#CA9E9E"/>
<path d="M73.0901 9.96997H66.8001C66.2976 9.96997 65.8901 10.3774 65.8901 10.88V17.17C65.8901 17.6726 66.2976 18.08 66.8001 18.08H73.0901C73.5927 18.08 74.0001 17.6726 74.0001 17.17V10.88C74.0001 10.3774 73.5927 9.96997 73.0901 9.96997Z" fill="#CA9E9E"/>
<path d="M33.2 19.94H26.91C26.4074 19.94 26 20.3474 26 20.85V27.14C26 27.6426 26.4074 28.05 26.91 28.05H33.2C33.7026 28.05 34.11 27.6426 34.11 27.14V20.85C34.11 20.3474 33.7026 19.94 33.2 19.94Z" fill="#CCD8E5"/>
<path d="M43.17 19.94H36.88C36.3774 19.94 35.97 20.3474 35.97 20.85V27.14C35.97 27.6426 36.3774 28.05 36.88 28.05H43.17C43.6726 28.05 44.08 27.6426 44.08 27.14V20.85C44.08 20.3474 43.6726 19.94 43.17 19.94Z" fill="#CCD8E5"/>
<path d="M53.1399 19.94H46.8499C46.3474 19.94 45.9399 20.3474 45.9399 20.85V27.14C45.9399 27.6426 46.3474 28.05 46.8499 28.05H53.1399C53.6425 28.05 54.0499 27.6426 54.0499 27.14V20.85C54.0499 20.3474 53.6425 19.94 53.1399 19.94Z" fill="#CA9E9E"/>
<path d="M63.1099 19.94H56.8199C56.3173 19.94 55.9099 20.3474 55.9099 20.85V27.14C55.9099 27.6426 56.3173 28.05 56.8199 28.05H63.1099C63.6125 28.05 64.0199 27.6426 64.0199 27.14V20.85C64.0199 20.3474 63.6125 19.94 63.1099 19.94Z" fill="#CA9E9E"/>
<path d="M73.0901 19.94H66.8001C66.2976 19.94 65.8901 20.3474 65.8901 20.85V27.14C65.8901 27.6426 66.2976 28.05 66.8001 28.05H73.0901C73.5927 28.05 74.0001 27.6426 74.0001 27.14V20.85C74.0001 20.3474 73.5927 19.94 73.0901 19.94Z" fill="#CA9E9E"/>
<path d="M33.2 29.91H26.91C26.4074 29.91 26 30.3174 26 30.82V37.11C26 37.6126 26.4074 38.02 26.91 38.02H33.2C33.7026 38.02 34.11 37.6126 34.11 37.11V30.82C34.11 30.3174 33.7026 29.91 33.2 29.91Z" fill="#CA9E9E"/>
<path d="M43.17 29.91H36.88C36.3774 29.91 35.97 30.3174 35.97 30.82V37.11C35.97 37.6126 36.3774 38.02 36.88 38.02H43.17C43.6726 38.02 44.08 37.6126 44.08 37.11V30.82C44.08 30.3174 43.6726 29.91 43.17 29.91Z" fill="#CCD8E5"/>
<path d="M53.1399 29.91H46.8499C46.3474 29.91 45.9399 30.3174 45.9399 30.82V37.11C45.9399 37.6126 46.3474 38.02 46.8499 38.02H53.1399C53.6425 38.02 54.0499 37.6126 54.0499 37.11V30.82C54.0499 30.3174 53.6425 29.91 53.1399 29.91Z" fill="#CA9E9E"/>
<path d="M63.1099 29.91H56.8199C56.3173 29.91 55.9099 30.3174 55.9099 30.82V37.11C55.9099 37.6126 56.3173 38.02 56.8199 38.02H63.1099C63.6125 38.02 64.0199 37.6126 64.0199 37.11V30.82C64.0199 30.3174 63.6125 29.91 63.1099 29.91Z" fill="#CA9E9E"/>
<path d="M73.0901 29.91H66.8001C66.2976 29.91 65.8901 30.3174 65.8901 30.82V37.11C65.8901 37.6126 66.2976 38.02 66.8001 38.02H73.0901C73.5927 38.02 74.0001 37.6126 74.0001 37.11V30.82C74.0001 30.3174 73.5927 29.91 73.0901 29.91Z" fill="#CA9E9E"/>
<path d="M33.2 39.89H26.91C26.4074 39.89 26 40.2974 26 40.8V47.09C26 47.5926 26.4074 48 26.91 48H33.2C33.7026 48 34.11 47.5926 34.11 47.09V40.8C34.11 40.2974 33.7026 39.89 33.2 39.89Z" fill="#F7D3C2"/>
<path d="M43.17 39.89H36.88C36.3774 39.89 35.97 40.2974 35.97 40.8V47.09C35.97 47.5926 36.3774 48 36.88 48H43.17C43.6726 48 44.08 47.5926 44.08 47.09V40.8C44.08 40.2974 43.6726 39.89 43.17 39.89Z" fill="#F7D3C2"/>
<path d="M53.1399 39.89H46.8499C46.3474 39.89 45.9399 40.2974 45.9399 40.8V47.09C45.9399 47.5926 46.3474 48 46.8499 48H53.1399C53.6425 48 54.0499 47.5926 54.0499 47.09V40.8C54.0499 40.2974 53.6425 39.89 53.1399 39.89Z" fill="#F7D3C2"/>
<path d="M63.1099 39.89H56.8199C56.3173 39.89 55.9099 40.2974 55.9099 40.8V47.09C55.9099 47.5926 56.3173 48 56.8199 48H63.1099C63.6125 48 64.0199 47.5926 64.0199 47.09V40.8C64.0199 40.2974 63.6125 39.89 63.1099 39.89Z" fill="#F7D3C2"/>
<path d="M73.0901 39.89H66.8001C66.2976 39.89 65.8901 40.2974 65.8901 40.8V47.09C65.8901 47.5926 66.2976 48 66.8001 48H73.0901C73.5927 48 74.0001 47.5926 74.0001 47.09V40.8C74.0001 40.2974 73.5927 39.89 73.0901 39.89Z" fill="#F7D3C2"/>
</svg>
