<svg width="39" height="39" viewBox="0 0 39 39" fill="none" xmlns="http://www.w3.org/2000/svg">
<rect width="39" height="39" rx="6" fill="#232323"/>
<path d="M7 27.125C7 27.7715 7.25681 28.3915 7.71393 28.8486C8.17105 29.3057 8.79103 29.5625 9.4375 29.5625H30.5625C31.209 29.5625 31.829 29.3057 32.2861 28.8486C32.7432 28.3915 33 27.7715 33 27.125V15.75C33 15.1035 32.7432 14.4835 32.2861 14.0264C31.829 13.5693 31.209 13.3125 30.5625 13.3125H9.4375C8.79103 13.3125 8.17105 13.5693 7.71393 14.0264C7.25681 14.4835 7 15.1035 7 15.75V27.125ZM10.25 10.875C10.25 11.0905 10.3356 11.2972 10.488 11.4495C10.6403 11.6019 10.847 11.6875 11.0625 11.6875H28.9375C29.153 11.6875 29.3597 11.6019 29.512 11.4495C29.6644 11.2972 29.75 11.0905 29.75 10.875C29.75 10.6595 29.6644 10.4528 29.512 10.3005C29.3597 10.1481 29.153 10.0625 28.9375 10.0625H11.0625C10.847 10.0625 10.6403 10.1481 10.488 10.3005C10.3356 10.4528 10.25 10.6595 10.25 10.875ZM13.5 7.625C13.5 7.84049 13.5856 8.04715 13.738 8.19952C13.8903 8.3519 14.097 8.4375 14.3125 8.4375H25.6875C25.903 8.4375 26.1097 8.3519 26.262 8.19952C26.4144 8.04715 26.5 7.84049 26.5 7.625C26.5 7.40951 26.4144 7.20285 26.262 7.05048C26.1097 6.8981 25.903 6.8125 25.6875 6.8125H14.3125C14.097 6.8125 13.8903 6.8981 13.738 7.05048C13.5856 7.20285 13.5 7.40951 13.5 7.625Z" fill="white"/>
</svg>
