<svg width="34" height="25" viewBox="0 0 34 25" fill="none" xmlns="http://www.w3.org/2000/svg">
<path d="M30.8751 2.08333C31.1514 2.08333 31.4163 2.19308 31.6117 2.38843C31.807 2.58378 31.9168 2.84873 31.9168 3.125V21.875C31.9168 22.1513 31.807 22.4162 31.6117 22.6116C31.4163 22.8069 31.1514 22.9167 30.8751 22.9167H3.79175C3.51548 22.9167 3.25053 22.8069 3.05518 22.6116C2.85983 22.4162 2.75008 22.1513 2.75008 21.875V3.125C2.75008 2.84873 2.85983 2.58378 3.05518 2.38843C3.25053 2.19308 3.51548 2.08333 3.79175 2.08333H30.8751ZM3.79175 0C2.96295 0 2.16809 0.32924 1.58204 0.915291C0.995988 1.50134 0.666748 2.2962 0.666748 3.125L0.666748 21.875C0.666748 22.7038 0.995988 23.4987 1.58204 24.0847C2.16809 24.6708 2.96295 25 3.79175 25H30.8751C31.7039 25 32.4987 24.6708 33.0848 24.0847C33.6708 23.4987 34.0001 22.7038 34.0001 21.875V3.125C34.0001 2.2962 33.6708 1.50134 33.0848 0.915291C32.4987 0.32924 31.7039 0 30.8751 0H3.79175Z" fill="white"/>
<path d="M15.2501 7.29165C15.2501 7.01538 15.3598 6.75043 15.5552 6.55508C15.7505 6.35973 16.0155 6.24998 16.2918 6.24998H26.7084C26.9847 6.24998 27.2497 6.35973 27.445 6.55508C27.6404 6.75043 27.7501 7.01538 27.7501 7.29165C27.7501 7.56791 27.6404 7.83287 27.445 8.02822C27.2497 8.22357 26.9847 8.33331 26.7084 8.33331H16.2918C16.0155 8.33331 15.7505 8.22357 15.5552 8.02822C15.3598 7.83287 15.2501 7.56791 15.2501 7.29165ZM12.1334 5.51248C12.2304 5.60924 12.3074 5.72419 12.3599 5.85074C12.4124 5.9773 12.4395 6.11296 12.4395 6.24998C12.4395 6.38699 12.4124 6.52266 12.3599 6.64922C12.3074 6.77577 12.2304 6.89072 12.1334 6.98748L9.00843 10.1125C8.91167 10.2095 8.79672 10.2865 8.67017 10.339C8.54361 10.3915 8.40794 10.4185 8.27093 10.4185C8.13391 10.4185 7.99824 10.3915 7.87169 10.339C7.74514 10.2865 7.63019 10.2095 7.53343 10.1125L6.49176 9.07081C6.39491 8.97396 6.31809 8.85899 6.26567 8.73245C6.21326 8.60591 6.18628 8.47028 6.18628 8.33331C6.18628 8.0567 6.29616 7.79141 6.49176 7.59581C6.68736 7.40022 6.95265 7.29033 7.22926 7.29033C7.50588 7.29033 7.77116 7.40022 7.96676 7.59581L8.27093 7.90206L10.6584 5.51248C10.7552 5.41547 10.8701 5.33851 10.9967 5.28599C11.1232 5.23348 11.2589 5.20645 11.3959 5.20645C11.5329 5.20645 11.6686 5.23348 11.7952 5.28599C11.9217 5.33851 12.0367 5.41547 12.1334 5.51248ZM15.2501 15.625C15.2501 15.3487 15.3598 15.0838 15.5552 14.8884C15.7505 14.6931 16.0155 14.5833 16.2918 14.5833H26.7084C26.9847 14.5833 27.2497 14.6931 27.445 14.8884C27.6404 15.0838 27.7501 15.3487 27.7501 15.625C27.7501 15.9012 27.6404 16.1662 27.445 16.3615C27.2497 16.5569 26.9847 16.6666 26.7084 16.6666H16.2918C16.0155 16.6666 15.7505 16.5569 15.5552 16.3615C15.3598 16.1662 15.2501 15.9012 15.2501 15.625ZM12.1334 13.8458C12.2304 13.9426 12.3074 14.0575 12.3599 14.1841C12.4124 14.3106 12.4395 14.4463 12.4395 14.5833C12.4395 14.7203 12.4124 14.856 12.3599 14.9825C12.3074 15.1091 12.2304 15.2241 12.1334 15.3208L9.00843 18.4458C8.91167 18.5428 8.79672 18.6198 8.67017 18.6723C8.54361 18.7248 8.40794 18.7518 8.27093 18.7518C8.13391 18.7518 7.99824 18.7248 7.87169 18.6723C7.74514 18.6198 7.63019 18.5428 7.53343 18.4458L6.49176 17.4041C6.39491 17.3073 6.31809 17.1923 6.26567 17.0658C6.21326 16.9392 6.18628 16.8036 6.18628 16.6666C6.18628 16.5297 6.21326 16.3941 6.26567 16.2675C6.31809 16.141 6.39491 16.026 6.49176 15.9291C6.58861 15.8323 6.70359 15.7555 6.83013 15.7031C6.95667 15.6506 7.0923 15.6237 7.22926 15.6237C7.36623 15.6237 7.50185 15.6506 7.62839 15.7031C7.75493 15.7555 7.86991 15.8323 7.96676 15.9291L8.27093 16.2354L10.6584 13.8458C10.7552 13.7488 10.8701 13.6718 10.9967 13.6193C11.1232 13.5668 11.2589 13.5398 11.3959 13.5398C11.5329 13.5398 11.6686 13.5668 11.7952 13.6193C11.9217 13.6718 12.0367 13.7488 12.1334 13.8458Z" fill="white"/>
</svg>
