<svg width="26" height="30" viewBox="0 0 26 30" fill="none" xmlns="http://www.w3.org/2000/svg">
<path fill-rule="evenodd" clip-rule="evenodd" d="M18.7063 13.2937C18.7994 13.3865 18.8733 13.4968 18.9237 13.6182C18.9741 13.7397 19 13.8699 19 14.0013C19 14.1328 18.9741 14.263 18.9237 14.3844C18.8733 14.5059 18.7994 14.6162 18.7063 14.709L12.708 20.7063C12.6151 20.7994 12.5048 20.8733 12.3833 20.9237C12.2619 20.9741 12.1317 21 12.0002 21C11.8687 21 11.7384 20.9741 11.617 20.9237C11.4955 20.8733 11.3852 20.7994 11.2924 20.7063L8.29318 17.7077C8.20023 17.6147 8.1265 17.5044 8.0762 17.383C8.02589 17.2616 8 17.1314 8 17C8 16.8686 8.02589 16.7384 8.0762 16.617C8.1265 16.4956 8.20023 16.3853 8.29318 16.2923C8.4809 16.1046 8.73551 15.9992 9.00099 15.9992C9.13244 15.9992 9.2626 16.0251 9.38405 16.0754C9.50549 16.1257 9.61584 16.1994 9.70879 16.2923L12.0002 18.5853L17.2907 13.2937C17.3836 13.2006 17.4939 13.1267 17.6153 13.0763C17.7368 13.0259 17.867 13 17.9985 13C18.13 13 18.2602 13.0259 18.3817 13.0763C18.5031 13.1267 18.6134 13.2006 18.7063 13.2937Z" fill="white"/>
<path d="M5.57143 3H3.71429C2.7292 3 1.78445 3.39236 1.08789 4.09077C0.391326 4.78919 0 5.73644 0 6.72414V26.2759C0 27.2636 0.391326 28.2108 1.08789 28.9092C1.78445 29.6076 2.7292 30 3.71429 30H22.2857C23.2708 30 24.2155 29.6076 24.9121 28.9092C25.6087 28.2108 26 27.2636 26 26.2759V6.72414C26 5.73644 25.6087 4.78919 24.9121 4.09077C24.2155 3.39236 23.2708 3 22.2857 3H20.4286V4.86207H22.2857C22.7783 4.86207 23.2506 5.05825 23.5989 5.40746C23.9472 5.75666 24.1429 6.23029 24.1429 6.72414V26.2759C24.1429 26.7697 23.9472 27.2433 23.5989 27.5925C23.2506 27.9418 22.7783 28.1379 22.2857 28.1379H3.71429C3.22174 28.1379 2.74937 27.9418 2.40109 27.5925C2.05281 27.2433 1.85714 26.7697 1.85714 26.2759V6.72414C1.85714 6.23029 2.05281 5.75666 2.40109 5.40746C2.74937 5.05825 3.22174 4.86207 3.71429 4.86207H5.57143V3Z" fill="white"/>
<path d="M16 1.75C16.2652 1.75 16.5196 1.84219 16.7071 2.00628C16.8946 2.17038 17 2.39294 17 2.625V4.375C17 4.60706 16.8946 4.82962 16.7071 4.99372C16.5196 5.15781 16.2652 5.25 16 5.25H10C9.73478 5.25 9.48043 5.15781 9.29289 4.99372C9.10536 4.82962 9 4.60706 9 4.375V2.625C9 2.39294 9.10536 2.17038 9.29289 2.00628C9.48043 1.84219 9.73478 1.75 10 1.75H16ZM10 0C9.20435 0 8.44129 0.276562 7.87868 0.768845C7.31607 1.26113 7 1.92881 7 2.625V4.375C7 5.07119 7.31607 5.73887 7.87868 6.23116C8.44129 6.72344 9.20435 7 10 7H16C16.7956 7 17.5587 6.72344 18.1213 6.23116C18.6839 5.73887 19 5.07119 19 4.375V2.625C19 1.92881 18.6839 1.26113 18.1213 0.768845C17.5587 0.276562 16.7956 0 16 0L10 0Z" fill="white"/>
</svg>
