<svg width="39" height="39" viewBox="0 0 39 39" fill="none" xmlns="http://www.w3.org/2000/svg">
<rect width="39" height="39" rx="6" fill="#232323"/>
<path d="M20.4004 7.34537C20.1021 7.32335 19.8031 7.31231 19.5039 7.3123V5.57144C19.846 5.57161 20.1881 5.58438 20.5293 5.60974L20.4004 7.34537ZM23.8891 8.12876C23.3311 7.91342 22.758 7.73944 22.1744 7.60824L22.5556 5.90917C23.2224 6.05888 23.8787 6.25734 24.5158 6.50454L23.8891 8.12876ZM26.2741 9.36476C26.0252 9.19877 25.7703 9.04199 25.5099 8.89473L26.3681 7.38019C26.9633 7.71745 27.5329 8.09798 28.0724 8.51871L27.0018 9.89224C26.7657 9.70811 26.523 9.53275 26.2741 9.3665V9.36476ZM29.4668 12.4809C29.1225 11.9917 28.7425 11.5285 28.33 11.0952L29.5904 9.89398C30.0604 10.3901 30.4957 10.9211 30.8908 11.4782L29.4668 12.4809ZM30.762 14.8345C30.6477 14.5585 30.5235 14.2868 30.3895 14.0198L31.944 13.2364C32.2515 13.8476 32.5133 14.4807 32.7274 15.1305L31.0736 15.6754C30.9801 15.3914 30.8761 15.1109 30.762 14.8345ZM31.6847 19.1988C31.6706 18.6006 31.6124 18.0042 31.5106 17.4145L33.2253 17.1185C33.342 17.7905 33.4098 18.4729 33.4273 19.1553L31.6864 19.1988H31.6847ZM31.4566 21.8763C31.5141 21.5803 31.5611 21.2861 31.5976 20.9884L33.3263 21.2026C33.2427 21.8818 33.1088 22.5538 32.9259 23.2133L31.2477 22.7484C31.3278 22.4612 31.3974 22.1705 31.4566 21.8763ZM29.7993 26.0178C30.1196 25.5129 30.4017 24.9837 30.6454 24.4371L32.2365 25.1421C31.958 25.7688 31.6359 26.3712 31.2703 26.9491L29.7993 26.0178ZM28.1211 28.1155C28.3335 27.9031 28.5372 27.6838 28.7304 27.4575L30.05 28.5942C29.8265 28.8533 29.5937 29.1042 29.3519 29.3463L28.1211 28.1155Z" fill="white"/>
<path d="M19.5038 7.3123C17.4999 7.31244 15.5269 7.80678 13.7596 8.75153C11.9924 9.69627 10.4854 11.0623 9.37213 12.7285C8.25888 14.3948 7.57372 16.3099 7.37735 18.3042C7.18098 20.2984 7.47946 22.3104 8.24636 24.1618C9.01325 26.0131 10.2249 27.6468 11.7739 28.9181C13.323 30.1894 15.1617 31.0591 17.1271 31.4501C19.0925 31.841 21.124 31.7413 23.0417 31.1597C24.9593 30.578 26.704 29.5324 28.121 28.1155L29.3518 29.3463C27.7324 30.9666 25.7382 32.1625 23.5461 32.828C21.354 33.4934 19.0316 33.6079 16.7847 33.1613C14.5378 32.7147 12.4357 31.7208 10.6647 30.2676C8.89372 28.8144 7.50851 26.9468 6.63181 24.8303C5.75512 22.7138 5.414 20.4138 5.63869 18.1339C5.86338 15.8541 6.64693 13.6648 7.91993 11.7602C9.19293 9.85557 10.9161 8.29433 12.9367 7.21481C14.9572 6.1353 17.2129 5.57083 19.5038 5.57144V7.3123Z" fill="white"/>
<path d="M18.6334 10.794C18.8642 10.794 19.0856 10.8857 19.2489 11.0489C19.4121 11.2122 19.5038 11.4336 19.5038 11.6644V20.7343L25.1581 23.9653C25.3527 24.0827 25.4937 24.2716 25.5509 24.4915C25.6081 24.7115 25.577 24.9451 25.4642 25.1425C25.3514 25.3398 25.166 25.4852 24.9474 25.5476C24.7289 25.61 24.4946 25.5844 24.2946 25.4764L18.2016 21.9947C18.0684 21.9186 17.9577 21.8086 17.8806 21.6759C17.8036 21.5432 17.763 21.3926 17.7629 21.2391V11.6644C17.7629 11.4336 17.8546 11.2122 18.0179 11.0489C18.1811 10.8857 18.4025 10.794 18.6334 10.794Z" fill="white"/>
</svg>
