<svg width="17" height="22" viewBox="0 0 17 22" fill="none" xmlns="http://www.w3.org/2000/svg">
<path fill-rule="evenodd" clip-rule="evenodd" d="M7.27867 21.1966C1.13954 12.2966 0 11.3832 0 8.11238C0 3.63202 3.63202 0 8.11238 0C12.5927 0 16.2248 3.63202 16.2248 8.11238C16.2248 11.3832 15.0852 12.2966 8.9461 21.1966C8.54323 21.7785 7.6815 21.7785 7.27867 21.1966Z" fill="#FF6B6B"/>
<path fill-rule="evenodd" clip-rule="evenodd" d="M8.10111 0C12.5815 0 16.2135 3.63202 16.2135 8.11238C16.2135 11.3832 15.074 12.2966 8.93483 21.1966C8.72338 21.502 8.38552 21.6471 8.05396 21.6319" fill="#EE5253"/>
<path fill-rule="evenodd" clip-rule="evenodd" d="M8.11236 14.1967C11.4726 14.1967 14.1966 11.4726 14.1966 8.11238C14.1966 4.75212 11.4726 2.0281 8.11236 2.0281C4.7521 2.0281 2.02808 4.75212 2.02808 8.11238C2.02808 11.4726 4.7521 14.1967 8.11236 14.1967Z" fill="white"/>
<mask id="mask0_33_1841" style="mask-type:alpha" maskUnits="userSpaceOnUse" x="2" y="2" width="13" height="13">
<path fill-rule="evenodd" clip-rule="evenodd" d="M8.11236 14.1967C11.4726 14.1967 14.1966 11.4726 14.1966 8.11238C14.1966 4.75212 11.4726 2.0281 8.11236 2.0281C4.7521 2.0281 2.02808 4.75212 2.02808 8.11238C2.02808 11.4726 4.7521 14.1967 8.11236 14.1967Z" fill="white"/>
</mask>
<g mask="url(#mask0_33_1841)">
<path d="M8.11238 14.2389C11.496 14.2389 14.2389 11.496 14.2389 8.11238C14.2389 4.72879 11.496 1.98584 8.11238 1.98584C4.72878 1.98584 1.98584 4.72879 1.98584 8.11238C1.98584 11.496 4.72878 14.2389 8.11238 14.2389Z" fill="white"/>
<path d="M8.11243 10.7761C9.58356 10.7761 10.7761 9.5835 10.7761 8.11238C10.7761 6.64126 9.58356 5.44868 8.11243 5.44868C6.64131 5.44868 5.44873 6.64126 5.44873 8.11238C5.44873 9.5835 6.64131 10.7761 8.11243 10.7761Z" fill="#D80027"/>
</g>
</svg>
