<svg width="21" height="26" viewBox="0 0 21 26" fill="none" xmlns="http://www.w3.org/2000/svg">
<path fill-rule="evenodd" clip-rule="evenodd" d="M8.62668 25.4827C1.35058 14.9345 0 13.852 0 9.97534C0 4.66521 4.30468 0.360535 9.61481 0.360535C14.9249 0.360535 19.2296 4.66521 19.2296 9.97534C19.2296 13.852 17.879 14.9345 10.6029 25.4827C10.1254 26.1725 9.10412 26.1724 8.62668 25.4827Z" fill="#FF6B6B"/>
<path fill-rule="evenodd" clip-rule="evenodd" d="M9.6013 0.360535C14.9114 0.360535 19.2161 4.66521 19.2161 9.97534C19.2161 13.852 17.8655 14.9345 10.5894 25.4827C10.3388 25.8447 9.93838 26.0167 9.54541 25.9987" fill="#EE5253"/>
<path fill-rule="evenodd" clip-rule="evenodd" d="M9.61491 16.6356C13.5975 16.6356 16.826 13.4071 16.826 9.42449C16.826 5.44191 13.5975 2.21339 9.61491 2.21339C5.63233 2.21339 2.40381 5.44191 2.40381 9.42449C2.40381 13.4071 5.63233 16.6356 9.61491 16.6356Z" fill="white"/>
<mask id="mask0_33_1658" style="mask-type:alpha" maskUnits="userSpaceOnUse" x="2" y="2" width="15" height="15">
<path fill-rule="evenodd" clip-rule="evenodd" d="M9.61491 16.6356C13.5975 16.6356 16.826 13.4071 16.826 9.42449C16.826 5.44191 13.5975 2.21339 9.61491 2.21339C5.63233 2.21339 2.40381 5.44191 2.40381 9.42449C2.40381 13.4071 5.63233 16.6356 9.61491 16.6356Z" fill="white"/>
</mask>
<g mask="url(#mask0_33_1658)">
<path d="M9.61491 16.6356C13.5975 16.6356 16.826 13.4071 16.826 9.42449C16.826 5.44191 13.5975 2.21339 9.61491 2.21339C5.63233 2.21339 2.40381 5.44191 2.40381 9.42449C2.40381 13.4071 5.63233 16.6356 9.61491 16.6356Z" fill="white"/>
<path d="M3.89435 5.03422C3.32792 5.77119 2.9008 6.6206 2.6521 7.54337H6.40351L3.89435 5.03422Z" fill="#012169"/>
<path d="M16.5775 7.54337C16.3288 6.62063 15.9017 5.77122 15.3353 5.03425L12.8262 7.54337H16.5775Z" fill="#012169"/>
<path d="M2.6521 11.3057C2.90083 12.2284 3.32794 13.0778 3.89435 13.8148L6.40342 11.3057H2.6521V11.3057Z" fill="#012169"/>
<path d="M14.005 3.70408C13.268 3.13764 12.4186 2.71053 11.4958 2.4618V6.21318L14.005 3.70408Z" fill="#012169"/>
<path d="M5.22461 15.1449C5.96158 15.7113 6.811 16.1384 7.73374 16.3872V12.6358L5.22461 15.1449Z" fill="#012169"/>
<path d="M7.73371 2.4618C6.81097 2.71053 5.96155 3.13764 5.22461 3.70405L7.73371 6.21315V2.4618Z" fill="#012169"/>
<path d="M11.4958 16.3872C12.4186 16.1384 13.268 15.7113 14.0049 15.1449L11.4958 12.6358V16.3872Z" fill="#012169"/>
<path d="M12.8262 11.3057L15.3353 13.8148C15.9017 13.0779 16.3288 12.2284 16.5775 11.3057H12.8262Z" fill="#012169"/>
<path d="M16.765 8.48392H10.5555H10.5555V2.27443C10.2476 2.23434 9.93369 2.21339 9.61491 2.21339C9.29607 2.21339 8.98222 2.23434 8.67434 2.27443V8.48386V8.48389H2.46485C2.42477 8.7918 2.40381 9.10571 2.40381 9.42449C2.40381 9.74333 2.42477 10.0572 2.46485 10.3651H8.67429H8.67431V16.5746C8.98222 16.6146 9.29607 16.6356 9.61491 16.6356C9.93369 16.6356 10.2476 16.6147 10.5555 16.5746V10.3651V10.3651H16.765C16.8051 10.0572 16.826 9.74333 16.826 9.42449C16.826 9.10571 16.8051 8.7918 16.765 8.48392Z" fill="#C8102E"/>
<path d="M11.4958 11.3057V11.3057L14.7137 14.5235C14.8617 14.3756 15.0029 14.2209 15.1376 14.0606L12.3826 11.3057H11.4958V11.3057Z" fill="#C8102E"/>
<path d="M7.73374 11.3057H7.73368L4.51587 14.5235C4.66381 14.6715 4.81848 14.8127 4.97882 14.9474L7.73374 12.1924V11.3057Z" fill="#C8102E"/>
<path d="M7.73352 7.54337V7.54332L4.51567 4.32545C4.36768 4.47339 4.2265 4.62806 4.0918 4.78839L6.84675 7.54334H7.73352V7.54337Z" fill="#C8102E"/>
<path d="M11.4958 7.54337V7.54337L14.7137 4.32548C14.5658 4.17748 14.4111 4.0363 14.2508 3.90163L11.4958 6.65658V7.54337H11.4958Z" fill="#C8102E"/>
</g>
</svg>
 