<svg width="47" height="60" viewBox="0 0 47 60" fill="none" xmlns="http://www.w3.org/2000/svg">
<path fill-rule="evenodd" clip-rule="evenodd" d="M26.6703 58.1524C43.5129 33.7356 46.6392 31.2297 46.6392 22.2562C46.6392 9.96439 36.6748 0 24.383 0C12.0912 0 2.12679 9.96439 2.12679 22.2562C2.12679 31.2297 5.25309 33.7356 22.0957 58.1524C23.201 59.749 25.5651 59.7489 26.6703 58.1524Z" fill="#FF6B6B"/>
<path fill-rule="evenodd" clip-rule="evenodd" d="M24.4141 0C12.1223 0 2.1579 9.96439 2.1579 22.2562C2.1579 31.2297 5.28419 33.7356 22.1268 58.1524C22.7069 58.9904 23.6338 59.3886 24.5435 59.3469" fill="#EE5253"/>
<path fill-rule="evenodd" clip-rule="evenodd" d="M24.3831 38.9483C15.1642 38.9483 7.69092 31.475 7.69092 22.2562C7.69092 13.0374 15.1642 5.56404 24.3831 5.56404C33.6019 5.56404 41.0752 13.0374 41.0752 22.2562C41.0752 31.475 33.6019 38.9483 24.3831 38.9483Z" fill="white"/>
<mask id="mask0_33_1636" style="mask-type:alpha" maskUnits="userSpaceOnUse" x="7" y="5" width="35" height="34">
<path fill-rule="evenodd" clip-rule="evenodd" d="M24.3831 38.9483C15.1642 38.9483 7.69092 31.475 7.69092 22.2562C7.69092 13.0374 15.1642 5.56404 24.3831 5.56404C33.6019 5.56404 41.0752 13.0374 41.0752 22.2562C41.0752 31.475 33.6019 38.9483 24.3831 38.9483Z" fill="white"/>
</mask>
<g mask="url(#mask0_33_1636)">
<path d="M24.3829 39.0642C15.1 39.0642 7.57481 31.539 7.57481 22.2562C7.57481 12.9734 15.1 5.44813 24.3829 5.44813C33.6657 5.44813 41.1909 12.9734 41.1909 22.2562C41.1909 31.539 33.6657 39.0642 24.3829 39.0642Z" fill="white"/>
<path d="M25.1138 22.2562H7.57496C7.57496 20.7391 7.77718 19.2695 8.15398 17.8714H25.1138V22.2562Z" fill="#B22234"/>
<path d="M25.1138 13.4868H10.0419C11.0708 11.8078 12.3864 10.3238 13.9203 9.10204H25.1138V13.4868Z" fill="#B22234"/>
<path d="M24.383 39.0642C20.4272 39.0642 16.7914 37.697 13.9202 35.4103H34.8457C31.9745 37.697 28.3387 39.0642 24.383 39.0642Z" fill="#B22234"/>
<path d="M38.7241 31.0256H10.0419C9.21592 29.6777 8.57531 28.2044 8.154 26.6408H40.6121C40.1907 28.2044 39.5501 29.6777 38.7241 31.0256Z" fill="#B22234"/>
<path fill-rule="evenodd" clip-rule="evenodd" d="M31.8734 8.07294H33.4051C30.7985 6.41131 27.7032 5.44813 24.3829 5.44813V22.2562H41.1909C41.1909 21.5464 41.1464 20.847 41.061 20.1604L40.2076 19.5403L38.7829 20.5754L39.3271 18.9005L37.9024 17.8655H39.6634L40.1405 16.3969C39.9754 15.9527 39.7917 15.5176 39.5909 15.0921L38.7829 15.6791L39.216 14.3462C39.0861 14.1032 38.9506 13.8638 38.8093 13.6281L37.9024 12.9692H38.3932C37.4871 11.6051 36.3876 10.3809 35.1332 9.33598L35.6033 10.7828L34.1786 9.74777L32.7539 10.7828L33.2982 9.10802L31.8734 8.07294ZM34.1786 19.5403L32.7539 20.5754L33.2981 18.9005L31.8734 17.8655H33.6344L34.1786 16.1906L34.7227 17.8655H36.4838L35.059 18.9005L35.6033 20.5754L34.1786 19.5403ZM33.2981 14.0043L32.7539 15.6791L34.1786 14.644L35.6033 15.6791L35.059 14.0043L36.4838 12.9692H34.7227L34.1786 11.2944L33.6344 12.9692H31.8734L33.2981 14.0043ZM28.1497 19.5403L26.725 20.5754L27.2692 18.9005L25.8445 17.8655H27.6055L28.1497 16.1906L28.6938 17.8655H30.4549L29.0301 18.9005L29.5744 20.5754L28.1497 19.5403ZM27.2692 14.0043L26.725 15.6791L28.1497 14.644L29.5744 15.6791L29.0301 14.0043L30.4549 12.9692H28.6938L28.1497 11.2944L27.6055 12.9692H25.8445L27.2692 14.0043ZM26.725 10.7828L27.2692 9.10802L25.8445 8.07294H27.6055L28.1497 6.39811L28.6938 8.07294H30.4549L29.0301 9.10802L29.5744 10.7828L28.1497 9.74777L26.725 10.7828Z" fill="#3C3B6E"/>
</g>
</svg>
